comic-neue_regular.sfdir
StartChar: exclam
Encoding: 33 33 94
Width: 196
Flags: MW
HStem: 0 83<84.5 97> 673 20G<88 104>
VStem: 55 70 67 58<181 663>
LayerCount: 2
Back
Fore
SplineSet
67 181 m 2xe0
 67 663 l 2xd0
 67 679 80 693 96 693 c 0
 112 693 125 679 125 663 c 2
 125 181 l 2
 125 165 112 152 96 152 c 0
 80 152 67 165 67 181 c 2xe0
127 47 m 0
 127 20 107 0 87 0 c 0
 68 0 55 16 55 37 c 0xe0
 55 61 74 83 95 83 c 0
 114 83 127 66 127 47 c 0
EndSplineSet
EndChar
StartChar: quotedbl
Encoding: 34 34 5
Width: 641
GlyphClass: 2
Flags: W
LayerCount: 2
Back
Fore
SplineSet
141 1081 m 2,0,-1
 141 1356 l 2,1,2
 141 1379 141 1379 157.5 1396 c 128,-1,3
 174 1413 174 1413 199 1413 c 0,4,5
 222 1413 222 1413 239 1395.5 c 128,-1,6
 256 1378 256 1378 256 1356 c 2,7,-1
 256 1081 l 2,8,9
 256 1056 256 1056 239 1040 c 128,-1,10
 222 1024 222 1024 199 1024 c 0,11,12
 174 1024 174 1024 157.5 1040.5 c 128,-1,13
 141 1057 141 1057 141 1081 c 2,0,-1
385 1081 m 2,14,-1
 385 1356 l 2,15,16
 385 1379 385 1379 401.5 1396 c 128,-1,17
 418 1413 418 1413 442 1413 c 0,18,19
 465 1413 465 1413 482.5 1395.5 c 128,-1,20
 500 1378 500 1378 500 1356 c 2,21,-1
 500 1081 l 2,22,23
 500 1056 500 1056 482.5 1040 c 128,-1,24
 465 1024 465 1024 442 1024 c 0,25,26
 417 1024 417 1024 401 1040.5 c 128,-1,27
 385 1057 385 1057 385 1081 c 2,14,-1
EndSplineSet
EndChar
StartChar: numbersign
Encoding: 35 35 6
Width: 1527
GlyphClass: 2
Flags: W
LayerCount: 2
Back
Fore
SplineSet
125 487 m 0,0,1
 125 510 125 510 141.5 527.5 c 128,-1,2
 158 545 158 545 182 545 c 2,3,-1
 455 545 l 1,4,-1
 551 879 l 1,5,-1
 274 879 l 2,6,7
 249 879 249 879 233 895 c 128,-1,8
 217 911 217 911 217 936 c 0,9,10
 217 959 217 959 233.5 976 c 128,-1,11
 250 993 250 993 274 993 c 2,12,-1
 586 993 l 1,13,-1
 694 1370 l 2,14,15
 700 1393 700 1393 721.5 1404 c 128,-1,16
 743 1415 743 1415 766 1409 c 256,17,18
 789 1403 789 1403 800 1381.5 c 128,-1,19
 811 1360 811 1360 805 1337 c 2,20,-1
 705 993 l 1,21,-1
 1018 993 l 1,22,-1
 1126 1370 l 2,23,24
 1132 1393 1132 1393 1154 1404 c 128,-1,25
 1176 1415 1176 1415 1198 1409 c 0,26,27
 1221 1403 1221 1403 1232 1381.5 c 128,-1,28
 1243 1360 1243 1360 1237 1337 c 2,29,-1
 1137 993 l 1,30,-1
 1343 993 l 2,31,32
 1366 993 1366 993 1383.5 975.5 c 128,-1,33
 1401 958 1401 958 1401 936 c 0,34,35
 1401 911 1401 911 1383.5 895 c 128,-1,36
 1366 879 1366 879 1343 879 c 2,37,-1
 1104 879 l 1,38,-1
 1006 545 l 1,39,-1
 1251 545 l 2,40,41
 1274 545 1274 545 1291.5 527.5 c 128,-1,42
 1309 510 1309 510 1309 487 c 0,43,44
 1309 462 1309 462 1291.5 446 c 128,-1,45
 1274 430 1274 430 1251 430 c 2,46,-1
 973 430 l 1,47,-1
 860 41 l 1,48,49
 846 0 846 0 805 0 c 0,50,51
 795 0 795 0 788 2 c 0,52,53
 765 8 765 8 754 29.5 c 128,-1,54
 743 51 743 51 750 74 c 2,55,-1
 854 430 l 1,56,-1
 541 430 l 1,57,-1
 428 41 l 1,58,59
 414 0 414 0 373 0 c 0,60,61
 363 0 363 0 356 2 c 0,62,63
 333 8 333 8 322 29.5 c 128,-1,64
 311 51 311 51 317 74 c 2,65,-1
 422 430 l 1,66,-1
 182 430 l 2,67,68
 157 430 157 430 141 446.5 c 128,-1,69
 125 463 125 463 125 487 c 0,0,1
573 545 m 1,70,-1
 887 545 l 1,71,-1
 983 879 l 1,72,-1
 672 879 l 1,73,-1
 573 545 l 1,70,-1
EndSplineSet
EndChar
StartChar: dollar
Encoding: 36 36 7
Width: 1236
GlyphClass: 2
Flags: W
LayerCount: 2
Back
Fore
SplineSet
131 315 m 0,0,1
 131 342 131 342 149.5 360.5 c 128,-1,2
 168 379 168 379 195 379 c 0,3,4
 218 379 218 379 234 365.5 c 128,-1,5
 250 352 250 352 256 332 c 0,6,7
 274 281 274 281 308 242 c 128,-1,8
 342 203 342 203 385 175 c 128,-1,9
 428 147 428 147 478 132 c 128,-1,10
 528 117 528 117 580 111 c 1,11,-1
 580 690 l 1,12,13
 508 713 508 713 438.5 746.5 c 128,-1,14
 369 780 369 780 315.5 826 c 128,-1,15
 262 872 262 872 231.5 931.5 c 128,-1,16
 201 991 201 991 207 1067 c 0,17,18
 213 1151 213 1151 248 1209.5 c 128,-1,19
 283 1268 283 1268 334 1305.5 c 128,-1,20
 385 1343 385 1343 448.5 1362.5 c 128,-1,21
 512 1382 512 1382 580 1389 c 1,22,-1
 580 1481 l 2,23,24
 580 1504 580 1504 596 1521 c 128,-1,25
 612 1538 612 1538 635 1538 c 256,26,27
 658 1538 658 1538 675 1520.5 c 128,-1,28
 692 1503 692 1503 692 1481 c 2,29,-1
 692 1393 l 1,30,-1
 715 1393 l 2,31,32
 748 1393 748 1393 792 1386.5 c 128,-1,33
 836 1380 836 1380 883 1367 c 128,-1,34
 930 1354 930 1354 974 1328.5 c 128,-1,35
 1018 1303 1018 1303 1051 1262 c 0,36,37
 1098 1203 1098 1203 1104 1120 c 1,38,-1
 1104 1116 l 1,39,-1
 1104 1114 l 2,40,41
 1104 1091 1104 1091 1086.5 1075 c 128,-1,42
 1069 1059 1069 1059 1047 1059 c 0,43,44
 1027 1059 1027 1059 1011 1072 c 128,-1,45
 995 1085 995 1085 991 1108 c 1,46,47
 985 1155 985 1155 956 1194 c 1,48,49
 929 1227 929 1227 888.5 1245.5 c 128,-1,50
 848 1264 848 1264 807 1274 c 128,-1,51
 766 1284 766 1284 734 1288 c 128,-1,52
 702 1292 702 1292 696 1292 c 2,53,-1
 692 1292 l 1,54,-1
 692 782 l 1,55,56
 1120 657 1120 657 1108 375 c 1,57,58
 1102 180 1102 180 924 76 c 0,59,60
 867 43 867 43 806 25.5 c 128,-1,61
 745 8 745 8 692 2 c 1,62,-1
 692 -94 l 2,63,64
 692 -117 692 -117 674.5 -134.5 c 128,-1,65
 657 -152 657 -152 635 -152 c 0,66,67
 612 -152 612 -152 596 -134.5 c 128,-1,68
 580 -117 580 -117 580 -94 c 2,69,-1
 580 0 l 1,70,71
 502 6 502 6 431 29.5 c 128,-1,72
 360 53 360 53 303 90 c 128,-1,73
 246 127 246 127 204 178 c 128,-1,74
 162 229 162 229 137 291 c 1,75,76
 131 299 131 299 131 315 c 0,0,1
334 1049 m 1,77,78
 324 908 324 908 580 817 c 1,79,-1
 580 1284 l 1,80,81
 504 1272 504 1272 457 1246.5 c 128,-1,82
 410 1221 410 1221 384 1189 c 128,-1,83
 358 1157 358 1157 347 1120 c 128,-1,84
 336 1083 336 1083 334 1051 c 1,85,-1
 334 1049 l 1,77,78
692 113 m 1,86,87
 729 119 729 119 777 133 c 128,-1,88
 825 147 825 147 870 179 c 128,-1,89
 915 211 915 211 946 261 c 128,-1,90
 977 311 977 311 981 387 c 1,91,92
 981 407 981 407 978 438 c 128,-1,93
 975 469 975 469 948.5 506 c 128,-1,94
 922 543 922 543 862.5 583 c 128,-1,95
 803 623 803 623 692 657 c 1,96,-1
 692 113 l 1,86,87
EndSplineSet
EndChar
StartChar: percent
Encoding: 37 37 96
Width: 728
Flags: MW
HStem: -8 54<500.5 545.5 500.5 560.5> 0 21G<177.5 189.5> 210 54<500.5 545.5> 422 54<174.5 219.5 174.5 234.5> 640 54<174.5 219.5>
VStem: 61 54<535 580.5 535 595.5> 279 54<535 580.5> 387 54<105 150.5 105 165.5> 605 54<105 150.5>
LayerCount: 2
Back
Fore
SplineSet
197 422 m 0xbf80
 122 422 61 483 61 558 c 0
 61 633 122 694 197 694 c 0
 272 694 333 633 333 558 c 0
 333 483 272 422 197 422 c 0xbf80
197 640 m 0
 152 640 115 603 115 558 c 0
 115 512 152 476 197 476 c 0
 242 476 279 512 279 558 c 0
 279 603 242 640 197 640 c 0
523 -8 m 0
 448 -8 387 53 387 128 c 0
 387 203 448 264 523 264 c 0
 598 264 659 203 659 128 c 0
 659 53 598 -8 523 -8 c 0
523 210 m 0
 478 210 441 173 441 128 c 0
 441 82 478 46 523 46 c 0
 568 46 605 82 605 128 c 0
 605 173 568 210 523 210 c 0
185 0 m 0x7f80
 170 0 160 12 160 24 c 0
 160 28 161 34 165 41 c 2
 517 677 l 2
 522 685 530 690 539 690 c 0
 554 690 565 677 565 664 c 0
 565 660 564 656 562 652 c 2
 208 13 l 2
 203 4 194 0 185 0 c 0x7f80
EndSplineSet
EndChar
StartChar: ampersand
Encoding: 38 38 100
Width: 660
Flags: MW
HStem: -4 54<234 274.5 234 276.5> 0 21G<563 574.5> 636 54<273.5 319>
VStem: 61 54<136 225.5 136 239> 148 54<524 573 524 585.5> 389 53<531.5 570.5>
LayerCount: 2
Back
Fore
SplineSet
492 159 m 1xbc
 588 44 l 2
 591 40 594 33 594 27 c 0
 594 12 582 0 567 0 c 0x7c
 559 0 551 4 546 10 c 2
 462 110 l 1
 385 3 289 -4 264 -4 c 0
 167 -4 61 67 61 181 c 0
 61 297 142 346 224 390 c 1
 194 424 148 485 148 548 c 0
 148 623 219 690 295 690 c 0
 371 690 442 622 442 551 c 0
 442 470 400 424 310 376 c 1
 454 204 l 1
 464 223 471 246 479 272 c 0
 487 296 492 304 509 304 c 0
 524 304 535 293 535 278 c 0
 535 276 535 272 531 258 c 0
 520 220 507 187 492 159 c 1xbc
202 548 m 0
 202 500 245 445 273 417 c 1
 388 474 389 514 389 549 c 0
 389 592 343 636 295 636 c 0
 252 636 202 598 202 548 c 0
264 50 m 0xbc
 285 50 363 56 426 153 c 1
 262 350 l 1
 180 306 115 270 115 181 c 0
 115 91 204 50 264 50 c 0xbc
EndSplineSet
EndChar
StartChar: quotesingle
Encoding: 39 39 10
Width: 196
GlyphClass: 2
Flags: W
LayerCount: 2
Back
Fore
SplineSet
41 1081 m 2,0,-1
 41 1356 l 2,1,2
 41 1379 41 1379 57.5 1396 c 128,-1,3
 74 1413 74 1413 98 1413 c 0,4,5
 121 1413 121 1413 138.5 1395.5 c 128,-1,6
 156 1378 156 1378 156 1356 c 2,7,-1
 156 1081 l 2,8,9
 156 1056 156 1056 138.5 1040 c 128,-1,10
 121 1024 121 1024 98 1024 c 0,11,12
 73 1024 73 1024 57 1040.5 c 128,-1,13
 41 1057 41 1057 41 1081 c 2,0,-1
EndSplineSet
EndChar
StartChar: parenleft
Encoding: 40 40 103
Width: 369
Flags: MW
HStem: -108 21G<257 269.5> 775 20G<273 283.5>
VStem: 65 56<229 436.5>
LayerCount: 2
Back
Fore
SplineSet
294 746 m 0
 290 743 121 592 121 351 c 0
 121 107 278 -57 281 -60 c 0
 287 -66 290 -73 290 -81 c 0
 290 -96 276 -108 263 -108 c 0
 251 -108 243 -102 238 -96 c 0
 221 -74 65 91 65 351 c 0
 65 522 141 678 253 783 c 0
 263 792 270 795 276 795 c 0
 291 795 304 782 304 767 c 0
 304 759 300 752 294 746 c 0
EndSplineSet
EndChar
StartChar: parenright
Encoding: 41 41 12
Width: 755
GlyphClass: 2
Flags: W
LayerCount: 2
Back
Fore
SplineSet
130.5 1566 m 128,-1,1
 133 1542 133 1542 152 1528 c 0,2,3
 154 1526 154 1526 180.5 1499.5 c 128,-1,4
 207 1473 207 1473 246 1424.5 c 128,-1,5
 285 1376 285 1376 331 1305.5 c 128,-1,6
 377 1235 377 1235 416 1146 c 128,-1,7
 455 1057 455 1057 480.5 949.5 c 128,-1,8
 506 842 506 842 506 719 c 0,9,10
 506 594 506 594 482.5 483.5 c 128,-1,11
 459 373 459 373 423 279.5 c 128,-1,12
 387 186 387 186 345 112.5 c 128,-1,13
 303 39 303 39 266.5 -13.5 c 128,-1,14
 230 -66 230 -66 205.5 -93.5 c 128,-1,15
 181 -121 181 -121 179 -123 c 0,16,17
 163 -139 163 -139 161.5 -162.5 c 128,-1,18
 160 -186 160 -186 176 -203 c 0,19,20
 194 -221 194 -221 217 -221 c 0,21,22
 237 -221 237 -221 258 -205 c 1,23,24
 258 -205 258 -205 286 -174 c 256,25,26
 314 -143 314 -143 354 -87 c 128,-1,27
 394 -31 394 -31 441 50 c 128,-1,28
 488 131 488 131 528 233.5 c 128,-1,29
 568 336 568 336 594.5 458 c 128,-1,30
 621 580 621 580 621 719 c 0,31,32
 621 909 621 909 559 1092 c 1,33,34
 514 1235 514 1235 426 1372 c 0,35,36
 350 1489 350 1489 288 1551.5 c 128,-1,37
 226 1614 226 1614 224 1616 c 0,38,39
 206 1632 206 1632 183 1629 c 128,-1,40
 160 1626 160 1626 144 1608 c 256,41,0
 128 1590 128 1590 130.5 1566 c 128,-1,1
152 1526 m 1,42,-1
 152 1528 l 1,43,-1
 152 1526 l 1,42,-1
EndSplineSet
EndChar
StartChar: asterisk
Encoding: 42 42 105
Width: 397
Flags: MW
HStem: 439 193<88.5 118.5 88.5 285.5> 670 20G<189.5 204.5>
VStem: 170 54<636 663 627 670.5>
LayerCount: 2
Back
Fore
SplineSet
197 527 m 1
 197 527 180 498 169 486 c 2
 134 448 l 2
 129 442 122 439 115 439 c 0
 102 439 89 450 89 466 c 0
 89 473 91 480 96 486 c 2
 128 521 l 2
 141 536 164 551 164 551 c 1
 164 551 132 557 117 565 c 2
 84 582 l 2
 75 587 70 596 70 606 c 0
 70 618 81 632 96 632 c 0
 102 632 106 631 110 629 c 2
 138 615 l 2
 153 607 175 589 175 589 c 1
 175 589 170 618 170 636 c 2
 170 663 l 2
 170 678 182 690 197 690 c 0
 212 690 224 678 224 663 c 2
 224 636 l 2
 224 618 219 589 219 589 c 1
 219 589 241 607 256 615 c 2
 284 629 l 2
 288 631 292 632 298 632 c 0
 313 632 324 618 324 606 c 0
 324 596 319 587 310 582 c 2
 277 565 l 2
 262 557 230 551 230 551 c 1
 230 551 253 536 266 521 c 2
 298 486 l 2
 303 480 305 473 305 466 c 0
 305 450 292 439 279 439 c 0
 272 439 265 442 260 448 c 2
 225 486 l 2
 214 498 197 527 197 527 c 1
EndSplineSet
EndChar
StartChar: plus
Encoding: 43 43 14
Width: 907
GlyphClass: 2
Flags: W
LayerCount: 2
Back
Fore
SplineSet
111 514 m 0,0,1
 111 537 111 537 127 553 c 128,-1,2
 143 569 143 569 166 569 c 2,3,-1
 397 569 l 1,4,-1
 397 756 l 1,5,-1
 397 778 l 2,6,7
 397 801 397 801 413.5 817.5 c 128,-1,8
 430 834 430 834 453 834 c 256,9,10
 476 834 476 834 492 817.5 c 128,-1,11
 508 801 508 801 508 778 c 2,12,-1
 508 756 l 1,13,-1
 508 569 l 1,14,-1
 741 569 l 2,15,16
 764 569 764 569 780.5 553 c 128,-1,17
 797 537 797 537 797 514 c 256,18,19
 797 491 797 491 780.5 475 c 128,-1,20
 764 459 764 459 741 459 c 2,21,-1
 508 459 l 1,22,-1
 508 233 l 1,23,-1
 508 229 l 2,24,25
 508 206 508 206 491.5 190 c 128,-1,26
 475 174 475 174 453 174 c 0,27,28
 430 174 430 174 413.5 190.5 c 128,-1,29
 397 207 397 207 397 229 c 2,30,-1
 397 459 l 1,31,-1
 166 459 l 2,32,33
 143 459 143 459 127 475.5 c 128,-1,34
 111 492 111 492 111 514 c 0,0,1
EndSplineSet
EndChar
StartChar: comma
Encoding: 44 44 15
Width: 534
GlyphClass: 2
Flags: W
LayerCount: 2
Back
Fore
SplineSet
188 -127 m 1,0,-1
 238 4 l 1,1,2
 211 31 211 31 213 74 c 1,3,4
 217 109 217 109 240.5 133.5 c 128,-1,5
 264 158 264 158 295 158 c 256,6,7
 326 158 326 158 345.5 133.5 c 128,-1,8
 365 109 365 109 360 74 c 1,9,10
 360 66 360 66 356 53 c 2,11,-1
 352 41 l 2,12,13
 348 31 348 31 336 -2 c 128,-1,14
 324 -35 324 -35 309 -70 c 1,15,16
 293 -111 293 -111 274 -160 c 0,17,18
 266 -178 266 -178 248.5 -186.5 c 128,-1,19
 231 -195 231 -195 215 -186 c 1,20,21
 197 -180 197 -180 188.5 -162.5 c 128,-1,22
 180 -145 180 -145 188 -127 c 1,0,-1
EndSplineSet
EndChar
StartChar: hyphen
Encoding: 45 45 16
Width: 903
GlyphClass: 2
Flags: W
LayerCount: 2
Back
Fore
SplineSet
145 512 m 256,0,1
 145 535 145 535 161.5 551 c 128,-1,2
 178 567 178 567 201 567 c 2,3,-1
 707 567 l 2,4,5
 730 567 730 567 746 551 c 128,-1,6
 762 535 762 535 762 512 c 256,7,8
 762 489 762 489 746 473 c 128,-1,9
 730 457 730 457 707 457 c 2,10,-1
 201 457 l 2,11,12
 178 457 178 457 161.5 473 c 128,-1,13
 145 489 145 489 145 512 c 256,0,1
EndSplineSet
EndChar
StartChar: period
Encoding: 46 46 17
Width: 438
GlyphClass: 2
Flags: W
LayerCount: 2
Back
Fore
SplineSet
143 86 m 256,0,1
 147 121 147 121 171 145.5 c 128,-1,2
 195 170 195 170 225 170 c 0,3,4
 256 170 256 170 275.5 145.5 c 128,-1,5
 295 121 295 121 291 86 c 256,6,7
 287 51 287 51 263.5 25.5 c 128,-1,8
 240 0 240 0 209 0 c 256,9,10
 178 0 178 0 158.5 25.5 c 128,-1,11
 139 51 139 51 143 86 c 256,0,1
EndSplineSet
EndChar
StartChar: slash
Encoding: 47 47 18
Width: 1116
GlyphClass: 2
Flags: W
LayerCount: 2
Back
Fore
SplineSet
143.5 38.5 m 128,-1,1
 137 61 137 61 147 84 c 1,2,-1
 870 1389 l 2,3,4
 882 1409 882 1409 905 1415 c 128,-1,5
 928 1421 928 1421 950 1409 c 0,6,7
 970 1399 970 1399 976.5 1376.5 c 128,-1,8
 983 1354 983 1354 971 1331 c 2,9,-1
 248 27 l 2,10,11
 232 -2 232 -2 199 -2 c 0,12,13
 185 -2 185 -2 170 4 c 1,14,0
 150 16 150 16 143.5 38.5 c 128,-1,1
EndSplineSet
EndChar
StartChar: zero
Encoding: 48 48 54
Width: 614
Flags: MW
HStem: -3 55<245 348 245 364.5> 631 55<266.5 368.5>
VStem: 69 54<254.5 409.5 254.5 419.5> 492 53<273 428.5>
LayerCount: 2
Back
Fore
SplineSet
296 -3 m 0
 164 -3 69 150 69 324 c 0
 69 515 179 686 319 686 c 0
 451 686 545 534 545 358 c 0
 545 164 433 -3 296 -3 c 0
319 631 m 0
 214 631 123 493 123 326 c 0
 123 183 194 52 296 52 c 0
 400 52 492 190 492 356 c 0
 492 501 418 631 319 631 c 0
EndSplineSet
EndChar
StartChar: one
Encoding: 49 49 20
Width: 827
GlyphClass: 2
Flags: W
LayerCount: 2
Back
Fore
SplineSet
126 1048.5 m 128,-1,1
 125 1073 125 1073 141 1090 c 2,2,-1
 403 1374 l 2,3,4
 415 1388 415 1388 433 1392.5 c 128,-1,5
 451 1397 451 1397 467 1389 c 1,6,7
 504 1375 504 1375 504 1335 c 2,8,-1
 485 115 l 1,9,-1
 635 115 l 2,10,11
 658 115 658 115 675 97.5 c 128,-1,12
 692 80 692 80 692 57 c 0,13,14
 692 32 692 32 674.5 16 c 128,-1,15
 657 0 657 0 635 0 c 2,16,-1
 188 0 l 2,17,18
 163 0 163 0 147 16.5 c 128,-1,19
 131 33 131 33 131 57 c 0,20,21
 131 80 131 80 147.5 97.5 c 128,-1,22
 164 115 164 115 188 115 c 2,23,-1
 371 115 l 1,24,-1
 387 1186 l 1,25,-1
 225 1012 l 2,26,27
 209 996 209 996 185.5 993.5 c 128,-1,28
 162 991 162 991 143 1008 c 1,29,0
 127 1024 127 1024 126 1048.5 c 128,-1,1
EndSplineSet
EndChar
StartChar: two
Encoding: 50 50 21
Width: 1081
GlyphClass: 2
Flags: W
LayerCount: 2
Back
Fore
SplineSet
130.5 1134.5 m 128,-1,1
 127 1157 127 1157 141 1176 c 1,2,3
 155 1192 155 1192 191 1230 c 128,-1,4
 227 1268 227 1268 287 1305 c 1,5,6
 412 1387 412 1387 553 1386 c 1,7,8
 711 1386 711 1386 819 1294 c 0,9,10
 876 1245 876 1245 907 1179.5 c 128,-1,11
 938 1114 938 1114 938 1040 c 0,12,13
 938 954 938 954 910.5 890.5 c 128,-1,14
 883 827 883 827 837 776 c 128,-1,15
 791 725 791 725 733.5 685 c 128,-1,16
 676 645 676 645 618 606 c 1,17,18
 550 563 550 563 484 515 c 128,-1,19
 418 467 418 467 367 403 c 0,20,21
 312 335 312 335 285 258 c 0,22,23
 273 225 273 225 266.5 189.5 c 128,-1,24
 260 154 260 154 256 113 c 1,25,-1
 899 113 l 2,26,27
 922 113 922 113 939 96.5 c 128,-1,28
 956 80 956 80 956 55 c 0,29,30
 956 32 956 32 939 15 c 128,-1,31
 922 -2 922 -2 899 -2 c 2,32,-1
 139 -2 l 1,33,-1
 139 55 l 2,34,35
 139 305 139 305 276 475 c 0,36,37
 335 549 335 549 410 603 c 128,-1,38
 485 657 485 657 555 702 c 1,39,40
 610 739 610 739 659.5 773 c 128,-1,41
 709 807 709 807 745.5 846 c 128,-1,42
 782 885 782 885 802.5 932 c 128,-1,43
 823 979 823 979 823 1040 c 0,44,45
 823 1140 823 1140 745 1206 c 1,46,47
 708 1239 708 1239 658 1255.5 c 128,-1,48
 608 1272 608 1272 553 1272 c 0,49,50
 483 1272 483 1272 426 1248.5 c 128,-1,51
 369 1225 369 1225 328 1195 c 128,-1,52
 287 1165 287 1165 262.5 1138.5 c 128,-1,53
 238 1112 238 1112 231 1106 c 1,54,55
 217 1088 217 1088 193.5 1084.5 c 128,-1,56
 170 1081 170 1081 152 1096 c 0,57,0
 134 1112 134 1112 130.5 1134.5 c 128,-1,1
EndSplineSet
EndChar
StartChar: three
Encoding: 51 51 22
Width: 1112
GlyphClass: 2
Flags: W
LayerCount: 2
Back
Fore
SplineSet
139 254 m 1,0,1
 143 277 143 277 161.5 292 c 128,-1,2
 180 307 180 307 203 303 c 0,3,4
 236 297 236 297 248 270 c 1,5,-1
 250 264 l 1,6,7
 256 252 256 252 266 238 c 1,8,9
 276 226 276 226 288.5 211.5 c 128,-1,10
 301 197 301 197 319 182 c 0,11,12
 411 102 411 102 547 102 c 0,13,14
 588 102 588 102 642 117.5 c 128,-1,15
 696 133 696 133 748 170 c 1,16,17
 857 256 857 256 856 410 c 0,18,19
 856 516 856 516 803 588 c 0,20,21
 762 645 762 645 686 680 c 1,22,23
 653 694 653 694 621.5 703.5 c 128,-1,24
 590 713 590 713 565.5 717 c 128,-1,25
 541 721 541 721 524 722 c 2,26,-1
 508 723 l 1,27,28
 485 723 485 723 469 740.5 c 128,-1,29
 453 758 453 758 453 780 c 0,30,31
 453 805 453 805 469 821.5 c 128,-1,32
 485 838 485 838 510 838 c 0,33,34
 557 838 557 838 612.5 856 c 128,-1,35
 668 874 668 874 715 907 c 0,36,37
 783 954 783 954 803 1003.5 c 128,-1,38
 823 1053 823 1053 823 1090 c 0,39,40
 823 1125 823 1125 804.5 1160.5 c 128,-1,41
 786 1196 786 1196 751.5 1223.5 c 128,-1,42
 717 1251 717 1251 664.5 1268.5 c 128,-1,43
 612 1286 612 1286 545 1286 c 0,44,45
 484 1286 484 1286 437.5 1274 c 128,-1,46
 391 1262 391 1262 360.5 1246.5 c 128,-1,47
 330 1231 330 1231 314.5 1217.5 c 128,-1,48
 299 1204 299 1204 297 1204 c 1,49,-1
 293 1200 l 2,50,51
 279 1186 279 1186 256 1186 c 256,52,53
 233 1186 233 1186 216 1202.5 c 128,-1,54
 199 1219 199 1219 199 1243 c 0,55,56
 199 1266 199 1266 215 1282 c 1,57,58
 217 1286 217 1286 238.5 1303.5 c 128,-1,59
 260 1321 260 1321 301 1343 c 0,60,61
 412 1400 412 1400 545 1401 c 1,62,63
 715 1401 715 1401 829 1309 c 0,64,65
 882 1266 882 1266 910 1208.5 c 128,-1,66
 938 1151 938 1151 938 1090 c 0,67,68
 938 1010 938 1010 898 938 c 128,-1,69
 858 866 858 866 780 813 c 0,70,71
 770 805 770 805 757.5 799 c 128,-1,72
 745 793 745 793 733 784 c 1,73,-1
 735 784 l 1,74,75
 835 739 835 739 897 655 c 0,76,77
 971 553 971 553 971 410 c 0,78,79
 971 344 971 344 956.5 292 c 128,-1,80
 942 240 942 240 919.5 200 c 128,-1,81
 897 160 897 160 870.5 130 c 128,-1,82
 844 100 844 100 817 80 c 0,83,84
 760 37 760 37 689 12.5 c 128,-1,85
 618 -12 618 -12 547 -12 c 0,86,87
 436 -12 436 -12 360.5 23.5 c 128,-1,88
 285 59 285 59 240 98 c 0,89,90
 193 139 193 139 172.5 174 c 128,-1,91
 152 209 152 209 147 213 c 1,92,-1
 143 223 l 1,93,94
 135 237 135 237 139 254 c 1,0,1
EndSplineSet
EndChar
StartChar: four
Encoding: 52 52 58
Width: 508
Flags: MW
HStem: -1 21G<354 369.5> 168 55 664 20G<355.5 368>
VStem: 334 56<27 165 222 556 556 556> 334 118<27 199.5 166 199.5 184 556>
LayerCount: 2
Back
Fore
SplineSet
362 -1 m 0xf0
 346 -1 334 12 334 27 c 2
 334 166 l 1
 83 170 l 2
 69 170 55 183 55 198 c 0
 55 204 57 208 60 213 c 2
 338 671 l 2
 343 679 351 684 360 684 c 0
 376 684 390 672 390 656 c 2
 390 221 l 1xf0
 425 220 l 2
 441 219 452 207 452 192 c 0xe8
 452 176 439 163 424 164 c 2
 390 165 l 1
 390 27 l 2
 390 12 377 -1 362 -1 c 0xf0
334 556 m 1
 133 225 l 1
 334 222 l 1
 334 556 l 1
EndSplineSet
EndChar
StartChar: five
Encoding: 53 53 24
Width: 1144
GlyphClass: 2
Flags: W
LayerCount: 2
Back
Fore
SplineSet
137 246 m 0,0,1
 137 269 137 269 154.5 286 c 128,-1,2
 172 303 172 303 195 303 c 0,3,4
 230 303 230 303 246 272 c 1,5,-1
 246 270 l 1,6,7
 250 264 250 264 267.5 240.5 c 128,-1,8
 285 217 285 217 319 188 c 0,9,10
 417 108 417 108 547 109 c 0,11,12
 608 109 608 109 670.5 137.5 c 128,-1,13
 733 166 733 166 782 219 c 1,14,15
 899 342 899 342 899 518 c 0,16,17
 899 584 899 584 880.5 648.5 c 128,-1,18
 862 713 862 713 824 763 c 128,-1,19
 786 813 786 813 727 843.5 c 128,-1,20
 668 874 668 874 588 874 c 0,21,22
 520 874 520 874 466 854 c 128,-1,23
 412 834 412 834 373 809 c 128,-1,24
 334 784 334 784 314 762 c 1,25,-1
 293 741 l 1,26,27
 266 710 266 710 225 727 c 0,28,29
 209 733 209 733 198.5 749.5 c 128,-1,30
 188 766 188 766 190 784 c 2,31,-1
 246 1327 l 1,32,33
 250 1350 250 1350 265.5 1364 c 128,-1,34
 281 1378 281 1378 303 1378 c 2,35,-1
 899 1378 l 2,36,37
 922 1378 922 1378 939 1360.5 c 128,-1,38
 956 1343 956 1343 956 1321 c 0,39,40
 956 1296 956 1296 939 1280 c 128,-1,41
 922 1264 922 1264 899 1264 c 2,42,-1
 354 1264 l 1,43,-1
 319 911 l 1,44,45
 368 940 368 940 435 964.5 c 128,-1,46
 502 989 502 989 588 989 c 256,47,48
 674 989 674 989 748.5 958.5 c 128,-1,49
 823 928 823 928 883 868 c 0,50,51
 1014 737 1014 737 1014 518 c 0,52,53
 1014 409 1014 409 976 312 c 128,-1,54
 938 215 938 215 866 141 c 1,55,56
 800 69 800 69 716.5 31.5 c 128,-1,57
 633 -6 633 -6 547 -6 c 0,58,59
 375 -6 375 -6 242 104 c 1,60,61
 195 145 195 145 171 179 c 128,-1,62
 147 213 147 213 145 217 c 1,63,-1
 143 217 l 1,64,65
 137 229 137 229 137 246 c 0,0,1
EndSplineSet
EndChar
StartChar: six
Encoding: 54 54 25
Width: 1118
GlyphClass: 2
Flags: W
LayerCount: 2
Back
Fore
SplineSet
125 506 m 0,0,1
 125 637 125 637 152.5 746.5 c 128,-1,2
 180 856 180 856 223 943 c 128,-1,3
 266 1030 266 1030 318.5 1096.5 c 128,-1,4
 371 1163 371 1163 422 1212 c 1,5,6
 504 1288 504 1288 576.5 1331 c 128,-1,7
 649 1374 649 1374 688 1393 c 1,8,-1
 690 1393 l 1,9,10
 696 1395 696 1395 709 1395 c 0,11,12
 732 1395 732 1395 747 1379.5 c 128,-1,13
 762 1364 762 1364 762 1341 c 0,14,15
 762 1306 762 1306 731 1292 c 1,16,-1
 723 1288 l 1,17,18
 688 1272 688 1272 623.5 1233 c 128,-1,19
 559 1194 559 1194 492 1128 c 1,20,21
 351 995 351 995 285 823 c 1,22,23
 342 858 342 858 418 883.5 c 128,-1,24
 494 909 494 909 592 909 c 0,25,26
 602 909 602 909 635 906 c 128,-1,27
 668 903 668 903 712 891 c 128,-1,28
 756 879 756 879 803 853 c 128,-1,29
 850 827 850 827 890 781 c 128,-1,30
 930 735 930 735 956.5 665.5 c 128,-1,31
 983 596 983 596 983 496 c 0,32,33
 983 416 983 416 968.5 352.5 c 128,-1,34
 954 289 954 289 931.5 241 c 128,-1,35
 909 193 909 193 882.5 158 c 128,-1,36
 856 123 856 123 829 98 c 1,37,38
 763 41 763 41 694 17.5 c 128,-1,39
 625 -6 625 -6 571 -6 c 0,40,41
 518 -6 518 -6 444.5 9.5 c 128,-1,42
 371 25 371 25 301 76 c 0,43,44
 125 205 125 205 125 506 c 0,0,1
231 506 m 0,45,46
 231 381 231 381 262 302 c 128,-1,47
 293 223 293 223 342 179 c 128,-1,48
 391 135 391 135 451.5 118.5 c 128,-1,49
 512 102 512 102 571 102 c 0,50,51
 604 102 604 102 655.5 118.5 c 128,-1,52
 707 135 707 135 756 178 c 128,-1,53
 805 221 805 221 841 298 c 128,-1,54
 877 375 877 375 877 496 c 0,55,56
 877 602 877 602 842 662.5 c 128,-1,57
 807 723 807 723 760 753.5 c 128,-1,58
 713 784 713 784 664.5 792.5 c 128,-1,59
 616 801 616 801 592 801 c 0,60,61
 520 801 520 801 461.5 783.5 c 128,-1,62
 403 766 403 766 359 742.5 c 128,-1,63
 315 719 315 719 285.5 694 c 128,-1,64
 256 669 256 669 242 655 c 1,65,66
 236 618 236 618 233.5 581.5 c 128,-1,67
 231 545 231 545 231 506 c 0,45,46
EndSplineSet
EndChar
StartChar: seven
Encoding: 55 55 26
Width: 1026
GlyphClass: 2
Flags: W
LayerCount: 2
Back
Fore
SplineSet
131 1315 m 0,0,1
 131 1338 131 1338 147.5 1355 c 128,-1,2
 164 1372 164 1372 188 1372 c 2,3,-1
 926 1372 l 2,4,5
 959 1372 959 1372 975 1346 c 1,6,7
 991 1315 991 1315 977 1288 c 2,8,-1
 344 33 l 2,9,10
 328 2 328 2 293 2 c 0,11,12
 279 2 279 2 266 8 c 0,13,14
 246 18 246 18 238.5 39.5 c 128,-1,15
 231 61 231 61 242 84 c 2,16,-1
 834 1257 l 1,17,-1
 188 1257 l 2,18,19
 163 1257 163 1257 147 1273.5 c 128,-1,20
 131 1290 131 1290 131 1315 c 0,0,1
EndSplineSet
EndChar
StartChar: eight
Encoding: 56 56 62
Width: 547
Flags: MW
HStem: -3 55<230 307.5 230 331.5> 630 56<281.5 317>
VStem: 66 55<137.5 179> 99 22 99 54<486.5 565> 406 55<508.5 562.5> 424 37 424 54<140 228>
LayerCount: 2
Back
Fore
SplineSet
272 -3 m 0xe1
 152 -3 66 74 66 179 c 0xe2
 69 284 140 336 205 368 c 1
 149 393 99 434 99 510 c 0
 99 620 184 686 283 686 c 0
 387 686 461 620 461 526 c 0xd2
 461 446 407 403 352 375 c 1
 431 335 478 268 478 189 c 0
 478 79 391 -3 272 -3 c 0xe1
282 343 m 1
 210 311 121 277 121 173 c 0
 121 102 188 52 272 52 c 0
 343 52 424 94 424 186 c 0
 424 270 353 321 282 343 c 1
283 630 m 0
 280 630 153 629 153 514 c 0
 153 459 189 426 278 401 c 1
 384 442 406 485 406 532 c 0xcc
 406 593 351 630 283 630 c 0
EndSplineSet
EndChar
StartChar: nine
Encoding: 57 57 63
Width: 546
Flags: MW
HStem: 0 21G<187.5 198.5> 237 53<235.5 283.5> 631 53<241 300>
VStem: 61 52<372.5 518 370 540> 428 52<421.5 515.5>
LayerCount: 2
Back
Fore
SplineSet
423 361 m 1
 427 385 428 409 428 434 c 0
 428 597 338 631 262 631 c 0
 220 631 113 597 113 439 c 0
 113 301 219 290 252 290 c 0
 345 290 404 342 423 361 c 1
213 5 m 0
 207 2 202 0 195 0 c 0
 180 0 169 11 169 26 c 0
 169 37 175 46 184 50 c 0
 283 98 367 180 402 279 c 1
 365 257 315 237 252 237 c 0
 147 237 61 306 61 439 c 0
 61 641 208 684 262 684 c 0
 368 684 480 624 480 434 c 0
 480 142 259 28 213 5 c 0
EndSplineSet
EndChar
StartChar: colon
Encoding: 58 58 71
Width: 235
Flags: MW
HStem: 0 83<96.5 109.5> 358 83<125.5 138.5>
VStem: 67 72<34 49.5> 96 72<392 407.5>
LayerCount: 2
Back
Fore
SplineSet
99 0 m 0xe0
 80 0 67 17 67 38 c 0
 67 61 86 83 107 83 c 0
 125 83 139 67 139 47 c 0
 139 21 120 0 99 0 c 0xe0
128 358 m 0
 109 358 96 375 96 396 c 0
 96 419 115 441 136 441 c 0
 154 441 168 425 168 405 c 0xd0
 168 379 149 358 128 358 c 0
EndSplineSet
EndChar
StartChar: semicolon
Encoding: 59 59 111
Width: 271
Flags: MW
HStem: -93 170<102.5 149> 358 83<165.5 178.5>
VStem: 100 72<35.5 44> 136 72<392 407.5>
LayerCount: 2
Back
Fore
SplineSet
168 358 m 0xd0
 149 358 136 375 136 396 c 0
 136 419 155 441 176 441 c 0
 194 441 208 425 208 405 c 0
 208 379 189 358 168 358 c 0xd0
140 77 m 0
 158 77 172 60 172 45 c 0
 172 26 168 17 153 -19 c 0
 129 -77 128 -93 109 -93 c 0
 96 -93 86 -83 86 -71 c 0
 86 -68 87 -65 88 -62 c 2
 112 2 l 1
 105 9 100 20 100 32 c 0xe0
 100 56 119 77 140 77 c 0
EndSplineSet
EndChar
StartChar: less
Encoding: 60 60 31
Width: 1105
GlyphClass: 2
Flags: W
LayerCount: 2
Back
Fore
SplineSet
147 508 m 0,0,1
 147 539 147 539 174 555 c 1,2,-1
 866 997 l 1,3,4
 886 1011 886 1011 909 1006 c 128,-1,5
 932 1001 932 1001 944 981 c 1,6,7
 958 961 958 961 953 937 c 128,-1,8
 948 913 948 913 928 901 c 2,9,-1
 309 506 l 1,10,-1
 889 123 l 2,11,12
 909 109 909 109 914.5 86 c 128,-1,13
 920 63 920 63 905 43 c 1,14,15
 889 16 889 16 858 16 c 0,16,17
 842 16 842 16 825 27 c 2,18,-1
 172 459 l 1,19,20
 147 473 147 473 147 508 c 0,0,1
EndSplineSet
EndChar
StartChar: equal
Encoding: 61 61 90
Width: 493
Flags: MW
HStem: 145 55<96.5 390 104 390> 299 55<96.5 390 104 390>
LayerCount: 2
Back
Fore
SplineSet
390 299 m 2
 104 299 l 2
 89 299 77 311 77 326 c 0
 77 341 89 354 104 354 c 2
 390 354 l 2
 405 354 418 341 418 326 c 0
 418 311 405 299 390 299 c 2
390 145 m 2
 104 145 l 2
 89 145 77 157 77 172 c 0
 77 187 89 200 104 200 c 2
 390 200 l 2
 405 200 418 187 418 172 c 0
 418 157 405 145 390 145 c 2
EndSplineSet
EndChar
StartChar: greater
Encoding: 62 62 33
Width: 1105
GlyphClass: 2
Flags: W
LayerCount: 2
Back
Fore
SplineSet
157 937 m 128,-1,1
 162 913 162 913 182 901 c 2,2,-1
 801 506 l 1,3,-1
 221 123 l 2,4,5
 201 109 201 109 195.5 86 c 128,-1,6
 190 63 190 63 205 43 c 1,7,8
 221 16 221 16 252 16 c 0,9,10
 268 16 268 16 285 27 c 2,11,-1
 938 459 l 1,12,13
 963 473 963 473 963 508 c 0,14,15
 963 539 963 539 936 555 c 1,16,-1
 244 997 l 1,17,18
 224 1011 224 1011 201 1006 c 128,-1,19
 178 1001 178 1001 166 981 c 1,20,0
 152 961 152 961 157 937 c 128,-1,1
EndSplineSet
EndChar
StartChar: question
Encoding: 63 63 34
Width: 1091
GlyphClass: 2
Flags: W
LayerCount: 2
Back
Fore
SplineSet
127 1214 m 0,0,1
 117 1247 117 1247 137 1270 c 0,2,3
 162 1299 162 1299 195.5 1331.5 c 128,-1,4
 229 1364 229 1364 275.5 1391.5 c 128,-1,5
 322 1419 322 1419 378 1437.5 c 128,-1,6
 434 1456 434 1456 502 1456 c 0,7,8
 602 1456 602 1456 686 1425.5 c 128,-1,9
 770 1395 770 1395 829.5 1339.5 c 128,-1,10
 889 1284 889 1284 921.5 1206 c 128,-1,11
 954 1128 954 1128 954 1034 c 0,12,13
 954 950 954 950 926.5 881.5 c 128,-1,14
 899 813 899 813 857 759 c 128,-1,15
 815 705 815 705 767 663 c 128,-1,16
 719 621 719 621 680 588 c 0,17,18
 664 574 664 574 635 549 c 128,-1,19
 606 524 606 524 573.5 494.5 c 128,-1,20
 541 465 541 465 507 434 c 128,-1,21
 473 403 473 403 444 379 c 1,22,-1
 440 375 l 2,23,24
 424 359 424 359 401 358 c 0,25,26
 378 358 378 358 362 374.5 c 128,-1,27
 346 391 346 391 346 414 c 0,28,29
 346 439 346 439 367 455 c 1,30,-1
 371 459 l 1,31,-1
 375 463 l 1,32,33
 402 486 402 486 432.5 513.5 c 128,-1,34
 463 541 463 541 495.5 569.5 c 128,-1,35
 528 598 528 598 558 625.5 c 128,-1,36
 588 653 588 653 612 676 c 1,37,38
 649 709 649 709 690 744.5 c 128,-1,39
 731 780 731 780 766 823 c 128,-1,40
 801 866 801 866 823.5 918.5 c 128,-1,41
 846 971 846 971 846 1034 c 0,42,43
 846 1089 846 1089 827.5 1145.5 c 128,-1,44
 809 1202 809 1202 769 1246 c 128,-1,45
 729 1290 729 1290 662.5 1318 c 128,-1,46
 596 1346 596 1346 502 1346 c 0,47,48
 449 1346 449 1346 404.5 1330.5 c 128,-1,49
 360 1315 360 1315 324.5 1291.5 c 128,-1,50
 289 1268 289 1268 262.5 1241 c 128,-1,51
 236 1214 236 1214 217 1192 c 1,52,-1
 215 1192 l 1,53,54
 211 1188 211 1188 197 1180 c 1,55,56
 174 1174 174 1174 153.5 1183 c 128,-1,57
 133 1192 133 1192 127 1214 c 0,0,1
266 84 m 256,58,59
 270 119 270 119 293.5 144.5 c 128,-1,60
 317 170 317 170 348 170 c 256,61,62
 379 170 379 170 398.5 144.5 c 128,-1,63
 418 119 418 119 414 84 c 256,64,65
 410 49 410 49 386 24.5 c 128,-1,66
 362 0 362 0 332 0 c 0,67,68
 301 0 301 0 281.5 24.5 c 128,-1,69
 262 49 262 49 266 84 c 256,58,59
EndSplineSet
EndChar
StartChar: at
Encoding: 64 64 85
Width: 828
Flags: MW
HStem: -94 53<359 464 359 471.5> 95 54<607 620.5> 109 53<320.5 373.5> 376 53<370.5 414.5> 564 54<354 523>
VStem: 68 54<157 355 157 357.5> 233 54<229 273.5 229 287.5> 711 54<223.5 355>
LayerCount: 2
Back
Fore
SplineSet
605 15 m 0xdf
 615 22 620 24 626 24 c 0
 641 24 653 12 653 -3 c 0
 653 -12 649 -19 636 -29 c 0
 596 -58 521 -94 422 -94 c 0
 236 -94 68 55 68 253 c 0
 68 462 222 618 431 618 c 0
 618 618 765 475 765 286 c 0
 765 109 637 95 604 95 c 0xdf
 596 95 498 99 466 180 c 1
 438 143 398 109 349 109 c 0
 239 109 233 217 233 238 c 0
 233 337 307 429 403 429 c 0
 434 429 465 420 495 401 c 0
 512 390 517 382 517 373 c 0
 517 358 504 346 489 346 c 0
 484 346 479 347 469 354 c 0
 447 368 425 376 404 376 c 0
 337 376 287 309 287 238 c 0
 287 220 292 162 349 162 c 0xbf
 404 162 454 256 467 289 c 0
 472 302 481 306 493 306 c 0
 507 306 519 294 519 279 c 0
 519 263 511 258 511 228 c 0
 511 150 607 149 607 149 c 1
 635 149 711 161 711 286 c 0
 711 424 615 564 431 564 c 0
 277 564 122 457 122 253 c 0
 122 61 296 -41 422 -41 c 0
 506 -41 570 -8 605 15 c 0xdf
EndSplineSet
EndChar
StartChar: A
Encoding: 65 65 36
Width: 1277
GlyphClass: 2
Flags: W
LayerCount: 2
Back
Fore
SplineSet
106 80 m 2,0,-1
 229 393 l 1,1,-1
 201 387 l 1,2,3
 197 385 197 385 188 385 c 0,4,5
 141 385 141 385 131 430 c 0,6,7
 125 455 125 455 138.5 475.5 c 128,-1,8
 152 496 152 496 174 500 c 2,9,-1
 281 524 l 1,10,-1
 614 1374 l 1,11,12
 630 1411 630 1411 672 1411 c 0,13,14
 711 1411 711 1411 725 1372 c 2,15,-1
 1171 76 l 2,16,17
 1174 66 1174 66 1174 57 c 0,18,19
 1174 44 1174 44 1168 32 c 0,20,21
 1157 10 1157 10 1135 0 c 0,22,23
 1129 -2 1129 -2 1116 -2 c 0,24,25
 1098 -2 1098 -2 1082.5 8 c 128,-1,26
 1067 18 1067 18 1061 37 c 2,27,-1
 889 537 l 1,28,-1
 367 422 l 1,29,-1
 215 37 l 1,30,31
 207 14 207 14 185.5 4 c 128,-1,32
 164 -6 164 -6 141 4 c 256,33,34
 118 14 118 14 108 36 c 0,35,36
 102 48 102 48 102 60 c 0,37,38
 102 70 102 70 106 80 c 2,0,-1
418 553 m 1,39,-1
 850 647 l 1,40,-1
 666 1184 l 1,41,-1
 418 553 l 1,39,-1
EndSplineSet
EndChar
StartChar: B
Encoding: 66 66 37
Width: 1234
GlyphClass: 2
Flags: W
LayerCount: 2
Back
Fore
SplineSet
133 55 m 2,0,-1
 133 1337 l 2,1,2
 133 1360 133 1360 150.5 1377.5 c 128,-1,3
 168 1395 168 1395 190 1395 c 2,4,-1
 563 1395 l 2,5,6
 796 1395 796 1395 913 1274 c 0,7,8
 950 1237 950 1237 969.5 1199 c 128,-1,9
 989 1161 989 1161 998.5 1129.5 c 128,-1,10
 1008 1098 1008 1098 1010 1076.5 c 128,-1,11
 1012 1055 1012 1055 1012 1051 c 0,12,13
 1012 936 1012 936 967 866.5 c 128,-1,14
 922 797 922 797 868 758 c 1,15,16
 876 754 876 754 882.5 753 c 128,-1,17
 889 752 889 752 895 748 c 1,18,19
 999 707 999 707 1057 637 c 1,20,21
 1133 549 1133 549 1133 418 c 256,22,23
 1133 287 1133 287 1036 195 c 0,24,25
 886 52 886 52 518 10 c 1,26,27
 440 0 440 0 371.5 -2 c 128,-1,28
 303 -4 303 -4 258 -4 c 2,29,-1
 188 -4 l 1,30,31
 165 -2 165 -2 149 15.5 c 128,-1,32
 133 33 133 33 133 55 c 2,0,-1
250 111 m 1,33,34
 293 111 293 111 360.5 113 c 128,-1,35
 428 115 428 115 508 125 c 0,36,37
 668 143 668 143 782.5 181 c 128,-1,38
 897 219 897 219 956 279 c 1,39,40
 1017 336 1017 336 1018 418 c 1,41,42
 1018 504 1018 504 969 563 c 1,43,44
 928 610 928 610 852 641 c 1,45,46
 819 653 819 653 787.5 660.5 c 128,-1,47
 756 668 756 668 730.5 671 c 128,-1,48
 705 674 705 674 688 675 c 2,49,-1
 672 676 l 1,50,-1
 250 676 l 1,51,-1
 250 111 l 1,33,34
250 793 m 1,52,-1
 651 793 l 2,53,54
 696 793 696 793 731 807 c 128,-1,55
 766 821 766 821 792.5 840.5 c 128,-1,56
 819 860 819 860 835.5 880.5 c 128,-1,57
 852 901 852 901 860 911 c 1,58,59
 897 968 897 968 897 1051 c 0,60,61
 897 1053 897 1053 891 1088.5 c 128,-1,62
 885 1124 885 1124 854 1165 c 1,63,64
 821 1212 821 1212 762 1241 c 1,65,66
 682 1278 682 1278 563 1278 c 2,67,-1
 250 1278 l 1,68,-1
 250 793 l 1,52,-1
EndSplineSet
EndChar
StartChar: C
Encoding: 67 67 29
Width: 632
Flags: MW
HStem: -2 57<293 374 293 386> 538 121<511.5 525 511.5 525> 627 32 627 57<290 380.5 277 388.5>
VStem: 50 57<211 378 210 398>
LayerCount: 2
Back
Fore
SplineSet
552 161 m 0xa8
 567 161 581 151 581 133 c 0
 581 127 580 121 576 116 c 0
 519 40 434 -2 338 -2 c 0
 181 -2 50 126 50 296 c 0
 50 500 208 684 346 684 c 0x98
 415 684 461 664 492 644 c 1
 496 653 506 659 517 659 c 0
 533 659 545 647 545 631 c 2
 545 567 l 2
 545 551 533 538 517 538 c 0xc8
 501 538 488 551 488 567 c 2
 488 572 l 1
 468 593 431 627 346 627 c 0
 234 627 107 460 107 296 c 0
 107 124 248 55 338 55 c 0
 410 55 477 81 530 150 c 0
 537 159 544 161 552 161 c 0xa8
EndSplineSet
EndChar
StartChar: D
Encoding: 68 68 39
Width: 1269
GlyphClass: 2
Flags: W
LayerCount: 2
Back
Fore
SplineSet
133 51 m 2,0,-1
 133 1337 l 2,1,2
 133 1362 133 1362 150.5 1378.5 c 128,-1,3
 168 1395 168 1395 193 1395 c 0,4,5
 256 1395 256 1395 332 1388.5 c 128,-1,6
 408 1382 408 1382 488.5 1367 c 128,-1,7
 569 1352 569 1352 651 1323 c 128,-1,8
 733 1294 733 1294 809 1249 c 0,9,10
 965 1157 965 1157 1053 1010 c 1,11,12
 1147 846 1147 846 1147 614 c 0,13,14
 1147 389 1147 389 1049 240 c 0,15,16
 963 111 963 111 819 41 c 1,17,18
 762 12 762 12 665.5 -14.5 c 128,-1,19
 569 -41 569 -41 432 -41 c 2,20,-1
 430 -41 l 2,21,22
 385 -41 385 -41 340 -36 c 128,-1,23
 295 -31 295 -31 260 -23.5 c 128,-1,24
 225 -16 225 -16 202.5 -11 c 128,-1,25
 180 -6 180 -6 178 -6 c 0,26,27
 133 8 133 8 133 51 c 2,0,-1
250 98 m 1,28,29
 285 90 285 90 333 83 c 128,-1,30
 381 76 381 76 430 76 c 2,31,-1
 432 76 l 2,32,33
 553 76 553 76 637 99.5 c 128,-1,34
 721 123 721 123 768 145 c 0,35,36
 889 204 889 204 950 303 c 1,37,38
 1030 426 1030 426 1030 614 c 0,39,40
 1030 811 1030 811 950 950 c 0,41,42
 880 1073 880 1073 750 1149 c 0,43,44
 680 1190 680 1190 559 1231 c 128,-1,45
 438 1272 438 1272 250 1278 c 1,46,-1
 250 98 l 1,28,29
EndSplineSet
EndChar
StartChar: E
Encoding: 69 69 31
Width: 610
Flags: MW
HStem: 0 57<86 520 122 520 122 520> 324 57<122 473 122 473> 625 57<122 522 122 122>
VStem: 65 57<57 57 57 324 381 625>
LayerCount: 2
Back
Fore
SplineSet
122 57 m 1
 520 57 l 2
 536 57 548 45 548 29 c 0
 548 13 536 0 520 0 c 2
 94 0 l 2
 78 0 65 13 65 29 c 2
 65 654 l 2
 65 670 78 682 94 682 c 2
 522 682 l 2
 538 682 550 670 550 654 c 0
 550 638 538 625 522 625 c 2
 122 625 l 1
 122 381 l 1
 473 381 l 2
 489 381 501 369 501 353 c 0
 501 337 489 324 473 324 c 2
 122 324 l 1
 122 57 l 1
EndSplineSet
EndChar
StartChar: F
Encoding: 70 70 52
Width: 545
Flags: MW
HStem: -1 21G<81 97> 323 57<117 428 117 428> 624 57<117 517 117 117>
VStem: 60 57<28 323 380 624>
LayerCount: 2
Back
Fore
SplineSet
117 323 m 1
 117 28 l 2
 117 12 105 -1 89 -1 c 0
 73 -1 60 12 60 28 c 2
 60 652 l 2
 60 668 73 681 89 681 c 2
 517 681 l 2
 533 681 545 668 545 652 c 0
 545 637 533 624 517 624 c 2
 117 624 l 1
 117 380 l 1
 428 380 l 2
 444 380 456 367 456 351 c 0
 456 336 444 323 428 323 c 2
 117 323 l 1
EndSplineSet
EndChar
StartChar: G
Encoding: 71 71 32
Width: 751
Flags: MW
HStem: -1 57<278 418.5 278 438.5> 221 75 239 57<525 568> 470 213<279.5 622> 626 57<280.5 440>
VStem: 60 57<271.5 376.5 271.5 414.5>
LayerCount: 2
Back
Fore
SplineSet
672 279 m 0xd4
 684 275 690 264 690 252 c 0
 690 235 676 224 662 224 c 0
 659 224 652 226 647 228 c 1
 617 101 516 -1 361 -1 c 0
 175 -1 60 162 60 331 c 0
 60 498 182 683 377 683 c 0
 566 683 641 536 641 495 c 0
 641 480 630 470 614 470 c 0xd4
 603 470 591 476 586 489 c 0
 561 554 503 626 377 626 c 0
 184 626 117 422 117 331 c 0
 117 212 195 56 361 56 c 0
 476 56 563 126 591 238 c 1
 582 239 573 239 563 239 c 0xac
 483 239 449 221 432 221 c 0
 418 221 404 232 404 250 c 0
 404 262 411 273 424 277 c 0
 427 278 488 296 562 296 c 0
 625 296 664 282 672 279 c 0xd4
EndSplineSet
EndChar
StartChar: H
Encoding: 72 72 33
Width: 685
Flags: MW
HStem: 0 21G<85 101 584 599.5> 661 20G<85 101 584 599.5>
VStem: 65 57<28 288 346 653> 563 57<28 349 349 349 407 653>
LayerCount: 2
Back
Fore
SplineSet
592 681 m 0
 607 681 620 669 620 653 c 2
 620 28 l 2
 620 13 607 0 592 0 c 0
 576 0 563 13 563 28 c 2
 563 349 l 1
 122 288 l 1
 122 28 l 2
 122 13 109 0 93 0 c 0
 77 0 65 13 65 28 c 2
 65 653 l 2
 65 669 77 681 93 681 c 0
 109 681 122 669 122 653 c 2
 122 346 l 1
 563 407 l 1
 563 653 l 2
 563 669 576 681 592 681 c 0
EndSplineSet
EndChar
StartChar: I
Encoding: 73 73 44
Width: 886
GlyphClass: 2
Flags: W
LayerCount: 2
Back
Fore
SplineSet
123 57 m 0,0,1
 123 82 123 82 140.5 98.5 c 128,-1,2
 158 115 158 115 182 115 c 2,3,-1
 387 115 l 1,4,-1
 387 1278 l 1,5,-1
 182 1278 l 2,6,7
 157 1278 157 1278 140 1295.5 c 128,-1,8
 123 1313 123 1313 123 1337 c 0,9,10
 123 1362 123 1362 140.5 1378.5 c 128,-1,11
 158 1395 158 1395 182 1395 c 2,12,-1
 707 1395 l 2,13,14
 732 1395 732 1395 748 1378.5 c 128,-1,15
 764 1362 764 1362 764 1337 c 256,16,17
 764 1312 764 1312 747.5 1295 c 128,-1,18
 731 1278 731 1278 707 1278 c 2,19,-1
 504 1278 l 1,20,-1
 504 115 l 1,21,-1
 707 115 l 2,22,23
 732 115 732 115 748 98.5 c 128,-1,24
 764 82 764 82 764 57 c 256,25,26
 764 32 764 32 747.5 15 c 128,-1,27
 731 -2 731 -2 707 -2 c 2,28,-1
 182 -2 l 2,29,30
 157 -2 157 -2 140 15.5 c 128,-1,31
 123 33 123 33 123 57 c 0,0,1
EndSplineSet
EndChar
StartChar: J
Encoding: 74 74 45
Width: 966
GlyphClass: 2
Flags: W
LayerCount: 2
Back
Fore
SplineSet
102 346 m 2,0,-1
 102 350 l 2,1,2
 102 375 102 375 119.5 392.5 c 128,-1,3
 137 410 137 410 162 410 c 256,4,5
 187 410 187 410 203 392.5 c 128,-1,6
 219 375 219 375 219 350 c 2,7,-1
 219 348 l 1,8,9
 217 317 217 317 225 289 c 1,10,11
 231 264 231 264 243.5 235.5 c 128,-1,12
 256 207 256 207 281 182 c 1,13,14
 341 117 341 117 463 117 c 0,15,16
 465 117 465 117 467 117 c 0,17,18
 547 117 547 117 593 140.5 c 128,-1,19
 639 164 639 164 662.5 197.5 c 128,-1,20
 686 231 686 231 693 266 c 128,-1,21
 700 301 700 301 700 326 c 2,22,-1
 700 1270 l 1,23,-1
 449 1270 l 2,24,25
 424 1270 424 1270 406.5 1287.5 c 128,-1,26
 389 1305 389 1305 389 1329 c 0,27,28
 389 1352 389 1352 406.5 1369 c 128,-1,29
 424 1386 424 1386 449 1386 c 2,30,-1
 868 1386 l 2,31,32
 891 1386 891 1386 908.5 1369 c 128,-1,33
 926 1352 926 1352 926 1329 c 0,34,35
 926 1304 926 1304 908.5 1287 c 128,-1,36
 891 1270 891 1270 868 1270 c 2,37,-1
 817 1270 l 1,38,-1
 817 326 l 2,39,40
 817 271 817 271 798.5 212.5 c 128,-1,41
 780 154 780 154 738 106.5 c 128,-1,42
 696 59 696 59 629.5 29.5 c 128,-1,43
 563 0 563 0 467 0 c 0,44,45
 293 0 293 0 197 102 c 1,46,47
 164 135 164 135 144.5 174 c 128,-1,48
 125 213 125 213 115.5 247 c 128,-1,49
 106 281 106 281 104 307.5 c 128,-1,50
 102 334 102 334 102 346 c 2,0,-1
EndSplineSet
EndChar
StartChar: K
Encoding: 75 75 46
Width: 1167
GlyphClass: 2
Flags: W
LayerCount: 2
Back
Fore
SplineSet
133 57 m 2,0,-1
 133 1339 l 2,1,2
 133 1362 133 1362 149.5 1378.5 c 128,-1,3
 166 1395 166 1395 188 1395 c 0,4,5
 211 1395 211 1395 228.5 1378.5 c 128,-1,6
 246 1362 246 1362 246 1339 c 2,7,-1
 246 797 l 1,8,-1
 930 1382 l 1,9,10
 945 1397 945 1397 966 1397 c 1,11,12
 968 1396 968 1396 970 1396 c 0,13,14
 994 1394 994 1394 1008 1376 c 1,15,16
 1024 1360 1024 1360 1022 1336.5 c 128,-1,17
 1020 1313 1020 1313 1004 1296 c 1,18,-1
 289 686 l 1,19,-1
 1042 100 l 1,20,21
 1060 84 1060 84 1064 62 c 0,22,23
 1065 58 1065 58 1064 53 c 1,24,25
 1064 36 1064 36 1053 20 c 0,26,27
 1038 -2 1038 -2 1010 -2 c 0,28,29
 1009 -2 1009 -2 1008 -2 c 0,30,31
 988 -2 988 -2 973 10 c 2,32,-1
 246 578 l 1,33,-1
 246 57 l 2,34,35
 246 34 246 34 228.5 17 c 128,-1,36
 211 0 211 0 188 0 c 256,37,38
 165 0 165 0 149 17.5 c 128,-1,39
 133 35 133 35 133 57 c 2,0,-1
EndSplineSet
EndChar
StartChar: L
Encoding: 76 76 47
Width: 1058
GlyphClass: 2
Flags: W
LayerCount: 2
Back
Fore
SplineSet
133 57 m 1,0,-1
 133 1337 l 2,1,2
 133 1360 133 1360 149.5 1377.5 c 128,-1,3
 166 1395 166 1395 190 1395 c 0,4,5
 213 1395 213 1395 230.5 1377.5 c 128,-1,6
 248 1360 248 1360 248 1337 c 2,7,-1
 248 119 l 1,8,-1
 893 164 l 2,9,10
 918 166 918 166 935 150.5 c 128,-1,11
 952 135 952 135 954 111 c 0,12,13
 954 108 954 108 954 106 c 0,14,15
 954 86 954 86 941 70 c 0,16,17
 926 52 926 52 901 49 c 1,18,-1
 195 0 l 1,19,-1
 190 0 l 2,20,21
 167 0 167 0 152 16 c 1,22,23
 134 30 134 30 133 57 c 1,0,-1
EndSplineSet
EndChar
StartChar: M
Encoding: 77 77 38
Width: 857
Flags: MW
HStem: 0 21G<68 83.5 407 419 771.5 787> 661 20G<209 222 634.5 641>
LayerCount: 2
Back
Fore
SplineSet
413 0 m 0
 401 0 390 8 387 19 c 2
 220 545 l 1
 105 22 l 2
 102 8 90 0 77 0 c 0
 59 0 50 15 50 25 c 0
 50 30 52 41 54 49 c 2
 188 659 l 2
 191 673 202 681 216 681 c 0
 228 681 238 673 242 662 c 2
 415 115 l 1
 613 663 l 2
 617 675 628 681 641 681 c 0
 654 680 663 672 666 659 c 2
 802 52 l 2
 805 40 806 31 806 24 c 0
 806 12 795 0 779 0 c 0
 764 0 754 9 751 22 c 2
 633 553 l 1
 440 18 l 2
 436 7 425 0 413 0 c 0
EndSplineSet
EndChar
StartChar: N
Encoding: 78 78 39
Width: 619
Flags: MW
HStem: 0 21G<85.5 101 521.5 534> 661 20G<85 97.5> 662 20G<518 533.5>
VStem: 65 56<20.5 28> 498 56<117 654>
LayerCount: 2
Back
Fore
SplineSet
526 0 m 0xb8
 517 0 508 4 503 12 c 2
 122 563 l 1
 121 28 l 2
 121 12 109 0 93 0 c 0
 78 0 65 13 65 28 c 2
 66 653 l 2
 66 667 77 681 93 681 c 0xd8
 102 681 111 677 117 669 c 2
 498 117 l 1
 498 654 l 2
 498 669 510 682 526 682 c 0
 541 682 554 669 554 654 c 2
 554 28 l 2
 554 13 542 0 526 0 c 0xb8
EndSplineSet
EndChar
StartChar: O
Encoding: 79 79 50
Width: 1351
GlyphClass: 2
Flags: W
LayerCount: 2
Back
Fore
SplineSet
125 700 m 0,0,1
 133 843 133 843 185.5 970.5 c 128,-1,2
 238 1098 238 1098 317.5 1192 c 128,-1,3
 397 1286 397 1286 500.5 1341.5 c 128,-1,4
 604 1397 604 1397 719 1397 c 0,5,6
 811 1397 811 1397 897 1358 c 128,-1,7
 983 1319 983 1319 1053 1247 c 1,8,9
 1147 1146 1147 1146 1192 1002 c 0,10,11
 1229 885 1229 885 1229 752 c 0,12,13
 1229 723 1229 723 1227 692 c 0,14,15
 1217 549 1217 549 1165.5 422 c 128,-1,16
 1114 295 1114 295 1034 200.5 c 128,-1,17
 954 106 954 106 850 51 c 128,-1,18
 746 -4 746 -4 633 -4 c 0,19,20
 541 -4 541 -4 455 35 c 128,-1,21
 369 74 369 74 301 145 c 0,22,23
 205 247 205 247 160 392 c 0,24,25
 123 511 123 511 123 641 c 0,26,27
 123 670 123 670 125 700 c 0,0,1
233 692 m 0,28,29
 231 664 231 664 231 636 c 0,30,31
 231 525 231 525 263 424 c 0,32,33
 303 297 303 297 381 215 c 0,34,35
 487 102 487 102 633 102 c 0,36,37
 725 102 725 102 809 149.5 c 128,-1,38
 893 197 893 197 959.5 277.5 c 128,-1,39
 1026 358 1026 358 1068 468 c 128,-1,40
 1110 578 1110 578 1118 700 c 0,41,42
 1119 720 1119 720 1119 741 c 0,43,44
 1119 786 1119 786 1113 832 c 0,45,46
 1104 898 1104 898 1083.5 961 c 128,-1,47
 1063 1024 1063 1024 1031 1079.5 c 128,-1,48
 999 1135 999 1135 958 1178 c 0,49,50
 850 1290 850 1290 705 1290 c 0,51,52
 615 1290 615 1290 533 1244 c 128,-1,53
 451 1198 451 1198 387.5 1117 c 128,-1,54
 324 1036 324 1036 283 926.5 c 128,-1,55
 242 817 242 817 233 692 c 0,28,29
EndSplineSet
EndChar
StartChar: P
Encoding: 80 80 41
Width: 547
Flags: MW
HStem: 0 21G<85.5 101> 239 56<121 164 121 191> 626 56<154.5 257>
VStem: 65 56<28 239 295 625> 461 56<399.5 525>
LayerCount: 2
Back
Fore
SplineSet
93 0 m 0
 78 0 65 12 65 28 c 2
 65 641 l 2
 65 671 67 682 144 682 c 0
 396 682 517 608 517 477 c 0
 517 291 261 239 121 239 c 1
 121 28 l 2
 121 12 109 0 93 0 c 0
121 625 m 1
 121 295 l 1
 207 295 461 322 461 477 c 0
 461 573 353 626 161 626 c 0
 148 626 130 626 121 625 c 1
EndSplineSet
EndChar
StartChar: Q
Encoding: 81 81 42
Width: 714
Flags: MW
HStem: -24 21G<632.5 642> -2 54<268.5 354.5 268.5 364> 626 54<303.5 438.5>
VStem: 51 60<241.5 401 241.5 411.5> 601 61<316 430>
LayerCount: 2
Back
Fore
SplineSet
550 93 m 1
 651 27 l 2
 660 21 663 12 663 3 c 0
 663 -14 649 -24 635 -24 c 0
 630 -24 625 -23 620 -20 c 2
 506 56 l 1
 455 19 395 -2 333 -2 c 0
 169 -2 51 142 51 311 c 0
 51 512 204 680 380 680 c 0
 543 680 662 536 662 366 c 0
 662 260 618 161 550 93 c 1
333 52 m 0
 376 52 418 65 456 89 c 1
 377 141 l 2
 369 146 364 155 364 164 c 0
 364 180 377 192 391 192 c 0
 397 192 402 191 407 188 c 2
 502 125 l 1
 560 182 601 269 601 363 c 0
 601 497 505 626 372 626 c 0
 235 626 111 487 111 315 c 0
 111 168 204 52 333 52 c 0
EndSplineSet
EndChar
StartChar: R
Encoding: 82 82 43
Width: 597
Flags: MW
HStem: 0 21G<85 100.5 513 526.5> 250 47 632 56<162 261>
VStem: 65 56<28 241 297 631> 465 56<422 529>
LayerCount: 2
Back
Fore
SplineSet
543 41 m 0
 545 37 546 32 546 28 c 0
 546 14 535 0 518 0 c 0
 508 0 499 6 493 16 c 0
 362 242 260 250 217 250 c 0
 198 250 155 246 121 241 c 1
 121 28 l 2
 121 12 108 0 93 0 c 0
 77 0 65 12 65 28 c 2
 65 648 l 2
 65 689 81 688 170 688 c 0
 395 688 521 611 521 478 c 0
 521 366 427 308 333 276 c 1
 377 250 476 173 543 41 c 0
121 631 m 1
 121 297 l 1
 265 300 465 349 465 478 c 0
 465 580 355 632 167 632 c 0
 157 632 136 632 121 631 c 1
EndSplineSet
EndChar
StartChar: S
Encoding: 83 83 54
Width: 1224
GlyphClass: 2
Flags: W
LayerCount: 2
Back
Fore
SplineSet
123 319 m 0,0,1
 123 344 123 344 140.5 362.5 c 128,-1,2
 158 381 158 381 184 381 c 0,3,4
 231 381 231 381 246 334 c 0,5,6
 266 275 266 275 307 232.5 c 128,-1,7
 348 190 348 190 399.5 162.5 c 128,-1,8
 451 135 451 135 508 122 c 128,-1,9
 565 109 565 109 621 109 c 1,10,11
 621 109 621 109 648 111 c 0,12,13
 674 113 674 113 712 120 c 128,-1,14
 750 127 750 127 794 144.5 c 128,-1,15
 838 162 838 162 876.5 193.5 c 128,-1,16
 915 225 915 225 942 272 c 128,-1,17
 969 319 969 319 971 389 c 0,18,19
 971 409 971 409 967 444 c 128,-1,20
 963 479 963 479 931 518 c 128,-1,21
 899 557 899 557 828.5 599 c 128,-1,22
 758 641 758 641 625 678 c 1,23,24
 547 698 547 698 468 731 c 128,-1,25
 389 764 389 764 326.5 811 c 128,-1,26
 264 858 264 858 227 922 c 0,27,28
 196 975 196 975 196 1043 c 0,29,30
 196 1056 196 1056 197 1069 c 0,31,32
 205 1169 205 1169 251 1233.5 c 128,-1,33
 297 1298 297 1298 364.5 1334 c 128,-1,34
 432 1370 432 1370 513 1383.5 c 128,-1,35
 594 1397 594 1397 670 1397 c 1,36,-1
 707 1395 l 1,37,38
 740 1395 740 1395 783.5 1388.5 c 128,-1,39
 827 1382 827 1382 873.5 1369 c 128,-1,40
 920 1356 920 1356 964 1330.5 c 128,-1,41
 1008 1305 1008 1305 1040 1264 c 1,42,43
 1087 1209 1087 1209 1094 1122 c 1,44,-1
 1094 1120 l 1,45,-1
 1094 1118 l 1,46,-1
 1094 1116 l 2,47,48
 1094 1093 1094 1093 1077.5 1077 c 128,-1,49
 1061 1061 1061 1061 1038 1061 c 256,50,51
 1015 1061 1015 1061 1001 1075.5 c 128,-1,52
 987 1090 987 1090 983 1110 c 0,53,54
 973 1163 973 1163 946 1196 c 256,55,56
 919 1229 919 1229 878.5 1247.5 c 128,-1,57
 838 1266 838 1266 798 1276 c 128,-1,58
 758 1286 758 1286 726 1290 c 128,-1,59
 694 1294 694 1294 686 1294 c 2,60,-1
 680 1294 l 2,61,62
 567 1294 567 1294 498.5 1270.5 c 128,-1,63
 430 1247 430 1247 393 1212.5 c 128,-1,64
 356 1178 356 1178 342 1135 c 128,-1,65
 328 1092 328 1092 326 1053 c 1,66,-1
 326 1051 l 1,67,68
 325 1043 325 1043 325 1036 c 0,69,70
 325 883 325 883 651 795 c 1,71,72
 884 728 884 728 995 626 c 0,73,74
 1100 529 1100 529 1100 392 c 0,75,76
 1100 385 1100 385 1100 377 c 0,77,78
 1090 180 1090 180 915 80 c 1,79,80
 839 35 839 35 759.5 17.5 c 128,-1,81
 680 0 680 0 623 0 c 0,82,83
 537 0 537 0 458 20.5 c 128,-1,84
 379 41 379 41 314.5 80 c 128,-1,85
 250 119 250 119 202 173 c 128,-1,86
 154 227 154 227 129 293 c 1,87,88
 123 305 123 305 123 319 c 0,0,1
EndSplineSet
EndChar
StartChar: T
Encoding: 84 84 55
Width: 1069
GlyphClass: 2
Flags: W
LayerCount: 2
Back
Fore
SplineSet
0 1337 m 0,0,1
 0 1362 0 1362 17.5 1378.5 c 128,-1,2
 35 1395 35 1395 57 1395 c 2,3,-1
 1012 1395 l 2,4,5
 1037 1395 1037 1395 1053 1378.5 c 128,-1,6
 1069 1362 1069 1362 1069 1337 c 0,7,8
 1069 1314 1069 1314 1052.5 1297 c 128,-1,9
 1036 1280 1036 1280 1012 1280 c 2,10,-1
 578 1280 l 1,11,-1
 578 57 l 2,12,13
 578 34 578 34 561.5 17 c 128,-1,14
 545 0 545 0 520 0 c 0,15,16
 497 0 497 0 480 17.5 c 128,-1,17
 463 35 463 35 463 57 c 2,18,-1
 463 1280 l 1,19,-1
 57 1280 l 2,20,21
 34 1280 34 1280 17 1297.5 c 128,-1,22
 0 1315 0 1315 0 1337 c 0,0,1
EndSplineSet
EndChar
StartChar: U
Encoding: 85 85 46
Width: 683
Flags: MW
HStem: 0 49<249 402.5 247 421.5> 661 20G<88 102.5 579 595.5>
VStem: 67 56<381 653 381 654 381 662> 560 56<653 659>
LayerCount: 2
Back
Fore
SplineSet
616 653 m 0
 620 527 625 400 608 270 c 0
 587 110 510 0 333 0 c 0
 165 0 76 125 67 367 c 0
 63 474 66 569 67 654 c 0
 67 670 81 681 95 681 c 0
 110 681 123 669 123 653 c 0
 121 564 120 474 123 381 c 0
 128 236 159 49 335 49 c 0
 470 49 536 139 552 277 c 0
 565 397 560 518 560 651 c 0
 560 667 570 681 588 681 c 0
 603 681 616 668 616 653 c 0
EndSplineSet
EndChar
StartChar: V
Encoding: 86 86 47
Width: 535
Flags: MW
HStem: 0 21G<244 255.5> 660 20G<30 45 491 505>
LayerCount: 2
Back
Fore
SplineSet
250 0 m 0
 238 0 227 8 223 19 c 2
 14 638 l 2
 12 643 11 650 11 653 c 0
 11 668 21 680 39 680 c 0
 51 680 62 673 66 661 c 2
 252 110 l 1
 470 663 l 2
 475 674 485 680 497 680 c 0
 513 680 524 667 524 653 c 0
 524 649 523 646 522 642 c 2
 276 18 l 2
 271 7 261 0 250 0 c 0
EndSplineSet
EndChar
StartChar: W
Encoding: 87 87 48
Width: 867
Flags: MW
HStem: 0 21G<222 234.5 596 609> 661 20G
LayerCount: 2
Back
Fore
SplineSet
603 0 m 0
 589 0 579 7 576 20 c 2
 428 556 l 1
 255 19 l 2
 251 6 241 0 228 0 c 0
 216 0 205 8 202 19 c 2
 16 632 l 2
 12 645 11 651 11 654 c 0
 11 670 23 681 38 681 c 0
 51 681 61 673 65 661 c 2
 229 121 l 1
 404 662 l 2
 408 675 418 681 431 681 c 0
 443 681 454 673 457 661 c 2
 606 120 l 1
 802 663 l 2
 806 674 817 681 828 681 c 0
 844 681 856 667 856 655 c 0
 856 651 855 647 854 644 c 2
 629 18 l 2
 625 7 615 0 603 0 c 0
EndSplineSet
EndChar
StartChar: X
Encoding: 88 88 49
Width: 681
Flags: MW
HStem: 0 21G<70.5 83 594 605.5> 661 20G<92.5 104 599 610.5>
LayerCount: 2
Back
Fore
SplineSet
381 345 m 1
 620 45 l 2
 624 40 625 34 625 28 c 0
 625 13 613 0 598 0 c 0
 590 0 582 3 576 10 c 2
 344 301 l 1
 100 10 l 2
 95 3 87 0 79 0 c 0
 62 0 50 14 50 28 c 0
 50 34 53 41 57 46 c 2
 309 346 l 1
 78 636 l 2
 74 641 71 647 71 654 c 0
 71 669 85 681 100 681 c 0
 108 681 116 678 122 671 c 2
 345 390 l 1
 581 671 l 2
 587 678 595 681 603 681 c 0
 618 681 631 668 631 654 c 0
 631 647 628 640 624 635 c 2
 381 345 l 1
EndSplineSet
EndChar
StartChar: Y
Encoding: 89 89 60
Width: 1214
GlyphClass: 2
Flags: W
LayerCount: 2
Back
Fore
SplineSet
43 1354 m 0,0,1
 49 1376 49 1376 70 1386 c 0,2,3
 87 1395 87 1395 103 1395 c 0,4,5
 109 1395 109 1395 115 1394 c 0,6,7
 137 1389 137 1389 147 1366 c 1,8,-1
 623 551 l 1,9,-1
 1106 1366 l 1,10,11
 1118 1389 1118 1389 1141 1394 c 0,12,13
 1147 1395 1147 1395 1153 1395 c 0,14,15
 1169 1395 1169 1395 1184 1386 c 1,16,17
 1207 1374 1207 1374 1212 1352 c 0,18,19
 1213 1345 1213 1345 1213 1339 c 0,20,21
 1213 1323 1213 1323 1204 1309 c 2,22,-1
 444 29 l 1,23,24
 428 0 428 0 395 0 c 0,25,26
 377 0 377 0 367 8 c 1,27,28
 347 20 347 20 340.5 43 c 128,-1,29
 334 66 334 66 346 86 c 2,30,-1
 555 438 l 1,31,-1
 49 1309 l 2,32,33
 41 1324 41 1324 41 1339 c 0,34,35
 41 1347 41 1347 43 1354 c 0,0,1
EndSplineSet
EndChar
StartChar: Z
Encoding: 90 90 61
Width: 1308
GlyphClass: 2
Flags: W
LayerCount: 2
Back
Fore
SplineSet
98 61 m 1,0,1
 98 90 98 90 115 113 c 1,2,-1
 1047 1268 l 1,3,-1
 193 1268 l 2,4,5
 168 1268 168 1268 150.5 1286.5 c 128,-1,6
 133 1305 133 1305 133 1331 c 0,7,8
 133 1356 133 1356 150.5 1374.5 c 128,-1,9
 168 1393 168 1393 193 1393 c 2,10,-1
 1139 1393 l 1,11,-1
 1143 1393 l 2,12,13
 1170 1393 1170 1393 1188 1373.5 c 128,-1,14
 1206 1354 1206 1354 1206 1327 c 0,15,16
 1206 1298 1206 1298 1190 1282 c 1,17,-1
 258 123 l 1,18,-1
 1112 123 l 2,19,20
 1137 123 1137 123 1154 105.5 c 128,-1,21
 1171 88 1171 88 1171 61 c 0,22,23
 1171 36 1171 36 1154 18 c 128,-1,24
 1137 0 1137 0 1112 0 c 2,25,-1
 166 0 l 2,26,27
 163 0 163 0 161 0 c 0,28,29
 138 0 138 0 120 16 c 0,30,31
 100 34 100 34 98 61 c 1,0,1
EndSplineSet
EndChar
StartChar: bracketleft
Encoding: 91 91 77
Width: 315
Flags: MW
HStem: -124 56<86 215 122 215 122 215> 750 56<122 231 122 122>
VStem: 66 56<-68 750 -68 778 -68 785.5> 66 177<-96 -88.5 -104 778> 66 193<770 778 778 785.5>
LayerCount: 2
Back
Fore
SplineSet
215 -124 m 2xd0
 94 -124 l 2
 78 -124 66 -112 66 -96 c 2
 66 778 l 2
 66 793 78 806 94 806 c 2
 231 806 l 2
 246 806 259 793 259 778 c 0xc8
 259 762 246 750 231 750 c 2
 122 750 l 1
 122 -68 l 1xe0
 215 -68 l 2
 230 -68 243 -81 243 -96 c 0
 243 -112 230 -124 215 -124 c 2xd0
EndSplineSet
EndChar
StartChar: backslash
Encoding: 92 92 81
Width: 545
Flags: MW
HStem: -1 21G<443 456.5> 672 20G<87 100>
LayerCount: 2
Back
Fore
SplineSet
448 -1 m 0
 438 -1 429 4 424 13 c 2
 76 641 l 2
 72 648 67 657 67 666 c 0
 67 679 79 692 95 692 c 0
 105 692 115 687 120 678 c 2
 473 41 l 2
 475 37 476 32 476 27 c 0
 476 12 465 -1 448 -1 c 0
EndSplineSet
EndChar
StartChar: bracketright
Encoding: 93 93 64
Width: 645
GlyphClass: 2
Flags: W
LayerCount: 2
Back
Fore
SplineSet
125 -196 m 0,0,1
 125 -171 125 -171 142 -155 c 128,-1,2
 159 -139 159 -139 182 -139 c 2,3,-1
 405 -139 l 1,4,-1
 405 1536 l 1,5,-1
 215 1536 l 2,6,7
 192 1536 192 1536 174.5 1553.5 c 128,-1,8
 157 1571 157 1571 157 1594 c 0,9,10
 157 1619 157 1619 174.5 1635 c 128,-1,11
 192 1651 192 1651 215 1651 c 2,12,-1
 462 1651 l 2,13,14
 487 1651 487 1651 503.5 1634.5 c 128,-1,15
 520 1618 520 1618 520 1594 c 2,16,-1
 520 -196 l 2,17,18
 520 -219 520 -219 503.5 -236.5 c 128,-1,19
 487 -254 487 -254 462 -254 c 2,20,-1
 182 -254 l 2,21,22
 159 -254 159 -254 142 -236.5 c 128,-1,23
 125 -219 125 -219 125 -196 c 0,0,1
EndSplineSet
EndChar
StartChar: asciicircum
Encoding: 94 94 124
Width: 500
Flags: MW
HStem: 395 21G<119.5 132.5 367 379.5> 643 20G
LayerCount: 2
Back
Fore
SplineSet
292 641 m 2
 395 438 l 2
 398 432 399 426 399 422 c 0
 399 407 387 395 372 395 c 0
 362 395 352 401 348 409 c 2
 259 582 l 1
 259 582 152 411 152 411 c 2
 147 401 138 395 127 395 c 0
 112 395 100 407 100 422 c 0
 100 427 101 432 104 436 c 2
 228 643 l 2
 235 654 246 663 260 663 c 0
 274 663 285 654 292 641 c 2
EndSplineSet
EndChar
StartChar: underscore
Encoding: 95 95 95
Width: 490
Flags: MW
HStem: -56 56<-8 490 0 490>
LayerCount: 2
Back
Fore
SplineSet
490 -56 m 2
 0 -56 l 2
 -16 -56 -28 -44 -28 -28 c 0
 -28 -13 -16 0 0 0 c 2
 490 0 l 2
 505 0 518 -13 518 -28 c 0
 518 -44 505 -56 490 -56 c 2
EndSplineSet
EndChar
StartChar: grave
Encoding: 96 96 138
Width: 500
Flags: MW
HStem: 574 21G<306 317> 743 20G<188 202.5>
LayerCount: 2
Back
Fore
SplineSet
291 583 m 2
 173 704 l 2
 166 711 162 719 162 729 c 0
 162 747 179 763 197 763 c 0
 208 763 219 756 226 748 c 2
 331 618 l 2
 336 611 338 606 338 600 c 0
 338 585 324 574 310 574 c 0
 302 574 296 578 291 583 c 2
EndSplineSet
EndChar
StartChar: a
Encoding: 97 97 2
Width: 505
Flags: MW
HStem: 0 21G<402.5 420> 8 55<188.5 265.5> 459 55<223.5 309>
VStem: 50 57<191 267.5 191 276> 384 56<32 55 55 55>
LayerCount: 2
Back
Fore
SplineSet
440 473 m 1x78
 440 30 l 2
 440 14 428 0 412 0 c 0xb8
 393 0 384 15 384 32 c 2
 384 55 l 1
 348 33 293 8 238 8 c 0
 130 8 50 95 50 224 c 0
 50 328 115 514 289 514 c 0
 363 514 425 481 440 473 c 1x78
382 121 m 1
 386 438 l 1
 367 446 326 459 292 459 c 0
 155 459 107 309 107 226 c 0
 107 156 141 63 236 63 c 0x78
 297 63 359 105 382 121 c 1
EndSplineSet
EndChar
StartChar: b
Encoding: 98 98 67
Width: 1073
GlyphClass: 2
Flags: W
LayerCount: 2
Back
Fore
SplineSet
133 53 m 1,0,-1
 133 1362 l 1,1,2
 135 1385 135 1385 151.5 1399 c 128,-1,3
 168 1413 168 1413 190 1413 c 0,4,5
 213 1413 213 1413 228.5 1398.5 c 128,-1,6
 244 1384 244 1384 246 1362 c 1,7,-1
 246 840 l 1,8,9
 293 908 293 908 392.5 957 c 128,-1,10
 492 1006 492 1006 614 1006 c 2,11,-1
 649 1006 l 1,12,13
 731 1002 731 1002 792.5 961 c 128,-1,14
 854 920 854 920 893 856.5 c 128,-1,15
 932 793 932 793 951.5 714 c 128,-1,16
 971 635 971 635 971 555 c 0,17,18
 971 514 971 514 967 448.5 c 128,-1,19
 963 383 963 383 939 312.5 c 128,-1,20
 915 242 915 242 866 174 c 128,-1,21
 817 106 817 106 727 59 c 0,22,23
 680 34 680 34 627.5 24 c 128,-1,24
 575 14 575 14 526 14 c 0,25,26
 446 14 446 14 369.5 32.5 c 128,-1,27
 293 51 293 51 246 72 c 1,28,-1
 246 53 l 1,29,-1
 246 55 l 2,30,31
 246 30 246 30 229.5 15 c 128,-1,32
 213 0 213 0 190 0 c 0,33,34
 165 0 165 0 149 16.5 c 128,-1,35
 133 33 133 33 133 55 c 2,36,-1
 133 53 l 1,0,-1
246 178 m 1,37,38
 266 168 266 168 314 153.5 c 128,-1,39
 362 139 362 139 424 130 c 0,40,41
 467 124 467 124 512 124 c 0,42,43
 532 124 532 124 553 125 c 0,44,45
 621 129 621 129 680 160 c 256,46,47
 739 191 739 191 775 235 c 128,-1,48
 811 279 811 279 830.5 331 c 128,-1,49
 850 383 850 383 856 439.5 c 128,-1,50
 862 496 862 496 862 555 c 0,51,52
 862 598 862 598 852 654.5 c 128,-1,53
 842 711 842 711 817.5 763 c 128,-1,54
 793 815 793 815 751 852 c 128,-1,55
 709 889 709 889 643 891 c 0,56,57
 636 891 636 891 628 891 c 0,58,59
 552 890 552 890 486 872 c 0,60,61
 414 852 414 852 360.5 812 c 128,-1,62
 307 772 307 772 276.5 718 c 128,-1,63
 246 664 246 664 246 602 c 2,64,-1
 246 178 l 1,37,38
EndSplineSet
EndChar
StartChar: c
Encoding: 99 99 68
Width: 1042
GlyphClass: 2
Flags: W
LayerCount: 2
Back
Fore
SplineSet
102 429 m 0,0,1
 102 437 102 437 102 445 c 0,2,3
 102 514 102 514 118 576 c 0,4,5
 136 644 136 644 152 686 c 0,6,7
 172 737 172 737 210 795.5 c 128,-1,8
 248 854 248 854 300 905 c 128,-1,9
 352 956 352 956 417.5 990 c 128,-1,10
 483 1024 483 1024 557 1024 c 2,11,-1
 567 1024 l 2,12,13
 659 1024 659 1024 737 985 c 128,-1,14
 815 946 815 946 866 877 c 1,15,16
 878 865 878 865 879 842 c 0,17,18
 879 819 879 819 862.5 802.5 c 128,-1,19
 846 786 846 786 823 786 c 256,20,21
 800 786 800 786 782 805 c 1,22,-1
 780 805 l 1,23,24
 774 811 774 811 768 819 c 0,25,26
 756 835 756 835 756 838 c 1,27,28
 680 918 680 918 561 918 c 2,29,-1
 557 918 l 2,30,31
 506 918 506 918 459 891 c 128,-1,32
 412 864 412 864 372 824 c 128,-1,33
 332 784 332 784 301 737 c 128,-1,34
 270 690 270 690 254 647 c 0,35,36
 217 551 217 551 213 477 c 0,37,38
 212 462 212 462 212 447 c 0,39,40
 212 391 212 391 224 348 c 0,41,42
 240 293 240 293 268.5 256 c 128,-1,43
 297 219 297 219 322 197 c 0,44,45
 377 150 377 150 431 129.5 c 128,-1,46
 485 109 485 109 537 106 c 1,47,-1
 563 106 l 1,48,49
 649 110 649 110 718.5 149 c 128,-1,50
 788 188 788 188 831 252 c 0,51,52
 833 254 833 254 834.5 256 c 128,-1,53
 836 258 836 258 838 260 c 0,54,55
 846 268 846 268 857 276.5 c 128,-1,56
 868 285 868 285 885 285 c 0,57,58
 908 285 908 285 924 268.5 c 128,-1,59
 940 252 940 252 940 229 c 256,60,61
 940 206 940 206 924 190 c 1,62,63
 867 106 867 106 774.5 56 c 128,-1,64
 682 6 682 6 567 0 c 1,65,-1
 545 0 l 2,66,67
 383 0 383 0 248 117 c 0,68,69
 168 187 168 187 136 268.5 c 128,-1,70
 104 350 104 350 102 429 c 0,0,1
EndSplineSet
EndChar
StartChar: d
Encoding: 100 100 6
Width: 530
Flags: MW
HStem: 0 21G<411.5 429> 4 49<177 262.5> 444 54<199 293 187.5 296.5> 677 20G<429 444.5>
VStem: 51 55<192.5 272.5 192.5 297> 405 52
LayerCount: 2
Back
Fore
SplineSet
465 667 m 2x7c
 450 27 l 2
 450 11 437 0 421 0 c 0xbc
 402 0 392 17 393 34 c 2
 395 79 l 1
 359 46 302 4 223 4 c 0
 105 4 51 116 51 226 c 0
 51 368 110 498 265 498 c 0
 321 498 370 482 403 467 c 1
 408 668 l 2
 408 684 421 697 437 697 c 0
 452 697 465 683 465 667 c 2x7c
106 229 m 0
 106 156 131 53 223 53 c 0x7c
 327 53 396 130 397 161 c 2
 402 406 l 1
 383 416 326 444 267 444 c 0
 131 444 106 316 106 229 c 0
EndSplineSet
EndChar
StartChar: e
Encoding: 101 101 70
Width: 1067
GlyphClass: 2
Flags: W
LayerCount: 2
Back
Fore
SplineSet
104 462 m 0,0,1
 103 476 103 476 103 490 c 0,2,3
 103 561 103 561 121 633 c 1,4,5
 129 672 129 672 145.5 716 c 128,-1,6
 162 760 162 760 189.5 804 c 128,-1,7
 217 848 217 848 257 890 c 128,-1,8
 297 932 297 932 354 965 c 0,9,10
 426 1006 426 1006 502 1017 c 0,11,12
 538 1022 538 1022 573 1022 c 0,13,14
 610 1022 610 1022 648 1016 c 0,15,16
 718 1004 718 1004 778 972 c 128,-1,17
 838 940 838 940 874 895 c 1,18,19
 897 868 897 868 911.5 841.5 c 128,-1,20
 926 815 926 815 936 795 c 0,21,22
 952 760 952 760 946 735.5 c 128,-1,23
 940 711 940 711 901 690 c 0,24,25
 887 682 887 682 843 657.5 c 128,-1,26
 799 633 799 633 738.5 598 c 128,-1,27
 678 563 678 563 607.5 522 c 128,-1,28
 537 481 537 481 469 442 c 128,-1,29
 401 403 401 403 343 369.5 c 128,-1,30
 285 336 285 336 250 317 c 1,31,32
 363 106 363 106 612 106 c 0,33,34
 616 106 616 106 644 109.5 c 128,-1,35
 672 113 672 113 712 124 c 128,-1,36
 752 135 752 135 796 157.5 c 128,-1,37
 840 180 840 180 874 221 c 0,38,39
 886 237 886 237 911 238 c 0,40,41
 934 238 934 238 949.5 222.5 c 128,-1,42
 965 207 965 207 965 184 c 256,43,44
 965 161 965 161 950 147 c 1,45,46
 903 94 903 94 845.5 64.5 c 128,-1,47
 788 35 788 35 738 20.5 c 128,-1,48
 688 6 688 6 652 3 c 128,-1,49
 616 0 616 0 614 0 c 2,50,-1
 612 0 l 2,51,52
 444 0 444 0 322.5 80 c 128,-1,53
 201 160 201 160 133 319 c 0,54,55
 108 378 108 378 104 462 c 0,0,1
211 528 m 0,56,57
 209 504 209 504 209 482 c 0,58,59
 209 449 209 449 213 422 c 1,60,61
 250 442 250 442 306 473 c 128,-1,62
 362 504 362 504 425.5 538.5 c 128,-1,63
 489 573 489 573 553.5 609 c 128,-1,64
 618 645 618 645 674.5 676 c 128,-1,65
 731 707 731 707 771 728.5 c 128,-1,66
 811 750 811 750 825 758 c 0,67,68
 827 760 827 760 830.5 761 c 128,-1,69
 834 762 834 762 834 766 c 1,70,71
 835 767 835 767 835 769 c 0,72,73
 834 774 834 774 830 786 c 0,74,75
 824 802 824 802 805 827 c 1,76,77
 776 862 776 862 713.5 887.5 c 128,-1,78
 651 913 651 913 578 913 c 0,79,80
 535 913 535 913 491 903 c 128,-1,81
 447 893 447 893 406 868 c 0,82,83
 338 827 338 827 297 770 c 128,-1,84
 256 713 256 713 235.5 650.5 c 128,-1,85
 215 588 215 588 211 528 c 0,56,57
EndSplineSet
EndChar
StartChar: f
Encoding: 102 102 8
Width: 371
Flags: MW
HStem: 0 21G<141.5 156.5> 449 51<177 320.5> 481 20G<44 121 121 121 177 177> 638 53<274 333 251.5 342.5>
VStem: 20 157 121 56<26 449 501 561.5> 121 219<26 482 449 482 468 572.5> 121 240<26 675.5 449 675.5 501 675.5>
LayerCount: 2
Back
Fore
SplineSet
44 501 m 2xb8
 121 501 l 1
 121 644 181 691 322 691 c 0
 344 691 361 686 361 665 c 0xb1
 361 651 351 638 334 638 c 0
 214 638 177 622 177 501 c 1xb4
 315 500 l 2
 326 500 340 489 340 475 c 0xd2
 340 461 329 449 315 449 c 2
 177 449 l 1
 177 26 l 2
 177 12 164 0 149 0 c 0
 134 0 121 12 121 26 c 2
 121 449 l 1
 46 449 l 2xd4
 32 449 20 461 20 475 c 0
 20 489 32 501 44 501 c 2xb8
EndSplineSet
EndChar
StartChar: g
Encoding: 103 103 9
Width: 521
Flags: MW
HStem: -185 56<216 293.5 201 298.5> -185 70 -1 53<191.5 249> 445 55<239.5 311.5> 491 20G<416 435.5>
VStem: 51 50<201 296.5 201 307.5> 389 61
LayerCount: 2
Back
Fore
SplineSet
117 -170 m 0xae
 104 -167 95 -156 95 -143 c 0
 95 -127 108 -115 123 -115 c 0x76
 142 -115 163 -129 239 -129 c 0
 348 -129 386 -69 389 23 c 2
 391 78 l 1
 355 29 306 1 249 -1 c 0
 134 -1 51 105 51 241 c 0
 51 374 153 500 288 500 c 0xb6
 335 500 373 483 399 468 c 1
 399 492 404 511 428 511 c 0
 443 511 456 498 456 482 c 2
 445 19 l 2
 442 -122 357 -185 240 -185 c 0
 192 -185 148 -177 117 -170 c 0xae
395 267 m 2
 395 412 l 1
 373 431 331 445 292 445 c 0
 187 445 101 356 101 237 c 0
 101 165 140 52 241 52 c 0
 310 52 395 102 395 267 c 2
EndSplineSet
EndChar
StartChar: h
Encoding: 104 104 3
Width: 503
Flags: MW
HStem: -1 21G<85.5 100.5> 0 21G<416.5 430.5> 447 55<279.5 334> 447 243<85 334>
VStem: 65 56<27 29 29 193 336 661> 398 55<129 275 129 284.5>
LayerCount: 2
Back
Fore
SplineSet
450 27 m 0xac
 449 12 438 0 423 0 c 0x6c
 410 0 396 12 396 27 c 0
 396 42 398 94 398 154 c 0
 398 415 352 447 316 447 c 0
 231 447 152 316 136 282 c 0
 124 257 121 227 121 193 c 2
 121 29 l 2
 121 10 108 -1 93 -1 c 0
 78 -1 65 12 65 27 c 2
 65 661 l 2
 65 676 77 690 93 690 c 0x9c
 110 690 121 676 121 661 c 2
 121 336 l 1
 157 416 238 502 321 502 c 0
 420 502 453 388 453 162 c 0
 453 96 453 57 450 27 c 0xac
EndSplineSet
EndChar
StartChar: i
Encoding: 105 105 74
Width: 397
GlyphClass: 2
Flags: W
LayerCount: 2
Back
Fore
SplineSet
133 59 m 2,0,1
 133 34 133 34 150.5 17 c 128,-1,2
 168 0 168 0 193 0 c 256,3,4
 218 0 218 0 235 17.5 c 128,-1,5
 252 35 252 35 252 59 c 2,6,-1
 264 956 l 2,7,8
 264 981 264 981 246.5 998.5 c 128,-1,9
 229 1016 229 1016 205 1016 c 0,10,11
 180 1016 180 1016 162.5 998.5 c 128,-1,12
 145 981 145 981 145 956 c 2,13,-1
 133 59 l 2,0,1
150 1255 m 2,14,-1
 152 1339 l 2,15,16
 152 1362 152 1362 169 1378.5 c 128,-1,17
 186 1395 186 1395 209 1395 c 1,18,19
 232 1393 232 1393 248 1376.5 c 128,-1,20
 264 1360 264 1360 264 1337 c 2,21,-1
 262 1253 l 2,22,23
 262 1230 262 1230 245 1213 c 0,24,25
 230 1198 230 1198 210 1198 c 0,26,27
 208 1198 208 1198 205 1198 c 0,28,29
 182 1198 182 1198 166 1215.5 c 128,-1,30
 150 1233 150 1233 150 1255 c 2,14,-1
EndSplineSet
EndChar
StartChar: j
Encoding: 106 106 75
Width: 681
GlyphClass: 2
Flags: W
LayerCount: 2
Back
Fore
SplineSet
-16 -76 m 1,0,1
 -19 -66 -19 -66 -19 -57 c 0,2,3
 -19 -44 -19 -44 -13 -32 c 0,4,5
 -2 -12 -2 -12 20 -4 c 0,6,7
 43 4 43 4 63.5 -6 c 128,-1,8
 84 -16 84 -16 92 -39 c 1,9,10
 94 -41 94 -41 94 -43 c 2,11,-1
 98 -53 l 2,12,13
 110 -84 110 -84 128.5 -121 c 128,-1,14
 147 -158 147 -158 172 -189.5 c 128,-1,15
 197 -221 197 -221 227.5 -243.5 c 128,-1,16
 258 -266 258 -266 295 -266 c 0,17,18
 342 -266 342 -266 368.5 -232.5 c 128,-1,19
 395 -199 395 -199 408.5 -156 c 128,-1,20
 422 -113 422 -113 425 -72 c 128,-1,21
 428 -31 428 -31 428 -14 c 0,22,23
 428 0 428 0 427 73.5 c 128,-1,24
 426 147 426 147 424 250.5 c 128,-1,25
 422 354 422 354 421 473 c 128,-1,26
 420 592 420 592 418 696.5 c 128,-1,27
 416 801 416 801 415 876.5 c 128,-1,28
 414 952 414 952 414 969 c 2,29,-1
 414 971 l 1,30,-1
 414 975 l 1,31,32
 416 998 416 998 432.5 1013 c 128,-1,33
 449 1028 449 1028 471 1028 c 0,34,35
 494 1028 494 1028 511 1011 c 128,-1,36
 528 994 528 994 528 971 c 0,37,38
 528 961 528 961 529 889 c 128,-1,39
 530 817 530 817 531 713.5 c 128,-1,40
 532 610 532 610 534.5 491.5 c 128,-1,41
 537 373 537 373 538 267.5 c 128,-1,42
 539 162 539 162 540 86 c 128,-1,43
 541 10 541 10 541 -4 c 0,44,45
 541 -31 541 -31 536.5 -87 c 128,-1,46
 532 -143 532 -143 510 -203 c 0,47,48
 481 -285 481 -285 425 -328 c 128,-1,49
 369 -371 369 -371 295 -371 c 256,50,51
 221 -371 221 -371 165 -331 c 128,-1,52
 109 -291 109 -291 71 -239.5 c 128,-1,53
 33 -188 33 -188 11.5 -141 c 128,-1,54
 -10 -94 -10 -94 -16 -78 c 1,55,-1
 -16 -76 l 1,0,1
424 1280 m 1,56,-1
 424 1286 l 1,57,-1
 432 1354 l 1,58,-1
 432 1368 l 1,59,-1
 434 1370 l 1,60,61
 440 1393 440 1393 460 1405 c 0,62,63
 474 1413 474 1413 489 1413 c 0,64,65
 496 1413 496 1413 504 1411 c 0,66,67
 527 1405 527 1405 539 1386 c 0,68,69
 548 1371 548 1371 548 1354 c 0,70,71
 548 1349 548 1349 547 1343 c 2,72,-1
 539 1272 l 1,73,-1
 539 1264 l 1,74,75
 535 1241 535 1241 516 1226 c 0,76,77
 500 1213 500 1213 482 1213 c 0,78,79
 478 1213 478 1213 473 1214 c 0,80,81
 448 1218 448 1218 434 1238 c 0,82,83
 423 1253 423 1253 423 1270 c 0,84,85
 423 1275 423 1275 424 1280 c 1,56,-1
EndSplineSet
EndChar
StartChar: k
Encoding: 107 107 76
Width: 1052
GlyphClass: 2
Flags: W
LayerCount: 2
Back
Fore
SplineSet
133 1358 m 2,0,1
 133 1381 133 1381 150.5 1397 c 128,-1,2
 168 1413 168 1413 190 1413 c 0,3,4
 215 1413 215 1413 231.5 1395.5 c 128,-1,5
 248 1378 248 1378 248 1356 c 2,6,-1
 248 1354 l 1,7,-1
 250 520 l 1,8,9
 293 549 293 549 359.5 604 c 128,-1,10
 426 659 426 659 498.5 729 c 128,-1,11
 571 799 571 799 645 878.5 c 128,-1,12
 719 958 719 958 778 1036 c 0,13,14
 796 1061 796 1061 825 1061 c 0,15,16
 848 1061 848 1061 864.5 1044.5 c 128,-1,17
 881 1028 881 1028 881 1006 c 0,18,19
 881 990 881 990 868 973 c 0,20,21
 835 930 835 930 790 878.5 c 128,-1,22
 745 827 745 827 697 777 c 128,-1,23
 649 727 649 727 604 683 c 128,-1,24
 559 639 559 639 526 610 c 1,25,26
 528 606 528 606 550.5 578.5 c 128,-1,27
 573 551 573 551 609 507 c 128,-1,28
 645 463 645 463 688 408.5 c 128,-1,29
 731 354 731 354 775 300 c 128,-1,30
 819 246 819 246 860 193.5 c 128,-1,31
 901 141 901 141 932 102 c 0,32,33
 944 88 944 88 948 68 c 0,34,35
 948 65 948 65 948 63 c 0,36,37
 948 42 948 42 935 26 c 0,38,39
 920 8 920 8 897 6 c 0,40,41
 862 2 862 2 846 27 c 0,42,43
 795 109 795 109 733.5 187.5 c 128,-1,44
 672 266 672 266 615.5 334.5 c 128,-1,45
 559 403 559 403 512 457.5 c 128,-1,46
 465 512 465 512 440 545 c 1,47,48
 381 498 381 498 334 466 c 128,-1,49
 287 434 287 434 252 414 c 1,50,-1
 252 57 l 2,51,52
 252 34 252 34 235.5 17 c 128,-1,53
 219 0 219 0 195 0 c 0,54,55
 172 0 172 0 154.5 17.5 c 128,-1,56
 137 35 137 35 137 57 c 2,57,-1
 133 1358 l 2,0,1
EndSplineSet
EndChar
StartChar: l
Encoding: 108 108 77
Width: 380
GlyphClass: 2
Flags: W
LayerCount: 2
Back
Fore
SplineSet
133 49 m 1,0,-1
 133 1358 l 2,1,2
 133 1381 133 1381 149.5 1397 c 128,-1,3
 166 1413 166 1413 190 1413 c 0,4,5
 213 1413 213 1413 229.5 1396.5 c 128,-1,6
 246 1380 246 1380 248 1358 c 1,7,-1
 248 49 l 1,8,9
 244 26 244 26 228.5 13 c 128,-1,10
 213 0 213 0 190 0 c 256,11,12
 167 0 167 0 152 13.5 c 128,-1,13
 137 27 137 27 133 49 c 1,0,-1
EndSplineSet
EndChar
StartChar: m
Encoding: 109 109 14
Width: 813
Flags: MW
HStem: 0 21G<85.5 100.5 411.5 427 712.5 727.5> 462 49<291 329 585 629>
VStem: 65 56<27 265 362 471> 391 56<27 283> 692 56<27 327>
LayerCount: 2
Back
Fore
SplineSet
612 511 m 0
 674 511 748 479 748 327 c 2
 748 27 l 2
 748 12 735 0 720 0 c 0
 705 0 692 12 692 27 c 2
 692 334 l 2
 692 449 646 462 612 462 c 0
 557 462 447 396 447 283 c 2
 447 27 l 2
 447 12 435 0 419 0 c 0
 404 0 391 12 391 27 c 2
 391 334 l 2
 391 449 346 462 312 462 c 0
 270 462 199 415 133 307 c 0
 127 297 122 278 121 265 c 2
 121 27 l 2
 121 12 108 0 93 0 c 0
 78 0 65 12 65 27 c 2
 65 471 l 2
 65 486 78 499 93 499 c 0
 109 499 121 486 121 471 c 2
 121 362 l 1
 174 436 244 511 312 511 c 0
 362 511 420 490 440 401 c 1
 487 468 558 511 612 511 c 0
EndSplineSet
EndChar
StartChar: n
Encoding: 110 110 15
Width: 535
Flags: MW
HStem: 0 21G<85.5 101.5 435.5 451> 445 54<303 377.5> 480 20G<85.5 100.5>
VStem: 65 55<26 30 21.5 473> 416 53<21 28>
LayerCount: 2
Back
Fore
SplineSet
121 473 m 2xb8
 121 292 l 1
 141 406 222 499 328 499 c 0
 472 499 473 351 469 29 c 0
 469 13 459 0 443 0 c 0
 428 0 416 13 416 28 c 0
 411 305 430 445 325 445 c 0xd8
 281 445 228 424 175 326 c 0
 141 264 122 181 121 111 c 2
 120 30 l 2
 120 13 110 0 93 0 c 0
 78 0 65 12 65 26 c 2
 65 473 l 2
 65 488 78 500 93 500 c 0
 108 500 121 488 121 473 c 2xb8
EndSplineSet
EndChar
StartChar: o
Encoding: 111 111 80
Width: 1095
GlyphClass: 2
Flags: W
LayerCount: 2
Back
Fore
SplineSet
104 516 m 0,0,1
 110 620 110 620 151.5 712.5 c 128,-1,2
 193 805 193 805 257.5 874.5 c 128,-1,3
 322 944 322 944 404.5 984 c 128,-1,4
 487 1024 487 1024 580 1024 c 0,5,6
 656 1024 656 1024 725.5 994.5 c 128,-1,7
 795 965 795 965 850 911 c 0,8,9
 926 837 926 837 964 732 c 0,10,11
 994 649 994 649 993 557 c 0,12,13
 993 533 993 533 991 508 c 0,14,15
 985 404 985 404 944 310.5 c 128,-1,16
 903 217 903 217 838.5 148.5 c 128,-1,17
 774 80 774 80 691 40 c 128,-1,18
 608 0 608 0 516 0 c 0,19,20
 360 0 360 0 246 111 c 0,21,22
 170 185 170 185 132 290 c 0,23,24
 102 373 102 373 102 466 c 0,25,26
 102 491 102 491 104 516 c 0,0,1
221 508 m 0,27,28
 220 491 220 491 220 475 c 0,29,30
 220 396 220 396 244 322 c 0,31,32
 272 232 272 232 332 174 c 0,33,34
 412 98 412 98 516 98 c 0,35,36
 584 98 584 98 646.5 132 c 128,-1,37
 709 166 709 166 758 223.5 c 128,-1,38
 807 281 807 281 837.5 356.5 c 128,-1,39
 868 432 868 432 874 516 c 0,40,41
 875 531 875 531 875 545 c 0,42,43
 874 626 874 626 846 702 c 0,44,45
 812 792 812 792 754 848 c 0,46,47
 675 926 675 926 569 926 c 0,48,49
 501 926 501 926 440 892 c 128,-1,50
 379 858 379 858 332 800.5 c 128,-1,51
 285 743 285 743 256 667.5 c 128,-1,52
 227 592 227 592 221 508 c 0,27,28
EndSplineSet
EndChar
StartChar: p
Encoding: 112 112 17
Width: 520
Flags: MW
HStem: -195 21G<85.5 100.5> 8 57<227.5 318 227.5 339> 451 49<264.5 309>
VStem: 65 56<-167 36 99 363 431 471> 420 50<219 307>
LayerCount: 2
Back
Fore
SplineSet
309 500 m 1
 420 495 470 381 470 276 c 0
 470 162 427 8 251 8 c 0
 199 8 152 24 121 36 c 1
 121 -167 l 2
 121 -182 108 -195 93 -195 c 0
 78 -195 65 -182 65 -167 c 2
 65 471 l 2
 65 487 77 500 93 500 c 0
 109 500 121 487 121 471 c 2
 121 431 l 1
 162 469 220 500 309 500 c 1
257 65 m 0
 379 65 420 156 420 276 c 0
 420 338 395 451 301 451 c 0
 196 451 138 388 121 363 c 1
 121 99 l 1
 140 90 198 65 257 65 c 0
EndSplineSet
EndChar
StartChar: q
Encoding: 113 113 18
Width: 514
Flags: MW
HStem: -189 233<209.5 405> -6 50<209.5 290.5 209.5 307.5> 439 50<256 332> 498 20G<414.5 429.5>
VStem: 50 50<160.5 282.5 160.5 296> 376 61
LayerCount: 2
Back
Fore
SplineSet
372 -158 m 2xbc
 380 61 l 1
 380 61 355 -6 260 -6 c 0x7c
 134 -6 50 88 50 211 c 0
 50 381 159 489 321 489 c 0
 344 489 368 487 395 482 c 1
 395 491 l 2
 395 506 407 518 422 518 c 0
 437 518 450 506 449 491 c 2
 426 -160 l 2
 425 -180 413 -189 397 -189 c 0
 382 -189 371 -173 372 -158 c 2xbc
251 44 m 0
 330 44 383 87 385 164 c 2
 393 433 l 1
 367 437 343 439 321 439 c 0
 191 439 100 356 100 209 c 0
 100 112 168 44 251 44 c 0
EndSplineSet
EndChar
StartChar: r
Encoding: 114 114 19
Width: 416
Flags: MW
HStem: 0 21G<86 100.5> 362 140<251 356> 447 55<262 300.5>
VStem: 65 56<19 472> 322 54<390 415 415 422 381.5 423.5>
LayerCount: 2
Back
Fore
SplineSet
376 422 m 2xb8
 376 389 l 2
 376 374 364 362 348 362 c 0xd8
 328 362 322 377 322 390 c 2
 322 415 l 2
 322 432 315 447 286 447 c 0
 238 447 193 407 156 357 c 0
 137 332 122 285 122 253 c 2
 121 26 l 2
 121 12 108 0 93 0 c 0
 79 0 65 12 65 26 c 2
 65 472 l 2
 65 487 78 499 93 499 c 0
 109 499 122 487 122 472 c 2
 122 376 l 1
 152 430 207 502 295 502 c 0
 358 502 376 458 376 422 c 2xb8
EndSplineSet
EndChar
StartChar: s
Encoding: 115 115 20
Width: 458
Flags: MW
HStem: -2 53<201 277.5 201 285.5> 341 158<214.5 387> 449 50<217.5 287.5>
VStem: 80 52<350.5 401.5 350.5 427.5> 352 52
LayerCount: 2
Back
Fore
SplineSet
233 -2 m 0xb8
 110 -2 51 94 51 128 c 0
 51 143 63 155 78 155 c 0
 91 155 100 147 103 136 c 0
 121 83 169 51 233 51 c 0
 322 51 351 111 351 140 c 0
 351 185 331 210 233 239 c 0
 127 271 80 309 80 380 c 0
 80 475 179 499 250 499 c 0
 351 499 405 455 405 387 c 0
 405 357 397 341 377 341 c 0xd8
 359 341 350 354 350 368 c 0
 350 371 352 379 352 388 c 0
 352 425 322 449 253 449 c 0
 182 449 132 424 132 379 c 0
 132 322 199 303 239 291 c 0
 332 261 404 239 404 139 c 0
 404 72 338 -2 233 -2 c 0xb8
EndSplineSet
EndChar
StartChar: t
Encoding: 116 116 85
Width: 792
GlyphClass: 2
Flags: W
LayerCount: 2
Back
Fore
SplineSet
41 967 m 0,0,1
 41 992 41 992 58.5 1008 c 128,-1,2
 76 1024 76 1024 98 1024 c 2,3,-1
 102 1024 l 1,4,-1
 338 1024 l 1,5,-1
 338 1317 l 1,6,-1
 338 1319 l 2,7,8
 338 1342 338 1342 355.5 1359 c 128,-1,9
 373 1376 373 1376 395 1376 c 0,10,11
 420 1376 420 1376 436.5 1358.5 c 128,-1,12
 453 1341 453 1341 453 1319 c 2,13,-1
 453 1317 l 1,14,-1
 453 1024 l 1,15,-1
 690 1024 l 1,16,-1
 694 1024 l 2,17,18
 719 1024 719 1024 735.5 1007.5 c 128,-1,19
 752 991 752 991 752 967 c 0,20,21
 752 944 752 944 735.5 926.5 c 128,-1,22
 719 909 719 909 694 909 c 2,23,-1
 453 909 l 1,24,-1
 453 53 l 2,25,26
 453 30 453 30 435.5 14 c 128,-1,27
 418 -2 418 -2 395 -2 c 256,28,29
 372 -2 372 -2 356 14.5 c 128,-1,30
 340 31 340 31 338 53 c 1,31,-1
 338 909 l 1,32,-1
 98 909 l 1,33,34
 73 911 73 911 57 927.5 c 128,-1,35
 41 944 41 944 41 967 c 0,0,1
EndSplineSet
EndChar
StartChar: u
Encoding: 117 117 22
Width: 512
Flags: MW
HStem: -3 49<167.5 251.5 167.5 255.5> 0 21G<407.5 425> 480 20G<98 112.5 414 428>
VStem: 66 54<291 291> 392 55
LayerCount: 2
Back
Fore
SplineSet
447 475 m 2xb8
 447 28 l 2
 447 13 433 0 417 0 c 0x78
 398 0 386 15 386 33 c 2
 386 76 l 1
 361 40 294 -3 217 -3 c 0
 65 -3 67 143 66 291 c 0
 65 368 73 428 78 466 c 0
 82 495 91 500 105 500 c 0
 120 500 134 489 133 474 c 0
 131 450 120 384 120 292 c 0
 120 170 118 46 217 46 c 0
 286 46 356 94 377 118 c 0
 390 133 390 161 390 161 c 1
 395 475 l 2
 395 490 407 500 421 500 c 0
 435 500 447 490 447 475 c 2xb8
EndSplineSet
EndChar
StartChar: v
Encoding: 118 118 23
Width: 436
Flags: MW
HStem: -1 21G<212 224.5> 479 20G<31 45.5> 480 20G
LayerCount: 2
Back
Fore
SplineSet
423 460 m 2xa0
 244 17 l 2
 239 6 231 -1 218 -1 c 0
 206 -1 196 8 192 19 c 2
 12 462 l 2
 11 465 10 468 10 471 c 0
 10 487 23 499 39 499 c 0xc0
 52 499 60 492 65 480 c 2
 218 94 l 1
 372 483 l 2
 376 493 386 500 398 500 c 0
 413 500 426 487 426 472 c 0
 426 467 424 463 423 460 c 2xa0
EndSplineSet
EndChar
StartChar: w
Encoding: 119 119 88
Width: 1216
GlyphClass: 2
Flags: W
LayerCount: 2
Back
Fore
SplineSet
20 967 m 1,0,1
 20 990 20 990 36.5 1007 c 128,-1,2
 53 1024 53 1024 76 1024 c 256,3,4
 99 1024 99 1024 115 1009.5 c 128,-1,5
 131 995 131 995 133 973 c 1,6,-1
 283 213 l 1,7,-1
 549 981 l 1,8,9
 553 997 553 997 569.5 1010.5 c 128,-1,10
 586 1024 586 1024 608 1024 c 0,11,12
 631 1024 631 1024 647.5 1007.5 c 128,-1,13
 664 991 664 991 668 971 c 2,14,-1
 670 961 l 1,15,-1
 852 203 l 1,16,-1
 1083 977 l 1,17,18
 1087 995 1087 995 1102.5 1008.5 c 128,-1,19
 1118 1022 1118 1022 1139 1022 c 0,20,21
 1162 1022 1162 1022 1179 1005 c 128,-1,22
 1196 988 1196 988 1196 965 c 0,23,24
 1196 959 1196 959 1192 946 c 2,25,-1
 903 45 l 1,26,27
 897 8 897 8 860 2 c 0,28,29
 854 1 854 1 849 1 c 0,30,31
 832 0 832 0 817 10 c 0,32,33
 797 22 797 22 793 45 c 1,34,-1
 600 801 l 1,35,-1
 328 43 l 1,36,-1
 326 43 l 1,37,38
 316 8 316 8 283 2 c 0,39,40
 278 1 278 1 272 1 c 0,41,42
 254 0 254 0 238 12 c 0,43,44
 218 26 218 26 213 49 c 2,45,-1
 23 950 l 2,46,47
 21 956 21 956 20 967 c 1,0,1
EndSplineSet
EndChar
StartChar: x
Encoding: 120 120 89
Width: 1044
GlyphClass: 2
Flags: W
LayerCount: 2
Back
Fore
SplineSet
23 59 m 128,-1,1
 23 84 23 84 39 100 c 2,2,-1
 457 528 l 1,3,-1
 123 926 l 1,4,5
 107 942 107 942 106.5 966.5 c 128,-1,6
 106 991 106 991 123 1008 c 0,7,8
 139 1024 139 1024 162.5 1024 c 128,-1,9
 186 1024 186 1024 203 1008 c 1,10,-1
 218 990 l 2,11,12
 233 971 233 971 256 942 c 128,-1,13
 279 913 279 913 309.5 877.5 c 128,-1,14
 340 842 340 842 371 803 c 0,15,16
 443 713 443 713 537 600 c 1,17,-1
 924 1004 l 2,18,19
 940 1020 940 1020 964.5 1020 c 128,-1,20
 989 1020 989 1020 1006 1004 c 0,21,22
 1022 988 1022 988 1022 964 c 128,-1,23
 1022 940 1022 940 1006 924 c 2,24,25
 1006 924 1006 924 988 906 c 0,26,27
 971 889 971 889 943 860 c 128,-1,28
 915 831 915 831 880.5 795.5 c 128,-1,29
 846 760 846 760 809 723 c 2,30,-1
 612 522 l 1,31,-1
 971 92 l 2,32,33
 985 76 985 76 984 54.5 c 128,-1,34
 983 33 983 33 967 16 c 0,35,36
 951 0 951 0 926 0 c 128,-1,37
 901 0 901 0 885 16 c 1,38,-1
 530 451 l 1,39,40
 415 332 415 332 326 236 c 0,41,42
 287 195 287 195 250 156 c 128,-1,43
 213 117 213 117 184 86 c 0,44,45
 149 49 149 49 119 18 c 0,46,47
 103 2 103 2 79 2 c 128,-1,48
 55 2 55 2 39 18 c 256,49,0
 23 34 23 34 23 59 c 128,-1,1
EndSplineSet
EndChar
StartChar: y
Encoding: 121 121 26
Width: 489
Flags: MW
HStem: -197 21G<138.5 152.5> 480 20G<40 54> 481 20G
LayerCount: 2
Back
Fore
SplineSet
467 461 m 2xa0
 173 -179 l 2
 169 -189 159 -197 146 -197 c 0
 131 -197 118 -184 118 -168 c 0
 118 -164 119 -160 121 -156 c 2
 220 61 l 1
 24 456 l 2
 22 460 20 466 20 471 c 0
 20 487 32 500 48 500 c 0xc0
 60 500 70 491 75 481 c 2
 251 127 l 1
 414 483 l 2
 418 493 428 501 441 501 c 0
 456 501 469 489 469 473 c 0
 469 469 469 465 467 461 c 2xa0
EndSplineSet
EndChar
StartChar: z
Encoding: 122 122 91
Width: 1042
GlyphClass: 2
Flags: W
LayerCount: 2
Back
Fore
SplineSet
102 57 m 0,0,1
 102 67 102 67 106.5 75.5 c 128,-1,2
 111 84 111 84 115 92 c 1,3,-1
 764 911 l 1,4,-1
 182 911 l 2,5,6
 157 911 157 911 141 927.5 c 128,-1,7
 125 944 125 944 125 969 c 0,8,9
 125 992 125 992 141.5 1009 c 128,-1,10
 158 1026 158 1026 182 1026 c 2,11,-1
 872 1026 l 2,12,13
 895 1026 895 1026 912.5 1008.5 c 128,-1,14
 930 991 930 991 930 969 c 0,15,16
 930 946 930 946 918 934 c 1,17,-1
 268 115 l 1,18,-1
 883 115 l 2,19,20
 906 115 906 115 923 97.5 c 128,-1,21
 940 80 940 80 940 57 c 256,22,23
 940 34 940 34 922.5 17 c 128,-1,24
 905 0 905 0 883 0 c 2,25,-1
 160 0 l 2,26,27
 137 0 137 0 119.5 17.5 c 128,-1,28
 102 35 102 35 102 57 c 0,0,1
EndSplineSet
EndChar
StartChar: braceleft
Encoding: 123 123 92
Width: 770
GlyphClass: 2
Flags: W
LayerCount: 2
Back
Fore
SplineSet
111 717 m 0,0,1
 111 746 111 746 135 762 c 1,2,3
 143 766 143 766 145 768 c 1,4,5
 200 791 200 791 229 823.5 c 128,-1,6
 258 856 258 856 270.5 887 c 128,-1,7
 283 918 283 918 284 940.5 c 128,-1,8
 285 963 285 963 285 965 c 2,9,-1
 285 969 l 1,10,-1
 285 1356 l 2,11,12
 285 1430 285 1430 311.5 1481 c 128,-1,13
 338 1532 338 1532 380 1568 c 128,-1,14
 422 1604 422 1604 472 1623 c 128,-1,15
 522 1642 522 1642 569 1653 c 1,16,-1
 580 1653 l 1,17,18
 584 1655 584 1655 590 1655 c 0,19,20
 613 1655 613 1655 629 1638.5 c 128,-1,21
 645 1622 645 1622 645 1599 c 256,22,23
 645 1576 645 1576 631.5 1562 c 128,-1,24
 618 1548 618 1548 598 1544 c 1,25,-1
 592 1544 l 1,26,27
 565 1538 565 1538 531.5 1527 c 128,-1,28
 498 1516 498 1516 467 1494.5 c 128,-1,29
 436 1473 436 1473 415.5 1439 c 128,-1,30
 395 1405 395 1405 395 1356 c 2,31,-1
 395 971 l 1,32,33
 397 948 397 948 393 916.5 c 128,-1,34
 389 885 389 885 374.5 851 c 128,-1,35
 360 817 360 817 336.5 782.5 c 128,-1,36
 313 748 313 748 274 717 c 1,37,38
 315 684 315 684 340 648 c 128,-1,39
 365 612 365 612 375 582 c 1,40,41
 391 539 391 539 393 506 c 128,-1,42
 395 473 395 473 395 463 c 2,43,-1
 395 45 l 2,44,45
 395 -4 395 -4 415.5 -38 c 128,-1,46
 436 -72 436 -72 467 -93.5 c 128,-1,47
 498 -115 498 -115 531.5 -126 c 128,-1,48
 565 -137 565 -137 592 -143 c 1,49,-1
 598 -143 l 1,50,51
 618 -147 618 -147 631.5 -161.5 c 128,-1,52
 645 -176 645 -176 645 -199 c 256,53,54
 645 -222 645 -222 628.5 -238 c 128,-1,55
 612 -254 612 -254 590 -254 c 0,56,57
 584 -254 584 -254 580 -252 c 1,58,-1
 569 -252 l 1,59,60
 522 -244 522 -244 472 -223.5 c 128,-1,61
 422 -203 422 -203 380 -167 c 128,-1,62
 338 -131 338 -131 311.5 -80 c 128,-1,63
 285 -29 285 -29 285 45 c 2,64,-1
 285 465 l 1,65,-1
 285 469 l 2,66,67
 285 471 285 471 284 493.5 c 128,-1,68
 283 516 283 516 270.5 547 c 128,-1,69
 258 578 258 578 230.5 610.5 c 128,-1,70
 203 643 203 643 147 666 c 1,71,72
 141 666 141 666 135 672 c 1,73,74
 110 686 110 686 111 717 c 0,0,1
EndSplineSet
EndChar
StartChar: bar
Encoding: 124 124 93
Width: 395
GlyphClass: 2
Flags: W
LayerCount: 2
Back
Fore
SplineSet
139 -287 m 2,0,-1
 139 1663 l 2,1,2
 139 1686 139 1686 156.5 1703 c 128,-1,3
 174 1720 174 1720 197 1720 c 0,4,5
 222 1720 222 1720 238 1703 c 128,-1,6
 254 1686 254 1686 254 1663 c 2,7,-1
 254 -287 l 2,8,9
 254 -312 254 -312 238 -328 c 128,-1,10
 222 -344 222 -344 197 -344 c 0,11,12
 174 -344 174 -344 156.5 -327.5 c 128,-1,13
 139 -311 139 -311 139 -287 c 2,0,-1
EndSplineSet
EndChar
StartChar: braceright
Encoding: 125 125 94
Width: 770
GlyphClass: 2
Flags: W
LayerCount: 2
Back
Fore
SplineSet
111 -198 m 256,0,1
 111 -175 111 -175 124.5 -161 c 128,-1,2
 138 -147 138 -147 158 -143 c 1,3,-1
 164 -143 l 1,4,5
 191 -137 191 -137 224.5 -126 c 128,-1,6
 258 -115 258 -115 289 -93.5 c 128,-1,7
 320 -72 320 -72 340.5 -38 c 128,-1,8
 361 -4 361 -4 361 45 c 2,9,-1
 361 430 l 1,10,11
 359 453 359 453 363 484.5 c 128,-1,12
 367 516 367 516 381.5 550 c 128,-1,13
 396 584 396 584 419.5 618.5 c 128,-1,14
 443 653 443 653 482 684 c 1,15,16
 441 717 441 717 416 753 c 128,-1,17
 391 789 391 789 381 819 c 1,18,19
 365 862 365 862 363 895 c 128,-1,20
 361 928 361 928 361 938 c 2,21,-1
 361 1356 l 2,22,23
 361 1405 361 1405 340.5 1439 c 128,-1,24
 320 1473 320 1473 289 1494.5 c 128,-1,25
 258 1516 258 1516 224.5 1527 c 128,-1,26
 191 1538 191 1538 164 1544 c 1,27,-1
 158 1544 l 1,28,29
 138 1548 138 1548 124.5 1562.5 c 128,-1,30
 111 1577 111 1577 111 1600 c 256,31,32
 111 1623 111 1623 127.5 1639 c 128,-1,33
 144 1655 144 1655 166 1655 c 0,34,35
 172 1655 172 1655 176 1653 c 1,36,-1
 187 1653 l 1,37,38
 234 1645 234 1645 284 1624.5 c 128,-1,39
 334 1604 334 1604 376 1568 c 128,-1,40
 418 1532 418 1532 444.5 1481 c 128,-1,41
 471 1430 471 1430 471 1356 c 2,42,-1
 471 936 l 1,43,-1
 471 932 l 2,44,45
 471 930 471 930 472 907.5 c 128,-1,46
 473 885 473 885 485.5 854 c 128,-1,47
 498 823 498 823 525.5 790.5 c 128,-1,48
 553 758 553 758 609 735 c 1,49,50
 615 735 615 735 621 729 c 1,51,52
 646 715 646 715 645 684 c 0,53,54
 645 655 645 655 621 639 c 1,55,56
 613 635 613 635 611 633 c 1,57,58
 556 610 556 610 527 577.5 c 128,-1,59
 498 545 498 545 485.5 514 c 128,-1,60
 473 483 473 483 472 460.5 c 128,-1,61
 471 438 471 438 471 436 c 2,62,-1
 471 432 l 1,63,-1
 471 45 l 2,64,65
 471 -29 471 -29 444.5 -80 c 128,-1,66
 418 -131 418 -131 376 -167 c 128,-1,67
 334 -203 334 -203 284 -222 c 128,-1,68
 234 -241 234 -241 187 -252 c 1,69,-1
 176 -252 l 1,70,71
 172 -254 172 -254 166 -254 c 0,72,73
 143 -254 143 -254 127 -237.5 c 128,-1,74
 111 -221 111 -221 111 -198 c 256,0,1
EndSplineSet
EndChar
StartChar: asciitilde
Encoding: 126 126 89
Width: 640
Flags: MW
HStem: 150 54<402 445 402 462.5> 150 183<387 552.5> 184 168<84.5 244> 298 54<187 229>
LayerCount: 2
Back
Fore
SplineSet
569 291 m 0x40
 552 243 507 150 418 150 c 0
 356 150 323 195 293 236 c 0
 265 275 245 298 213 298 c 0
 161 298 129 242 118 204 c 0x90
 114 192 105 184 92 184 c 0
 77 184 65 196 65 211 c 0
 65 214 66 218 68 224 c 0
 93 293 138 352 213 352 c 0x20
 275 352 308 307 337 267 c 0
 366 228 386 204 418 204 c 0x90
 472 204 504 271 518 308 c 0
 524 325 534 333 545 333 c 0
 560 333 572 321 572 306 c 0
 572 303 572 299 569 291 c 0x40
EndSplineSet
EndChar
StartChar: exclamdown
Encoding: 161 161 145
Width: 196
Flags: MW
HStem: -197 21G<77 93> 413 83<85 97.5>
VStem: 56 58<-175 -167> 56 71
LayerCount: 2
Back
Fore
SplineSet
115 315 m 2xe0
 114 -167 l 2
 114 -183 101 -197 85 -197 c 0
 69 -197 56 -183 56 -167 c 2
 57 315 l 2
 57 331 70 344 86 344 c 0
 102 344 115 331 115 315 c 2xe0
55 449 m 0
 55 476 75 496 95 496 c 0
 114 496 127 480 127 459 c 0xd0
 127 435 108 413 87 413 c 0
 68 413 55 430 55 449 c 0
EndSplineSet
EndChar
StartChar: cent
Encoding: 162 162 97
Width: 1138
GlyphClass: 2
Flags: W
LayerCount: 2
Back
Fore
SplineSet
152 632 m 128,-1,1
 150 711 150 711 167 778.5 c 128,-1,2
 184 846 184 846 201 887 c 0,3,4
 219 932 219 932 250 984 c 128,-1,5
 281 1036 281 1036 324 1083 c 128,-1,6
 367 1130 367 1130 421 1166 c 128,-1,7
 475 1202 475 1202 537 1219 c 1,8,-1
 541 1364 l 2,9,10
 541 1387 541 1387 556 1401 c 128,-1,11
 571 1415 571 1415 592 1415 c 1,12,13
 615 1413 615 1413 629 1398.5 c 128,-1,14
 643 1384 643 1384 643 1362 c 2,15,-1
 639 1225 l 1,16,17
 725 1221 725 1221 796.5 1183 c 128,-1,18
 868 1145 868 1145 915 1079 c 0,19,20
 927 1063 927 1063 928 1044 c 1,21,22
 928 1021 928 1021 911.5 1005 c 128,-1,23
 895 989 895 989 872 989 c 0,24,25
 843 989 843 989 829 1008 c 1,26,27
 823 1014 823 1014 817 1022 c 2,28,29
 817 1022 817 1022 805 1038 c 1,30,31
 735 1112 735 1112 635 1118 c 1,32,-1
 614 309 l 1,33,34
 700 313 700 313 769 352 c 128,-1,35
 838 391 838 391 881 453 c 1,36,37
 881 455 881 455 883 457 c 128,-1,38
 885 459 885 459 885 461 c 1,39,40
 887 461 887 461 887 463 c 1,41,42
 895 471 895 471 906.5 479 c 128,-1,43
 918 487 918 487 932 487 c 0,44,45
 955 487 955 487 971 470 c 128,-1,46
 987 453 987 453 987 430 c 256,47,48
 987 407 987 407 973 393 c 1,49,50
 916 309 916 309 823.5 258 c 128,-1,51
 731 207 731 207 616 203 c 1,52,-1
 610 203 l 1,53,-1
 606 49 l 2,54,55
 606 29 606 29 592 14.5 c 128,-1,56
 578 0 578 0 555 0 c 256,57,58
 532 0 532 0 518 15.5 c 128,-1,59
 504 31 504 31 504 53 c 2,60,-1
 508 211 l 1,61,62
 397 231 397 231 297 317 c 0,63,64
 215 387 215 387 184.5 470 c 128,-1,0
 154 553 154 553 152 632 c 128,-1,1
262 680 m 128,-1,66
 258 606 258 606 273.5 551 c 128,-1,67
 289 496 289 496 316.5 457.5 c 128,-1,68
 344 419 344 419 371 399 c 1,69,70
 406 366 406 366 441.5 348 c 128,-1,71
 477 330 477 330 512 319 c 1,72,-1
 532 1106 l 1,73,74
 493 1090 493 1090 457.5 1060 c 128,-1,75
 422 1030 422 1030 392 995.5 c 128,-1,76
 362 961 362 961 339.5 922 c 128,-1,77
 317 883 317 883 303 850 c 1,78,65
 266 754 266 754 262 680 c 128,-1,66
EndSplineSet
EndChar
StartChar: sterling
Encoding: 163 163 98
Width: 1523
GlyphClass: 2
Flags: W
LayerCount: 2
Back
Fore
SplineSet
131 725 m 256,0,1
 131 748 131 748 147.5 764 c 128,-1,2
 164 780 164 780 186 780 c 2,3,-1
 373 780 l 1,4,5
 316 1147 316 1147 449 1321 c 1,6,7
 574 1487 574 1487 872 1487 c 0,8,9
 972 1487 972 1487 1045 1451 c 128,-1,10
 1118 1415 1118 1415 1166 1361 c 128,-1,11
 1214 1307 1214 1307 1242 1242.5 c 128,-1,12
 1270 1178 1270 1178 1282 1120 c 2,13,-1
 1284 1110 l 1,14,15
 1286 1106 1286 1106 1286 1100 c 0,16,17
 1286 1077 1286 1077 1269.5 1060.5 c 128,-1,18
 1253 1044 1253 1044 1231 1044 c 0,19,20
 1208 1044 1208 1044 1194 1057.5 c 128,-1,21
 1180 1071 1180 1071 1176 1090 c 2,22,-1
 1174 1100 l 2,23,24
 1170 1125 1170 1125 1158.5 1155.5 c 128,-1,25
 1147 1186 1147 1186 1130 1221 c 1,26,27
 1048 1377 1048 1377 872 1376 c 1,28,29
 626 1376 626 1376 535 1253 c 0,30,31
 429 1108 429 1108 485 780 c 1,32,-1
 969 780 l 2,33,34
 992 780 992 780 1008 764 c 128,-1,35
 1024 748 1024 748 1024 725 c 256,36,37
 1024 702 1024 702 1007.5 686 c 128,-1,38
 991 670 991 670 969 670 c 2,39,-1
 506 670 l 1,40,41
 514 637 514 637 522 603 c 128,-1,42
 530 569 530 569 541 535 c 0,43,44
 559 474 559 474 554 401 c 128,-1,45
 549 328 549 328 522 254 c 0,46,47
 520 250 520 250 519 247 c 128,-1,48
 518 244 518 244 516 240 c 1,49,50
 680 289 680 289 809 193 c 1,51,52
 901 123 901 123 997.5 99.5 c 128,-1,53
 1094 76 1094 76 1165 106 c 1,54,55
 1257 143 1257 143 1284 266 c 1,56,-1
 1286 276 l 2,57,58
 1296 322 1296 322 1341 322 c 0,59,60
 1364 322 1364 322 1380.5 305.5 c 128,-1,61
 1397 289 1397 289 1397 266 c 0,62,63
 1397 258 1397 258 1395 254 c 1,64,-1
 1393 244 l 1,65,66
 1366 133 1366 133 1313 80 c 128,-1,67
 1260 27 1260 27 1208 4 c 1,68,69
 1147 -21 1147 -21 1077 -20 c 1,70,71
 997 -20 997 -20 910 11.5 c 128,-1,72
 823 43 823 43 741 104 c 0,73,74
 694 139 694 139 644 143 c 128,-1,75
 594 147 594 147 547 133 c 128,-1,76
 500 119 500 119 458 94.5 c 128,-1,77
 416 70 416 70 387 47 c 0,78,79
 383 43 383 43 378 38 c 128,-1,80
 373 33 373 33 367 29 c 0,81,82
 359 23 359 23 352 16 c 0,83,84
 336 0 336 0 313 0 c 256,85,86
 290 0 290 0 274 16.5 c 128,-1,87
 258 33 258 33 258 55 c 0,88,89
 258 84 258 84 281 100 c 1,90,91
 287 106 287 106 295 113 c 0,92,93
 301 117 301 117 306 122 c 128,-1,94
 311 127 311 127 315 131 c 0,95,96
 356 172 356 172 385 221 c 128,-1,97
 414 270 414 270 428 320.5 c 128,-1,98
 442 371 442 371 444 419 c 128,-1,99
 446 467 446 467 436 504 c 0,100,101
 411 592 411 592 393 670 c 1,102,-1
 186 670 l 2,103,104
 163 670 163 670 147 686 c 128,-1,105
 131 702 131 702 131 725 c 256,0,1
EndSplineSet
EndChar
StartChar: currency
Encoding: 164 164 205
Width: 517
Flags: MW
HStem: 44 21G<69.5 79.5 439 449.5> 91 51<241.5 277> 359 51<242 276.5 242 289> 441 20G<69 79.5 438.5 449>
VStem: 100 51<234 268.5> 368 51<234 268.5 234 281>
LayerCount: 2
Back
Fore
SplineSet
390 159 m 1
 460 88 l 2
 465 83 467 76 467 70 c 0
 467 57 457 44 442 44 c 0
 436 44 429 47 424 52 c 2
 354 122 l 1
 327 103 295 91 259 91 c 0
 224 91 191 103 165 122 c 1
 94 52 l 2
 90 47 83 44 76 44 c 0
 63 44 50 56 50 70 c 0
 50 76 53 83 58 88 c 2
 129 159 l 1
 111 185 100 217 100 251 c 0
 100 286 111 319 131 345 c 1
 58 418 l 2
 53 423 50 429 50 436 c 0
 50 450 62 461 76 461 c 0
 83 461 89 459 94 454 c 2
 167 381 l 1
 193 400 225 410 259 410 c 0
 294 410 326 400 352 381 c 1
 424 454 l 2
 429 459 435 461 442 461 c 0
 456 461 467 449 467 436 c 0
 467 429 465 423 460 418 c 2
 388 345 l 1
 407 319 419 286 419 251 c 0
 419 217 408 185 390 159 c 1
151 251 m 0
 151 191 200 142 259 142 c 0
 319 142 368 191 368 251 c 0
 368 311 319 359 259 359 c 0
 200 359 151 311 151 251 c 0
EndSplineSet
EndChar
StartChar: yen
Encoding: 165 165 80
Width: 573
Flags: MW
HStem: 0 188<131 283> 134 54<123.5 247 131 247 303 420> 288 54<123.5 226 131 226 131 247 326 420> 674 20G<464.5 476.5>
VStem: 104 199<20.5 168.5> 247 56<28 134 188 288> 247 200<28 168.5 134 168.5 153.5 288 153.5 288>
LayerCount: 2
Back
Fore
SplineSet
469 694 m 0xb8
 484 694 498 681 498 665 c 0
 498 661 497 656 495 652 c 2
 326 342 l 1
 420 342 l 2
 435 342 447 330 447 315 c 0xb2
 447 300 435 288 420 288 c 2
 303 288 l 1
 303 188 l 1xb8
 420 188 l 2
 435 188 447 176 447 161 c 0xb2
 447 146 435 134 420 134 c 2
 303 134 l 1x78
 303 28 l 2
 303 13 291 0 275 0 c 0xb8
 260 0 247 13 247 28 c 2
 247 134 l 1x74
 131 134 l 2
 116 134 104 146 104 161 c 0x78
 104 176 116 188 131 188 c 2
 247 188 l 1
 247 288 l 1xb4
 131 288 l 2
 116 288 104 300 104 315 c 0
 104 330 116 342 131 342 c 2
 226 342 l 1
 72 652 l 2
 70 656 69 660 69 664 c 0
 69 678 81 692 98 692 c 0
 108 692 117 687 122 677 c 2
 276 368 l 1
 445 679 l 2
 450 688 460 694 469 694 c 0xb8
EndSplineSet
EndChar
StartChar: section
Encoding: 167 167 125
Width: 457
Flags: MW
HStem: 0 53<201 277.5 201 285.5> 0 157<70.5 285.5> 486 158<213.5 386> 594 50<216.5 286.5>
VStem: 79 52<510.5 546.5 495.5 572.5> 351 52
LayerCount: 2
Back
Fore
SplineSet
403 284 m 0x9c
 403 262 396 239 382 218 c 1
 396 199 404 174 404 141 c 0
 404 74 338 0 233 0 c 0
 110 0 51 96 51 130 c 0
 51 145 63 157 78 157 c 0x6c
 91 157 100 149 103 138 c 0
 121 85 169 53 233 53 c 0
 322 53 351 110 351 147 c 0
 351 187 331 211 233 241 c 0
 127 273 80 311 80 382 c 0
 80 412 90 434 105 452 c 1
 88 472 79 496 79 525 c 0
 79 620 178 644 249 644 c 0
 350 644 404 600 404 532 c 0
 404 502 396 486 376 486 c 0xac
 358 486 349 499 349 513 c 0
 349 516 351 524 351 533 c 0
 351 570 321 594 252 594 c 0
 181 594 131 569 131 524 c 0
 131 467 198 448 238 436 c 0
 331 406 403 384 403 284 c 0x9c
132 381 m 0
 132 324 199 305 239 293 c 0
 278 281 314 269 342 253 c 1
 348 265 350 277 350 291 c 0
 350 350 290 364 219 389 c 0
 196 397 171 406 147 419 c 1
 137 408 132 396 132 381 c 0
EndSplineSet
EndChar
StartChar: dieresis
Encoding: 168 168 208
Width: 500
Flags: MW
HStem: 576 83<159 181.5 318 340.5>
VStem: 122 96<608 626.5> 281 96<608 626.5>
LayerCount: 2
Back
Fore
SplineSet
218 620 m 0
 218 596 196 576 167 576 c 0
 142 576 122 592 122 615 c 0
 122 638 145 659 173 659 c 0
 196 659 218 642 218 620 c 0
377 620 m 0
 377 596 355 576 326 576 c 0
 301 576 281 592 281 615 c 0
 281 638 304 659 332 659 c 0
 355 659 377 642 377 620 c 0
EndSplineSet
EndChar
StartChar: copyright
Encoding: 169 169 68
Width: 544
Flags: MW
HStem: 236 46<223.5 320.5 223.5 333> 348 46<247 278.5 247 293> 545 46<237.5 284> 644 46<223.5 320.5>
VStem: 50 46<413 513 413 525.5> 146 47<443 476.5 443 502.5> 448 46<413 513>
LayerCount: 2
Back
Fore
SplineSet
272 236 m 0
 150 236 50 338 50 463 c 0
 50 588 150 690 272 690 c 0
 394 690 494 588 494 463 c 0
 494 338 394 236 272 236 c 0
272 644 m 0
 175 644 96 563 96 463 c 0
 96 363 175 282 272 282 c 0
 369 282 448 363 448 463 c 0
 448 563 369 644 272 644 c 0
376 403 m 0
 357 376 322 348 264 348 c 0
 200 348 146 401 146 464 c 0
 146 541 197 591 274 591 c 0
 306 591 332 577 349 565 c 0
 357 558 361 552 361 544 c 0
 361 531 351 521 338 521 c 0
 332 521 327 523 321 528 c 0
 311 536 294 545 274 545 c 0
 201 545 193 489 193 464 c 0
 193 422 230 394 264 394 c 0
 293 394 325 405 336 427 c 0
 343 439 351 443 359 443 c 0
 372 443 382 433 382 420 c 0
 382 416 381 412 376 403 c 0
EndSplineSet
EndChar
StartChar: ordfeminine
Encoding: 170 170 129
Width: 250
Flags: MW
HStem: 342 21G<218.5 231.5> 347 49<94.5 137.5 94.5 137.5> 618 50<115 159.5>
VStem: 0 50<465 512.5 465 526> 200 49
LayerCount: 2
Back
Fore
SplineSet
225 342 m 0xb8
 212 342 200 354 200 369 c 1
 175 358 157 347 118 347 c 0x78
 50 347 0 405 0 483 c 0
 0 569 52 668 147 668 c 0
 191 668 234 651 249 639 c 1
 250 367 l 2
 250 354 238 342 225 342 c 0xb8
151 618 m 0
 79 618 50 540 50 485 c 0
 50 445 70 396 119 396 c 0x78
 156 396 190 421 199 427 c 1
 202 609 l 1
 193 614 168 618 151 618 c 0
EndSplineSet
EndChar
StartChar: guillemotleft
Encoding: 171 171 101
Width: 1210
GlyphClass: 2
Flags: W
LayerCount: 2
Back
Fore
SplineSet
139 512 m 1,0,1
 139 483 139 483 158 469 c 1,2,-1
 492 170 l 2,3,4
 508 156 508 156 531 156 c 0,5,6
 556 156 556 156 574 174 c 0,7,8
 590 190 590 190 588 214 c 128,-1,9
 586 238 586 238 570 254 c 1,10,-1
 283 510 l 1,11,-1
 600 786 l 2,12,13
 618 802 618 802 620.5 826 c 128,-1,14
 623 850 623 850 606 866 c 1,15,16
 590 884 590 884 566.5 886.5 c 128,-1,17
 543 889 543 889 527 872 c 1,18,-1
 158 555 l 2,19,20
 140 539 140 539 139 512 c 1,0,1
559 512 m 1,21,22
 559 483 559 483 578 469 c 1,23,-1
 912 170 l 2,24,25
 927 156 927 156 950 156 c 0,26,27
 975 156 975 156 993 174 c 0,28,29
 1009 190 1009 190 1007.5 214 c 128,-1,30
 1006 238 1006 238 989 254 c 2,31,-1
 703 510 l 1,32,-1
 1020 786 l 2,33,34
 1038 802 1038 802 1040.5 826 c 128,-1,35
 1043 850 1043 850 1026 866 c 1,36,37
 1010 884 1010 884 986.5 886.5 c 128,-1,38
 963 889 963 889 946 872 c 1,39,-1
 578 555 l 2,40,41
 560 539 560 539 559 512 c 1,21,22
EndSplineSet
EndChar
StartChar: logicalnot
Encoding: 172 172 139
Width: 480
Flags: MW
HStem: 125 21G<387 401> 278 51<58 394 65 369>
VStem: 368 51<143 150>
LayerCount: 2
Back
Fore
SplineSet
394 125 m 0
 380 125 368 136 368 150 c 2
 369 278 l 1
 65 278 l 2
 51 278 40 289 40 303 c 0
 40 317 51 329 65 329 c 2
 394 329 l 2
 407 329 420 319 420 303 c 2
 419 150 l 2
 419 136 408 125 394 125 c 0
EndSplineSet
EndChar
StartChar: uni00AD
Encoding: 173 173 141
Width: 441
Flags: MW
HStem: 223 54<91 345 98 345>
LayerCount: 2
Back
Fore
SplineSet
345 223 m 2
 98 223 l 2
 84 223 71 236 71 250 c 0
 71 265 84 277 98 277 c 2
 345 277 l 2
 360 277 372 265 372 250 c 0
 372 236 360 223 345 223 c 2
EndSplineSet
EndChar
StartChar: registered
Encoding: 174 174 103
Width: 1179
GlyphClass: 2
Flags: W
LayerCount: 2
Back
Fore
SplineSet
131 948 m 256,0,1
 131 1044 131 1044 167 1129 c 128,-1,2
 203 1214 203 1214 264.5 1276.5 c 128,-1,3
 326 1339 326 1339 409 1376 c 128,-1,4
 492 1413 492 1413 586 1413 c 256,5,6
 680 1413 680 1413 763 1376 c 128,-1,7
 846 1339 846 1339 907.5 1276.5 c 128,-1,8
 969 1214 969 1214 1004.5 1129 c 128,-1,9
 1040 1044 1040 1044 1040 948 c 256,10,11
 1040 852 1040 852 1004.5 767 c 128,-1,12
 969 682 969 682 907.5 619.5 c 128,-1,13
 846 557 846 557 763 520 c 128,-1,14
 680 483 680 483 586 483 c 256,15,16
 492 483 492 483 409 520 c 128,-1,17
 326 557 326 557 264.5 619.5 c 128,-1,18
 203 682 203 682 167 767 c 128,-1,19
 131 852 131 852 131 948 c 256,0,1
225 948 m 0,20,21
 225 870 225 870 254 803.5 c 128,-1,22
 283 737 283 737 332 686 c 128,-1,23
 381 635 381 635 446.5 606.5 c 128,-1,24
 512 578 512 578 586 578 c 256,25,26
 660 578 660 578 725.5 606.5 c 128,-1,27
 791 635 791 635 840 686 c 128,-1,28
 889 737 889 737 917.5 803.5 c 128,-1,29
 946 870 946 870 946 948 c 0,30,31
 946 1024 946 1024 917.5 1091.5 c 128,-1,32
 889 1159 889 1159 840 1210.5 c 128,-1,33
 791 1262 791 1262 725.5 1290.5 c 128,-1,34
 660 1319 660 1319 586 1319 c 256,35,36
 512 1319 512 1319 446.5 1290.5 c 128,-1,37
 381 1262 381 1262 332 1210.5 c 128,-1,38
 283 1159 283 1159 254 1091.5 c 128,-1,39
 225 1024 225 1024 225 948 c 0,20,21
371 784 m 1,40,41
 375 768 375 768 387 755.5 c 128,-1,42
 399 743 399 743 418 743 c 0,43,44
 436 743 436 743 449.5 755.5 c 128,-1,45
 463 768 463 768 465 786 c 2,46,-1
 467 801 l 1,47,-1
 483 895 l 1,48,-1
 680 760 l 1,49,-1
 694 750 l 1,50,51
 702 742 702 742 721 741 c 1,52,53
 741 741 741 741 754.5 754.5 c 128,-1,54
 768 768 768 768 768 788 c 0,55,56
 768 815 768 815 745 827 c 1,57,-1
 737 836 l 1,58,-1
 618 915 l 1,59,60
 655 923 655 923 691 934.5 c 128,-1,61
 727 946 727 946 756.5 964.5 c 128,-1,62
 786 983 786 983 804.5 1007.5 c 128,-1,63
 823 1032 823 1032 823 1065 c 0,64,65
 823 1120 823 1120 782 1155 c 1,66,67
 727 1204 727 1204 588 1208 c 1,68,69
 541 1208 541 1208 507 1205 c 128,-1,70
 473 1202 473 1202 471 1202 c 0,71,72
 436 1196 436 1196 430 1161 c 2,73,-1
 375 817 l 1,74,-1
 371 799 l 1,75,-1
 371 784 l 1,40,41
500 993 m 1,76,-1
 518 1112 l 1,77,78
 573 1116 573 1116 633.5 1111 c 128,-1,79
 694 1106 694 1106 721 1083 c 0,80,81
 729 1077 729 1077 729 1065 c 0,82,83
 729 1049 729 1049 662.5 1026 c 128,-1,84
 596 1003 596 1003 500 993 c 1,76,-1
EndSplineSet
EndChar
StartChar: macron
Encoding: 175 175 146
Width: 500
Flags: MW
HStem: 600 51<138 354 145 354>
LayerCount: 2
Back
Fore
SplineSet
354 600 m 2
 145 600 l 2
 131 600 120 612 120 626 c 0
 120 640 131 651 145 651 c 2
 354 651 l 2
 368 651 379 640 379 626 c 0
 379 612 368 600 354 600 c 2
EndSplineSet
EndChar
StartChar: degree
Encoding: 176 176 104
Width: 815
GlyphClass: 2
Flags: W
LayerCount: 2
Back
Fore
SplineSet
135 1296 m 0,0,1
 135 1353 135 1353 156.5 1402.5 c 128,-1,2
 178 1452 178 1452 215 1489 c 128,-1,3
 252 1526 252 1526 302 1547.5 c 128,-1,4
 352 1569 352 1569 408 1569 c 0,5,6
 463 1569 463 1569 513 1547.5 c 128,-1,7
 563 1526 563 1526 600 1489 c 128,-1,8
 637 1452 637 1452 658.5 1403 c 128,-1,9
 680 1354 680 1354 680 1296 c 0,10,11
 680 1241 680 1241 658.5 1191 c 128,-1,12
 637 1141 637 1141 600 1104 c 128,-1,13
 563 1067 563 1067 513 1045.5 c 128,-1,14
 463 1024 463 1024 408 1024 c 256,15,16
 353 1024 353 1024 302.5 1045.5 c 128,-1,17
 252 1067 252 1067 215 1104 c 128,-1,18
 178 1141 178 1141 156.5 1191 c 128,-1,19
 135 1241 135 1241 135 1296 c 0,0,1
250 1296 m 256,20,21
 250 1230 250 1230 296 1184.5 c 128,-1,22
 342 1139 342 1139 408 1139 c 256,23,24
 474 1139 474 1139 519.5 1185 c 128,-1,25
 565 1231 565 1231 565 1296 c 0,26,27
 565 1362 565 1362 519.5 1408 c 128,-1,28
 474 1454 474 1454 408 1454 c 256,29,30
 342 1454 342 1454 296 1408 c 128,-1,31
 250 1362 250 1362 250 1296 c 256,20,21
EndSplineSet
EndChar
StartChar: plusminus
Encoding: 177 177 140
Width: 441
Flags: MW
HStem: -1 53<93.5 339 100 339> 136 187<84 226.5> 270 53<76.5 193 84 193 246 356> 270 177<76.5 227.5 84 227.5 211.5 356 211.5 246>
VStem: 193 53<162 270 323 421> 193 189<162 303.5 270 303.5 289 421 289 427.5>
LayerCount: 2
Back
Fore
SplineSet
58 296 m 0xa8
 58 310 70 323 84 323 c 2
 193 323 l 1xc8
 193 421 l 2
 193 434 203 447 220 447 c 0x98
 235 447 246 434 246 421 c 2
 246 323 l 1xc8
 356 323 l 2
 369 323 382 311 382 296 c 0xc4
 382 282 369 270 356 270 c 2
 246 270 l 1xa8
 246 162 l 2
 246 148 233 136 220 136 c 0xc8
 205 136 193 149 193 162 c 2
 193 270 l 1
 84 270 l 2
 69 270 59 283 58 296 c 0xa8
74 26 m 0
 74 41 87 52 100 52 c 2
 339 52 l 2
 353 52 365 40 365 26 c 0
 365 10 353 -1 339 -1 c 2
 100 -1 l 2
 87 -1 74 9 74 26 c 0
EndSplineSet
EndChar
StartChar: twosuperior
Encoding: 178 178 142
Width: 240
Flags: MW
HStem: 443 47<51 212 51 212> 780 46<102.5 139.5>
VStem: 3 48<443 515.5 490 515.5 490 515.5> 184 46<712.5 741>
LayerCount: 2
Back
Fore
SplineSet
212 443 m 2
 3 443 l 1
 3 466 l 2
 3 565 49 603 144 663 c 0
 168 678 184 698 184 727 c 0
 184 755 159 780 120 780 c 0
 85 780 60 759 50 748 c 0
 38 735 34 730 23 730 c 0
 12 730 0 742 0 753 c 0
 0 759 1 763 6 769 c 0
 21 788 65 826 119 826 c 0
 176 826 230 790 230 727 c 0
 230 664 185 632 142 606 c 0
 100 580 51 541 51 490 c 1
 212 490 l 2
 222 490 235 481 235 466 c 0
 235 454 223 443 212 443 c 2
EndSplineSet
EndChar
StartChar: threesuperior
Encoding: 179 179 143
Width: 236
Flags: MW
HStem: 440 46<100.5 130 100.5 147.5> 440 242 783 47<94.5 127.5>
VStem: 16 220<524 791.5> 83 153<524 666.5> 181 55
LayerCount: 2
Back
Fore
SplineSet
116 440 m 0x64
 54 440 19 476 4 502 c 0
 1 507 0 513 0 516 c 0
 0 528 9 540 22 540 c 0x70
 35 540 42 530 44 526 c 0
 61 499 85 486 116 486 c 0
 144 486 189 505 189 560 c 0
 189 598 167 630 105 635 c 0
 92 636 83 646 83 658 c 0xa8
 83 675 92 681 105 682 c 0
 137 684 181 703 181 740 c 0x64
 181 771 140 783 115 783 c 0
 74 783 64 770 54 762 c 0
 50 759 45 757 39 757 c 0
 28 757 16 765 16 780 c 0xb0
 16 803 61 830 115 830 c 0
 171 830 227 797 227 740 c 0
 227 710 211 678 181 660 c 1
 217 639 236 603 236 560 c 0
 236 488 179 440 116 440 c 0x64
EndSplineSet
EndChar
StartChar: acute
Encoding: 180 180 216
Width: 500
Flags: MW
HStem: 563 21G<171 181> 705 20G<307.5 322.5>
LayerCount: 2
Back
Fore
SplineSet
337 666 m 2
 199 572 l 2
 192 567 184 563 178 563 c 0
 164 563 152 575 152 590 c 0
 152 596 153 603 158 607 c 2
 284 710 l 2
 292 717 302 725 313 725 c 0
 332 725 347 709 347 689 c 0
 347 680 344 671 337 666 c 2
EndSplineSet
EndChar
StartChar: mu
Encoding: 181 181 148
Width: 500
Flags: MW
HStem: -181 227<119.5 250.5> -3 49<190 250.5 176 254.5> 0 21G<406.5 424> 480 20G<97 111.5 413 427>
VStem: 65 54 80 52 391 55
LayerCount: 2
Back
Fore
SplineSet
65 256 m 0x3a
 63 333 72 428 77 466 c 0
 81 495 90 500 104 500 c 0
 119 500 133 489 132 474 c 0x96
 130 450 119 384 119 292 c 0
 119 106 136 46 216 46 c 0x9a
 285 46 355 94 376 118 c 0
 389 133 389 161 389 161 c 1
 394 475 l 2
 394 490 406 500 420 500 c 0
 434 500 446 490 446 475 c 2
 446 28 l 2
 446 13 432 0 416 0 c 0x3a
 397 0 385 15 385 33 c 2
 385 76 l 1
 360 40 293 -3 216 -3 c 0x5a
 164 -3 132 18 132 18 c 1
 135 -26 144 -101 152 -149 c 0
 155 -164 146 -181 126 -181 c 0x96
 113 -181 101 -172 99 -159 c 0
 93 -122 86 -83 80 0 c 0x36
 77 41 68 158 65 256 c 0x3a
EndSplineSet
EndChar
StartChar: paragraph
Encoding: 182 182 106
Width: 559
Flags: MW
HStem: -80 21G<266 280.5> -79 21G<378 392.5>
VStem: 426 56
LayerCount: 2
Back
Fore
SplineSet
482 714 m 0x60
 489 440 459 182 413 -57 c 0
 410 -70 399 -79 386 -79 c 0
 370 -79 356 -65 359 -47 c 0
 399 168 433 414 426 712 c 0
 425 728 437 740 453 741 c 0
 468 741 481 729 482 714 c 0x60
368 729 m 1
 378 452 347 171 301 -58 c 0x60
 298 -71 287 -80 274 -80 c 0xa0
 258 -80 241 -64 246 -46 c 0
 267 29 297 270 302 349 c 1
 283 349 l 2
 173 349 69 399 69 526 c 0
 69 671 222 756 381 786 c 0
 396 789 408 774 408 759 c 0
 408 746 398 734 387 732 c 2
 368 729 l 1
EndSplineSet
EndChar
StartChar: periodcentered
Encoding: 183 183 149
Width: 172
Flags: MW
HStem: 210 83<79.5 92.5>
VStem: 50 72<244 259.5>
LayerCount: 2
Back
Fore
SplineSet
82 210 m 0
 63 210 50 227 50 248 c 0
 50 271 69 293 90 293 c 0
 108 293 122 277 122 257 c 0
 122 231 103 210 82 210 c 0
EndSplineSet
EndChar
StartChar: cedilla
Encoding: 184 184 220
Width: 500
Flags: MW
HStem: -201 42<232.5 257.5 232.5 269> -61 42<236.5 257.5> 22 20G<215.5 235>
VStem: 165 170<-162.5 -86> 293 42<-123.5 -96.5>
LayerCount: 2
Back
Fore
SplineSet
244 -201 m 0xe8
 212 -201 165 -179 165 -146 c 0xf0
 165 -138 174 -128 186 -128 c 0
 194 -128 199 -133 204 -139 c 0
 212 -148 221 -159 244 -159 c 0
 271 -159 293 -137 293 -110 c 0
 293 -83 271 -61 244 -61 c 0
 229 -61 220 -67 213 -71 c 0
 209 -74 205 -76 201 -76 c 0
 190 -76 180 -68 180 -56 c 0
 180 -50 182 -43 186 -33 c 0
 209 30 209 42 222 42 c 0
 230 42 236 38 235 22 c 2
 233 -19 l 1
 301 -19 335 -62 335 -110 c 0
 335 -160 294 -201 244 -201 c 0xe8
EndSplineSet
EndChar
StartChar: onesuperior
Encoding: 185 185 147
Width: 166
Flags: MW
HStem: 444 46<17 65 25 65 111 143> 809 20G<89 98.5>
VStem: 0 113 67 46 67 99
LayerCount: 2
Back
Fore
SplineSet
143 444 m 2xd0
 25 444 l 2
 9 444 2 455 2 467 c 0
 2 481 13 490 25 490 c 2
 65 490 l 1
 69 745 l 1
 40 714 l 2
 35 709 30 707 22 707 c 0
 12 707 0 716 0 729 c 0xe0
 0 735 2 741 6 746 c 2
 75 821 l 2
 80 826 86 829 92 829 c 0
 105 829 116 817 116 805 c 2
 111 490 l 1
 143 490 l 2
 155 490 166 479 166 467 c 0xc8
 166 452 154 444 143 444 c 2xd0
EndSplineSet
EndChar
StartChar: ordmasculine
Encoding: 186 186 128
Width: 277
Flags: MW
HStem: 347 45<106.5 152.5 106.5 179> 618 45<121 168>
VStem: 0 51<466.5 528 466.5 531.5> 226 51<482 541>
LayerCount: 2
Back
Fore
SplineSet
129 347 m 0
 60 347 0 409 0 491 c 0
 0 572 56 663 148 663 c 0
 217 663 277 604 277 515 c 0
 277 449 229 347 129 347 c 0
145 618 m 0
 97 618 51 562 51 494 c 0
 51 439 84 392 129 392 c 0
 176 392 226 444 226 515 c 0
 226 567 191 618 145 618 c 0
EndSplineSet
EndChar
StartChar: guillemotright
Encoding: 187 187 106
Width: 1210
GlyphClass: 2
Flags: W
LayerCount: 2
Back
Fore
SplineSet
145.5 826 m 128,-1,1
 143 850 143 850 160 866 c 1,2,3
 176 884 176 884 199.5 886.5 c 128,-1,4
 223 889 223 889 240 872 c 1,5,-1
 608 555 l 2,6,7
 626 539 626 539 627 512 c 1,8,9
 627 483 627 483 608 469 c 1,10,-1
 274 170 l 2,11,12
 259 156 259 156 236 156 c 0,13,14
 211 156 211 156 193 174 c 0,15,16
 177 190 177 190 178.5 214 c 128,-1,17
 180 238 180 238 197 254 c 2,18,-1
 483 510 l 1,19,-1
 166 786 l 2,20,0
 148 802 148 802 145.5 826 c 128,-1,1
565.5 826 m 128,-1,22
 563 850 563 850 580 866 c 1,23,24
 596 884 596 884 619.5 886.5 c 128,-1,25
 643 889 643 889 659 872 c 1,26,-1
 1028 555 l 2,27,28
 1046 539 1046 539 1047 512 c 1,29,30
 1047 483 1047 483 1028 469 c 1,31,-1
 694 170 l 2,32,33
 678 156 678 156 655 156 c 0,34,35
 630 156 630 156 612 174 c 0,36,37
 596 190 596 190 598 214 c 128,-1,38
 600 238 600 238 616 254 c 1,39,-1
 903 510 l 1,40,-1
 586 786 l 2,41,21
 568 802 568 802 565.5 826 c 128,-1,22
EndSplineSet
EndChar
StartChar: questiondown
Encoding: 191 191 115
Width: 533
Flags: MW
HStem: -187 52<215 306 215 310> 421 80<348.5 361.5>
VStem: 65 51<-21.5 53 -21.5 65.5> 319 71<452.5 468>
LayerCount: 2
Back
Fore
SplineSet
306 323 m 0
 311 328 318 332 325 332 c 0
 340 332 352 320 352 305 c 0
 352 297 348 291 342 286 c 0
 322 269 268 221 222 178 c 0
 175 135 116 91 116 15 c 0
 116 -58 158 -135 272 -135 c 0
 340 -135 382 -97 412 -63 c 0
 416 -59 423 -55 429 -55 c 0
 444 -55 457 -65 457 -81 c 0
 457 -91 448 -102 436 -115 c 0
 404 -150 348 -187 272 -187 c 0
 151 -187 65 -108 65 15 c 0
 65 116 138 176 189 220 c 0
 233 257 284 304 306 323 c 0
359 501 m 0
 378 501 390 485 390 464 c 0
 390 441 372 421 351 421 c 0
 333 421 319 435 319 455 c 0
 319 481 338 501 359 501 c 0
EndSplineSet
EndChar
StartChar: Agrave
Encoding: 192 192 152
Width: 624
Flags: MW
HStem: -1 21G<539 553.5> 0 21G<70.5 84.5> 669 20G<322 333.5> 885 20G<244 258.5>
LayerCount: 2
Back
Fore
SplineSet
347 725 m 2x70
 229 846 l 2
 222 853 218 861 218 871 c 0
 218 889 235 905 253 905 c 0
 264 905 275 898 282 890 c 2
 387 760 l 2
 392 753 394 748 394 742 c 0
 394 727 380 716 366 716 c 0
 358 716 352 720 347 725 c 2x70
354 670 m 2
 572 37 l 2
 573 34 573 31 573 28 c 0
 573 13 562 -1 545 -1 c 0xb0
 533 -1 522 6 518 18 c 2
 434 262 l 1
 179 206 l 1
 105 18 l 2
 101 7 90 0 79 0 c 0
 62 0 50 15 50 29 c 0
 50 32 51 36 52 39 c 2
 112 192 l 1
 96 188 94 188 92 188 c 0
 76 188 63 200 63 217 c 0
 63 230 72 241 85 244 c 2
 137 256 l 1
 300 671 l 2
 305 682 316 689 328 689 c 0
 339 689 350 681 354 670 c 2
204 270 m 1
 415 316 l 1
 325 578 l 1
 204 270 l 1
EndSplineSet
EndChar
StartChar: Acircumflex
Encoding: 194 194 154
Width: 624
Flags: MW
HStem: -1 21G<539 553.5> 0 21G<70.5 84.5> 669 20G<322 333.5> 875 20G<333 339.5>
LayerCount: 2
Back
Fore
SplineSet
356 887 m 2x70
 466 777 l 2
 472 772 475 765 475 757 c 0
 475 743 463 731 449 731 c 0
 442 731 435 733 430 738 c 2
 334 825 l 1
 219 736 l 2
 214 732 208 731 202 731 c 0
 188 731 176 742 176 757 c 0
 176 765 179 773 186 778 c 2
 317 888 l 2
 323 893 330 895 336 895 c 0
 343 895 350 892 356 887 c 2x70
354 670 m 2
 572 37 l 2
 573 34 573 31 573 28 c 0
 573 13 562 -1 545 -1 c 0xb0
 533 -1 522 6 518 18 c 2
 434 262 l 1
 179 206 l 1
 105 18 l 2
 101 7 90 0 79 0 c 0
 62 0 50 15 50 29 c 0
 50 32 51 36 52 39 c 2
 112 192 l 1
 96 188 94 188 92 188 c 0
 76 188 63 200 63 217 c 0
 63 230 72 241 85 244 c 2
 137 256 l 1
 300 671 l 2
 305 682 316 689 328 689 c 0
 339 689 350 681 354 670 c 2
204 270 m 1
 415 316 l 1
 325 578 l 1
 204 270 l 1
EndSplineSet
EndChar
StartChar: Atilde
Encoding: 195 195 155
Width: 624
Flags: MW
HStem: -1 21G<539 553.5> 0 21G<70.5 84.5> 669 20G<322 333.5> 713 42<383.5 407 383.5 424.5> 821 42<249.5 264.5>
LayerCount: 2
Back
Fore
SplineSet
452 833 m 0x78
 456 843 466 850 476 850 c 0
 490 850 502 839 502 826 c 0
 502 821 501 818 499 812 c 0
 488 781 457 713 392 713 c 0
 347 713 323 745 303 773 c 0
 284 799 273 821 256 821 c 0
 243 821 217 804 201 755 c 0
 197 742 188 736 176 736 c 0
 162 736 150 747 150 761 c 0
 150 776 160 793 166 804 c 0
 188 842 219 863 256 863 c 0
 301 863 325 830 345 803 c 0
 364 777 375 755 392 755 c 0
 422 755 441 804 452 833 c 0x78
354 670 m 2
 572 37 l 2
 573 34 573 31 573 28 c 0
 573 13 562 -1 545 -1 c 0xb8
 533 -1 522 6 518 18 c 2
 434 262 l 1
 179 206 l 1
 105 18 l 2
 101 7 90 0 79 0 c 0
 62 0 50 15 50 29 c 0
 50 32 51 36 52 39 c 2
 112 192 l 1
 96 188 94 188 92 188 c 0
 76 188 63 200 63 217 c 0
 63 230 72 241 85 244 c 2
 137 256 l 1
 300 671 l 2
 305 682 316 689 328 689 c 0
 339 689 350 681 354 670 c 2
204 270 m 1
 415 316 l 1
 325 578 l 1
 204 270 l 1
EndSplineSet
EndChar
StartChar: Adieresis
Encoding: 196 196 156
Width: 624
Flags: MW
HStem: -1 21G<539 553.5> 0 21G<70.5 84.5> 669 20G<322 333.5> 733 83<235 257.5 394 416.5>
VStem: 198 96<765 783.5> 357 96<765 783.5>
LayerCount: 2
Back
Fore
SplineSet
294 777 m 0x7c
 294 753 272 733 243 733 c 0
 218 733 198 749 198 772 c 0
 198 795 221 816 249 816 c 0
 272 816 294 799 294 777 c 0x7c
453 777 m 0
 453 753 431 733 402 733 c 0
 377 733 357 749 357 772 c 0
 357 795 380 816 408 816 c 0
 431 816 453 799 453 777 c 0
354 670 m 2
 572 37 l 2
 573 34 573 31 573 28 c 0
 573 13 562 -1 545 -1 c 0xbc
 533 -1 522 6 518 18 c 2
 434 262 l 1
 179 206 l 1
 105 18 l 2
 101 7 90 0 79 0 c 0
 62 0 50 15 50 29 c 0
 50 32 51 36 52 39 c 2
 112 192 l 1
 96 188 94 188 92 188 c 0
 76 188 63 200 63 217 c 0
 63 230 72 241 85 244 c 2
 137 256 l 1
 300 671 l 2
 305 682 316 689 328 689 c 0
 339 689 350 681 354 670 c 2
204 270 m 1
 415 316 l 1
 325 578 l 1
 204 270 l 1
EndSplineSet
EndChar
StartChar: AE
Encoding: 198 198 120
Width: 1040
Flags: MW
HStem: -3 21G<70 81> 0 54<516.5 953 551 953 551 953> 309 55<903 910.5> 627 54<551 953 551 551>
VStem: 497 54<54 54 54 304 304 304 364 569 569 569>
LayerCount: 2
Back
Fore
SplineSet
551 54 m 1x78
 953 54 l 2
 969 54 980 43 980 27 c 0
 980 12 969 0 953 0 c 2
 524 0 l 2x78
 509 0 497 12 497 27 c 2
 497 304 l 1
 276 258 l 1
 99 8 l 2
 94 1 85 -3 77 -3 c 0xb8
 63 -3 50 10 50 23 c 0
 50 29 51 34 55 39 c 2
 199 243 l 1
 180 239 l 2
 165 236 152 251 152 267 c 0
 152 280 161 290 175 293 c 2
 245 307 l 1
 502 670 l 2
 505 675 512 681 521 681 c 2
 953 681 l 2
 969 681 980 670 980 654 c 0
 980 640 969 627 953 627 c 2
 551 627 l 1
 551 364 l 1
 903 364 l 2
 918 364 930 351 930 337 c 0
 930 321 918 309 903 309 c 2
 551 310 l 1
 551 54 l 1x78
323 323 m 1
 497 359 l 1
 497 569 l 1
 323 323 l 1
EndSplineSet
EndChar
StartChar: Ccedilla
Encoding: 199 199 158
Width: 632
Flags: MW
HStem: -201 42<310.5 335.5 310.5 347> -61 42<314.5 335.5> -2 57<333.5 374 293 386> 538 121<511.5 525 511.5 525> 627 32 627 57<290 380.5 277 388.5>
VStem: 50 57<222 378 210 398> 243 170<-162.5 -86> 371 42<-123.5 -96.5>
LayerCount: 2
Back
Fore
SplineSet
264 -33 m 0xf280
 269 -17 274 -5 277 4 c 1
 148 32 50 148 50 296 c 0
 50 500 208 684 346 684 c 0xe7
 415 684 461 664 492 644 c 1
 496 653 506 659 517 659 c 0
 533 659 545 647 545 631 c 2
 545 567 l 2
 545 551 533 538 517 538 c 0xf3
 501 538 488 551 488 567 c 2
 488 572 l 1
 468 593 431 627 346 627 c 0
 234 627 107 460 107 296 c 0
 107 124 248 55 338 55 c 0
 410 55 477 81 530 150 c 0
 537 159 544 161 552 161 c 0
 567 161 581 151 581 133 c 0
 581 127 580 121 576 116 c 0
 519 40 434 -2 338 -2 c 0
 329 -2 320 -2 312 -1 c 1
 311 -19 l 1
 379 -19 413 -62 413 -110 c 0
 413 -160 372 -201 322 -201 c 0
 290 -201 243 -179 243 -146 c 0xeb
 243 -138 252 -128 264 -128 c 0
 272 -128 277 -133 282 -139 c 0
 290 -148 299 -159 322 -159 c 0
 349 -159 371 -137 371 -110 c 0
 371 -83 349 -61 322 -61 c 0
 307 -61 298 -67 291 -71 c 0
 287 -74 283 -76 279 -76 c 0
 268 -76 258 -68 258 -56 c 0
 258 -50 260 -43 264 -33 c 0xf280
EndSplineSet
EndChar
StartChar: Egrave
Encoding: 200 200 159
Width: 610
Flags: MW
HStem: 0 57<86 520 122 520 122 520> 324 57<122 473 122 473> 625 57<122 522 122 122> 885 20G<217 231.5>
VStem: 65 57<57 57 57 324 381 625>
LayerCount: 2
Back
Fore
SplineSet
320 725 m 2
 202 846 l 2
 195 853 191 861 191 871 c 0
 191 889 208 905 226 905 c 0
 237 905 248 898 255 890 c 2
 360 760 l 2
 365 753 367 748 367 742 c 0
 367 727 353 716 339 716 c 0
 331 716 325 720 320 725 c 2
122 57 m 1
 520 57 l 2
 536 57 548 45 548 29 c 0
 548 13 536 0 520 0 c 2
 94 0 l 2
 78 0 65 13 65 29 c 2
 65 654 l 2
 65 670 78 682 94 682 c 2
 522 682 l 2
 538 682 550 670 550 654 c 0
 550 638 538 625 522 625 c 2
 122 625 l 1
 122 381 l 1
 473 381 l 2
 489 381 501 369 501 353 c 0
 501 337 489 324 473 324 c 2
 122 324 l 1
 122 57 l 1
EndSplineSet
EndChar
StartChar: Eacute
Encoding: 201 201 160
Width: 610
Flags: MW
HStem: 0 57<86 520 122 520 122 520> 324 57<122 473 122 473> 625 57<122 522 122 122> 874 20G<370.5 385.5>
VStem: 65 57<57 57 57 324 381 625>
LayerCount: 2
Back
Fore
SplineSet
400 835 m 2
 262 741 l 2
 255 736 247 732 241 732 c 0
 227 732 215 744 215 759 c 0
 215 765 216 772 221 776 c 2
 347 879 l 2
 355 886 365 894 376 894 c 0
 395 894 410 878 410 858 c 0
 410 849 407 840 400 835 c 2
122 57 m 1
 520 57 l 2
 536 57 548 45 548 29 c 0
 548 13 536 0 520 0 c 2
 94 0 l 2
 78 0 65 13 65 29 c 2
 65 654 l 2
 65 670 78 682 94 682 c 2
 522 682 l 2
 538 682 550 670 550 654 c 0
 550 638 538 625 522 625 c 2
 122 625 l 1
 122 381 l 1
 473 381 l 2
 489 381 501 369 501 353 c 0
 501 337 489 324 473 324 c 2
 122 324 l 1
 122 57 l 1
EndSplineSet
EndChar
StartChar: Ecircumflex
Encoding: 202 202 161
Width: 610
Flags: MW
HStem: 0 57<86 520 122 520 122 520> 324 57<122 473 122 473> 625 57<122 522 122 122> 682 49<187 197 437.5 448> 875 20G<325 331.5>
VStem: 65 57<57 57 57 324 381 625>
LayerCount: 2
Back
Fore
SplineSet
348 887 m 2xdc
 458 777 l 2
 464 772 467 765 467 757 c 0
 467 743 455 731 441 731 c 0
 434 731 427 733 422 738 c 2
 326 825 l 1
 211 736 l 2
 206 732 200 731 194 731 c 0
 180 731 168 742 168 757 c 0
 168 765 171 773 178 778 c 2
 309 888 l 2
 315 893 322 895 328 895 c 0
 335 895 342 892 348 887 c 2xdc
122 57 m 1
 520 57 l 2
 536 57 548 45 548 29 c 0
 548 13 536 0 520 0 c 2
 94 0 l 2
 78 0 65 13 65 29 c 2
 65 654 l 2
 65 670 78 682 94 682 c 2
 522 682 l 2
 538 682 550 670 550 654 c 0
 550 638 538 625 522 625 c 2
 122 625 l 1xec
 122 381 l 1
 473 381 l 2
 489 381 501 369 501 353 c 0
 501 337 489 324 473 324 c 2
 122 324 l 1
 122 57 l 1
EndSplineSet
EndChar
StartChar: Edieresis
Encoding: 203 203 162
Width: 610
Flags: MW
HStem: 0 57<86 520 122 520 122 520> 324 57<122 473 122 473> 625 57<122 522 122 122> 733 83<222 244.5 381 403.5>
VStem: 65 57<57 57 57 324 381 625> 185 96<765 783.5> 344 96<765 783.5>
LayerCount: 2
Back
Fore
SplineSet
281 777 m 0
 281 753 259 733 230 733 c 0
 205 733 185 749 185 772 c 0
 185 795 208 816 236 816 c 0
 259 816 281 799 281 777 c 0
440 777 m 0
 440 753 418 733 389 733 c 0
 364 733 344 749 344 772 c 0
 344 795 367 816 395 816 c 0
 418 816 440 799 440 777 c 0
122 57 m 1
 520 57 l 2
 536 57 548 45 548 29 c 0
 548 13 536 0 520 0 c 2
 94 0 l 2
 78 0 65 13 65 29 c 2
 65 654 l 2
 65 670 78 682 94 682 c 2
 522 682 l 2
 538 682 550 670 550 654 c 0
 550 638 538 625 522 625 c 2
 122 625 l 1
 122 381 l 1
 473 381 l 2
 489 381 501 369 501 353 c 0
 501 337 489 324 473 324 c 2
 122 324 l 1
 122 57 l 1
EndSplineSet
EndChar
StartChar: Igrave
Encoding: 204 204 163
Width: 433
Flags: MW
HStem: -1 57<81 189 89 189 246 345> 624 57<81 345 89 189 246 246 246 345> 885 20G<148 162.5>
VStem: 60 186<20 56> 189 184<20 624>
LayerCount: 2
Back
Fore
SplineSet
246 56 m 1xf0
 345 56 l 2
 362 56 373 44 373 28 c 0xe8
 373 12 361 -1 345 -1 c 2
 89 -1 l 2
 73 -1 60 12 60 28 c 0xf0
 60 44 73 56 89 56 c 2
 189 56 l 1
 189 624 l 1xe8
 89 624 l 2
 73 624 60 637 60 653 c 0xf0
 60 669 73 681 89 681 c 2
 345 681 l 2
 361 681 373 669 373 653 c 0xe8
 373 637 361 624 345 624 c 2
 246 624 l 1
 246 56 l 1xf0
251 725 m 2xf0
 133 846 l 2
 126 853 122 861 122 871 c 0
 122 889 139 905 157 905 c 0
 168 905 179 898 186 890 c 2
 291 760 l 2
 296 753 298 748 298 742 c 0
 298 727 284 716 270 716 c 0
 262 716 256 720 251 725 c 2xf0
EndSplineSet
EndChar
StartChar: Iacute
Encoding: 205 205 164
Width: 433
Flags: MW
HStem: -1 57<81 189 89 189 246 345> 624 57<81 345 89 189 246 246 246 345> 874 20G<294.5 309.5>
VStem: 60 186<20 56> 189 57<56 624> 189 184<20 624>
LayerCount: 2
Back
Fore
SplineSet
246 56 m 1xf0
 345 56 l 2
 362 56 373 44 373 28 c 0xe4
 373 12 361 -1 345 -1 c 2
 89 -1 l 2
 73 -1 60 12 60 28 c 0xf0
 60 44 73 56 89 56 c 2
 189 56 l 1
 189 624 l 1xe8
 89 624 l 2
 73 624 60 637 60 653 c 0xf0
 60 669 73 681 89 681 c 2
 345 681 l 2
 361 681 373 669 373 653 c 0xe4
 373 637 361 624 345 624 c 2
 246 624 l 1
 246 56 l 1xf0
324 835 m 2xf0
 186 741 l 2
 179 736 171 732 165 732 c 0
 151 732 139 744 139 759 c 0
 139 765 140 772 145 776 c 2
 271 879 l 2
 279 886 289 894 300 894 c 0
 319 894 334 878 334 858 c 0
 334 849 331 840 324 835 c 2xf0
EndSplineSet
EndChar
StartChar: Icircumflex
Encoding: 206 206 165
Width: 433
Flags: MW
HStem: -1 57<81 189 89 189 246 345> 624 57<81 345 89 189 246 246 246 345> 681 50<92 102 342.5 345 345 353> 875 20G<230 236.5>
VStem: 60 186<20 56> 189 57<56 624> 189 184<20 624>
LayerCount: 2
Back
Fore
SplineSet
246 56 m 1xd8
 345 56 l 2
 362 56 373 44 373 28 c 0xd2
 373 12 361 -1 345 -1 c 2
 89 -1 l 2
 73 -1 60 12 60 28 c 0xd8
 60 44 73 56 89 56 c 2
 189 56 l 1
 189 624 l 1xd4
 89 624 l 2
 73 624 60 637 60 653 c 0xd8
 60 669 73 681 89 681 c 2
 345 681 l 2
 361 681 373 669 373 653 c 0xd2
 373 637 361 624 345 624 c 2
 246 624 l 1
 246 56 l 1xd8
253 887 m 2xb8
 363 777 l 2
 369 772 372 765 372 757 c 0
 372 743 360 731 346 731 c 0
 339 731 332 733 327 738 c 2
 231 825 l 1
 116 736 l 2
 111 732 105 731 99 731 c 0
 85 731 73 742 73 757 c 0
 73 765 76 773 83 778 c 2
 214 888 l 2
 220 893 227 895 233 895 c 0
 240 895 247 892 253 887 c 2xb8
EndSplineSet
EndChar
StartChar: Idieresis
Encoding: 207 207 166
Width: 433
Flags: MW
HStem: -1 57<81 189 89 189 246 345> 624 57<81 345 89 189 246 246 246 345> 733 83<131 153.5 290 312.5>
VStem: 60 186<20 56> 189 57<56 624> 189 184<20 624> 253 96<765 783.5>
LayerCount: 2
Back
Fore
SplineSet
246 56 m 1xf2
 345 56 l 2
 362 56 373 44 373 28 c 0xe4
 373 12 361 -1 345 -1 c 2
 89 -1 l 2
 73 -1 60 12 60 28 c 0xf2
 60 44 73 56 89 56 c 2
 189 56 l 1
 189 624 l 1xea
 89 624 l 2
 73 624 60 637 60 653 c 0xf2
 60 669 73 681 89 681 c 2
 345 681 l 2
 361 681 373 669 373 653 c 0xe4
 373 637 361 624 345 624 c 2
 246 624 l 1
 246 56 l 1xf2
190 777 m 0xf2
 190 753 168 733 139 733 c 0
 114 733 94 749 94 772 c 0
 94 795 117 816 145 816 c 0
 168 816 190 799 190 777 c 0xf2
349 777 m 0
 349 753 327 733 298 733 c 0
 273 733 253 749 253 772 c 0
 253 795 276 816 304 816 c 0
 327 816 349 799 349 777 c 0
EndSplineSet
EndChar
StartChar: Eth
Encoding: 208 208 119
Width: 655
Flags: MW
HStem: -20 57<255 360 255 367.5> 281 57<55.5 126 63 126 180 284 63 180> 624 57<180 180>
VStem: 35 145<48 317> 126 54<48 281 48 281 48 281 338 624> 126 186<25 317 281 317 301.5 653> 549 55<211.5 416>
LayerCount: 2
Back
Fore
SplineSet
271 -20 m 0xea
 212 -20 156 -5 148 -3 c 0
 135 0 126 12 126 25 c 2
 126 281 l 1xea
 63 281 l 2
 48 281 35 294 35 309 c 0xf2
 35 325 48 338 63 338 c 2
 126 338 l 1
 126 653 l 2
 126 669 139 681 155 681 c 0
 318 681 604 626 604 300 c 0
 604 77 464 -20 271 -20 c 0xea
180 281 m 1
 180 48 l 1
 202 43 239 37 271 37 c 0
 449 37 549 123 549 300 c 0
 549 532 383 615 180 624 c 1
 180 338 l 1xf2
 284 338 l 2
 299 338 312 325 312 309 c 0xe6
 312 294 299 281 284 281 c 2
 180 281 l 1
EndSplineSet
EndChar
StartChar: Ntilde
Encoding: 209 209 167
Width: 619
Flags: MW
HStem: 0 21G<85.5 101 521.5 534> 662 20G<518 533.5> 713 42<377.5 401 377.5 418.5> 736 127<163 272.5> 821 42<243.5 258.5>
VStem: 65 56<20.5 28> 498 56<117 654>
LayerCount: 2
Back
Fore
SplineSet
526 0 m 0xee
 517 0 508 4 503 12 c 2
 122 563 l 1
 121 28 l 2
 121 12 109 0 93 0 c 0
 78 0 65 13 65 28 c 2
 66 653 l 2
 66 667 77 681 93 681 c 0
 102 681 111 677 117 669 c 2
 498 117 l 1
 498 654 l 2
 498 669 510 682 526 682 c 0
 541 682 554 669 554 654 c 2
 554 28 l 2
 554 13 542 0 526 0 c 0xee
446 833 m 0
 450 843 460 850 470 850 c 0
 484 850 496 839 496 826 c 0
 496 821 495 818 493 812 c 0
 482 781 451 713 386 713 c 0
 341 713 317 745 297 773 c 0
 278 799 267 821 250 821 c 0
 237 821 211 804 195 755 c 0xee
 191 742 182 736 170 736 c 0
 156 736 144 747 144 761 c 0
 144 776 154 793 160 804 c 0
 182 842 213 863 250 863 c 0xd6
 295 863 319 830 339 803 c 0
 358 777 369 755 386 755 c 0
 416 755 435 804 446 833 c 0
EndSplineSet
EndChar
StartChar: Ograve
Encoding: 210 210 168
Width: 660
Flags: MW
HStem: -2 52<252 370.5 252 387> 630 52<282.5 403.5> 885 20G<285 299.5>
VStem: 60 53<241 401 241 413> 547 53<278 430.5>
LayerCount: 2
Back
Fore
SplineSet
309 -2 m 0
 164 -2 60 143 60 313 c 0
 60 513 195 682 351 682 c 0
 495 682 600 539 600 367 c 0
 600 167 465 -2 309 -2 c 0
344 630 m 0
 221 630 113 489 113 313 c 0
 113 169 195 50 309 50 c 0
 432 50 547 193 547 363 c 0
 547 498 463 630 344 630 c 0
388 725 m 2
 270 846 l 2
 263 853 259 861 259 871 c 0
 259 889 276 905 294 905 c 0
 305 905 316 898 323 890 c 2
 428 760 l 2
 433 753 435 748 435 742 c 0
 435 727 421 716 407 716 c 0
 399 716 393 720 388 725 c 2
EndSplineSet
EndChar
StartChar: Oacute
Encoding: 211 211 169
Width: 660
Flags: MW
HStem: -2 52<252 370.5 252 387> 630 52<282.5 403.5> 874 20G<425.5 440.5>
VStem: 60 53<241 401 241 413> 547 53<278 430.5>
LayerCount: 2
Back
Fore
SplineSet
309 -2 m 0
 164 -2 60 143 60 313 c 0
 60 513 195 682 351 682 c 0
 495 682 600 539 600 367 c 0
 600 167 465 -2 309 -2 c 0
344 630 m 0
 221 630 113 489 113 313 c 0
 113 169 195 50 309 50 c 0
 432 50 547 193 547 363 c 0
 547 498 463 630 344 630 c 0
455 835 m 2
 317 741 l 2
 310 736 302 732 296 732 c 0
 282 732 270 744 270 759 c 0
 270 765 271 772 276 776 c 2
 402 879 l 2
 410 886 420 894 431 894 c 0
 450 894 465 878 465 858 c 0
 465 849 462 840 455 835 c 2
EndSplineSet
EndChar
StartChar: Ocircumflex
Encoding: 212 212 170
Width: 660
Flags: MW
HStem: -2 52<252 370.5 252 387> 630 52<282.5 403.5> 682 49<228 423> 875 20G<366 372.5>
VStem: 60 53<241 401 241 413> 547 53<278 430.5>
LayerCount: 2
Back
Fore
SplineSet
309 -2 m 0xdc
 164 -2 60 143 60 313 c 0
 60 513 195 682 351 682 c 0
 495 682 600 539 600 367 c 0
 600 167 465 -2 309 -2 c 0xdc
344 630 m 0
 221 630 113 489 113 313 c 0
 113 169 195 50 309 50 c 0
 432 50 547 193 547 363 c 0
 547 498 463 630 344 630 c 0
389 887 m 2
 499 777 l 2
 505 772 508 765 508 757 c 0
 508 743 496 731 482 731 c 0
 475 731 468 733 463 738 c 2
 367 825 l 1
 252 736 l 2
 247 732 241 731 235 731 c 0xbc
 221 731 209 742 209 757 c 0
 209 765 212 773 219 778 c 2
 350 888 l 2
 356 893 363 895 369 895 c 0
 376 895 383 892 389 887 c 2
EndSplineSet
EndChar
StartChar: Otilde
Encoding: 213 213 171
Width: 660
Flags: MW
HStem: -2 52<252 370.5 252 387> 630 52<282.5 403.5> 713 42<425.5 449 425.5 466.5> 736 127<211 320.5> 821 42<291.5 306.5>
VStem: 60 53<241 401 241 413> 547 53<278 430.5>
LayerCount: 2
Back
Fore
SplineSet
309 -2 m 0xee
 164 -2 60 143 60 313 c 0
 60 513 195 682 351 682 c 0
 495 682 600 539 600 367 c 0
 600 167 465 -2 309 -2 c 0xee
344 630 m 0
 221 630 113 489 113 313 c 0
 113 169 195 50 309 50 c 0
 432 50 547 193 547 363 c 0
 547 498 463 630 344 630 c 0
494 833 m 0
 498 843 508 850 518 850 c 0
 532 850 544 839 544 826 c 0
 544 821 543 818 541 812 c 0
 530 781 499 713 434 713 c 0
 389 713 365 745 345 773 c 0
 326 799 315 821 298 821 c 0
 285 821 259 804 243 755 c 0xee
 239 742 230 736 218 736 c 0
 204 736 192 747 192 761 c 0
 192 776 202 793 208 804 c 0
 230 842 261 863 298 863 c 0xd6
 343 863 367 830 387 803 c 0
 406 777 417 755 434 755 c 0
 464 755 483 804 494 833 c 0
EndSplineSet
EndChar
StartChar: Odieresis
Encoding: 214 214 172
Width: 660
Flags: MW
HStem: -2 52<252 370.5 252 387> 630 52<282.5 403.5> 733 83<272 294.5 431 453.5>
VStem: 60 53<241 401 241 413> 235 96<765 783.5> 394 96<765 783.5> 547 53<278 430.5>
LayerCount: 2
Back
Fore
SplineSet
309 -2 m 0
 164 -2 60 143 60 313 c 0
 60 513 195 682 351 682 c 0
 495 682 600 539 600 367 c 0
 600 167 465 -2 309 -2 c 0
344 630 m 0
 221 630 113 489 113 313 c 0
 113 169 195 50 309 50 c 0
 432 50 547 193 547 363 c 0
 547 498 463 630 344 630 c 0
331 777 m 0
 331 753 309 733 280 733 c 0
 255 733 235 749 235 772 c 0
 235 795 258 816 286 816 c 0
 309 816 331 799 331 777 c 0
490 777 m 0
 490 753 468 733 439 733 c 0
 414 733 394 749 394 772 c 0
 394 795 417 816 445 816 c 0
 468 816 490 799 490 777 c 0
EndSplineSet
EndChar
StartChar: multiply
Encoding: 215 215 173
Width: 441
Flags: MW
HStem: 120 244<116 323.5> 121 21G<312.5 323>
VStem: 106 236<140 165 333 337.5>
LayerCount: 2
Back
Fore
SplineSet
342 336 m 0xa0
 342 330 339 324 335 320 c 2
 258 243 l 1
 334 166 l 2
 339 161 342 155 342 148 c 0
 342 132 330 121 316 121 c 0x60
 309 121 302 124 297 129 c 2
 221 205 l 1
 143 128 l 2
 138 123 132 120 124 120 c 0
 108 120 98 134 98 146 c 0
 98 153 101 160 106 165 c 2
 184 243 l 1
 114 312 l 2
 109 317 106 323 106 331 c 0
 106 344 118 357 132 357 c 0
 140 357 146 354 151 349 c 2
 221 280 l 1
 298 357 l 2
 302 361 308 364 314 364 c 0
 333 364 342 353 342 336 c 0xa0
EndSplineSet
EndChar
StartChar: Oslash
Encoding: 216 216 127
Width: 660
Flags: MW
HStem: -32 21G<107 121> -2 52<288 370.5 288 387> 630 52<282.5 358.5> 723 20G<512 523>
VStem: 60 53<278.5 401 278.5 413> 547 53<278 403>
LayerCount: 2
Back
Fore
SplineSet
309 -2 m 0
 258 -2 212 15 174 46 c 1
 138 -19 l 2
 133 -28 126 -32 116 -32 c 0
 98 -32 89 -20 89 -5 c 0
 89 -1 90 3 92 7 c 2
 135 85 l 1
 88 143 60 224 60 313 c 0
 60 513 195 682 351 682 c 0
 388 682 422 672 453 655 c 1
 494 730 l 2
 498 738 507 743 517 743 c 0
 529 743 543 733 543 717 c 0
 543 713 542 708 540 704 c 2
 496 625 l 1
 560 567 600 473 600 367 c 0
 600 167 465 -2 309 -2 c 0
309 50 m 0
 432 50 547 193 547 363 c 0
 547 443 517 523 468 574 c 1
 200 92 l 1
 230 65 267 50 309 50 c 0
344 630 m 0
 221 630 113 489 113 313 c 0
 113 244 131 182 163 135 c 1
 426 607 l 1
 401 622 373 630 344 630 c 0
EndSplineSet
EndChar
StartChar: Ugrave
Encoding: 217 217 174
Width: 683
Flags: MW
HStem: 0 49<249 402.5 247 421.5> 885 20G<263 277.5>
VStem: 67 56<381 653 381 654 381 662> 560 56<653 659>
LayerCount: 2
Back
Fore
SplineSet
616 653 m 0
 620 527 625 400 608 270 c 0
 587 110 510 0 333 0 c 0
 165 0 76 125 67 367 c 0
 63 474 66 569 67 654 c 0
 67 670 81 681 95 681 c 0
 110 681 123 669 123 653 c 0
 121 564 120 474 123 381 c 0
 128 236 159 49 335 49 c 0
 470 49 536 139 552 277 c 0
 565 397 560 518 560 651 c 0
 560 667 570 681 588 681 c 0
 603 681 616 668 616 653 c 0
366 725 m 2
 248 846 l 2
 241 853 237 861 237 871 c 0
 237 889 254 905 272 905 c 0
 283 905 294 898 301 890 c 2
 406 760 l 2
 411 753 413 748 413 742 c 0
 413 727 399 716 385 716 c 0
 377 716 371 720 366 725 c 2
EndSplineSet
EndChar
StartChar: Uacute
Encoding: 218 218 175
Width: 683
Flags: MW
HStem: 0 49<249 402.5 247 421.5> 874 20G<423.5 438.5>
VStem: 67 56<381 653 381 654 381 662> 560 56<653 659>
LayerCount: 2
Back
Fore
SplineSet
616 653 m 0
 620 527 625 400 608 270 c 0
 587 110 510 0 333 0 c 0
 165 0 76 125 67 367 c 0
 63 474 66 569 67 654 c 0
 67 670 81 681 95 681 c 0
 110 681 123 669 123 653 c 0
 121 564 120 474 123 381 c 0
 128 236 159 49 335 49 c 0
 470 49 536 139 552 277 c 0
 565 397 560 518 560 651 c 0
 560 667 570 681 588 681 c 0
 603 681 616 668 616 653 c 0
453 835 m 2
 315 741 l 2
 308 736 300 732 294 732 c 0
 280 732 268 744 268 759 c 0
 268 765 269 772 274 776 c 2
 400 879 l 2
 408 886 418 894 429 894 c 0
 448 894 463 878 463 858 c 0
 463 849 460 840 453 835 c 2
EndSplineSet
EndChar
StartChar: Ucircumflex
Encoding: 219 219 176
Width: 683
Flags: MW
HStem: 0 49<249 402.5 247 421.5> 875 20G<359 365.5>
VStem: 67 56<381 653 381 654 381 662> 560 56<653 659>
LayerCount: 2
Back
Fore
SplineSet
616 653 m 0
 620 527 625 400 608 270 c 0
 587 110 510 0 333 0 c 0
 165 0 76 125 67 367 c 0
 63 474 66 569 67 654 c 0
 67 670 81 681 95 681 c 0
 110 681 123 669 123 653 c 0
 121 564 120 474 123 381 c 0
 128 236 159 49 335 49 c 0
 470 49 536 139 552 277 c 0
 565 397 560 518 560 651 c 0
 560 667 570 681 588 681 c 0
 603 681 616 668 616 653 c 0
382 887 m 2
 492 777 l 2
 498 772 501 765 501 757 c 0
 501 743 489 731 475 731 c 0
 468 731 461 733 456 738 c 2
 360 825 l 1
 245 736 l 2
 240 732 234 731 228 731 c 0
 214 731 202 742 202 757 c 0
 202 765 205 773 212 778 c 2
 343 888 l 2
 349 893 356 895 362 895 c 0
 369 895 376 892 382 887 c 2
EndSplineSet
EndChar
StartChar: Udieresis
Encoding: 220 220 177
Width: 683
Flags: MW
HStem: 0 49<249 402.5 247 421.5> 733 83<253 275.5 412 434.5>
VStem: 67 56<381 653 381 654 381 662> 216 96<765 783.5> 375 96<765 783.5> 560 56<653 659>
LayerCount: 2
Back
Fore
SplineSet
616 653 m 0
 620 527 625 400 608 270 c 0
 587 110 510 0 333 0 c 0
 165 0 76 125 67 367 c 0
 63 474 66 569 67 654 c 0
 67 670 81 681 95 681 c 0
 110 681 123 669 123 653 c 0
 121 564 120 474 123 381 c 0
 128 236 159 49 335 49 c 0
 470 49 536 139 552 277 c 0
 565 397 560 518 560 651 c 0
 560 667 570 681 588 681 c 0
 603 681 616 668 616 653 c 0
312 777 m 0
 312 753 290 733 261 733 c 0
 236 733 216 749 216 772 c 0
 216 795 239 816 267 816 c 0
 290 816 312 799 312 777 c 0
471 777 m 0
 471 753 449 733 420 733 c 0
 395 733 375 749 375 772 c 0
 375 795 398 816 426 816 c 0
 449 816 471 799 471 777 c 0
EndSplineSet
EndChar
StartChar: Yacute
Encoding: 221 221 178
Width: 593
Flags: MW
HStem: 0 21G<185 198> 892 20G<374.5 389.5>
LayerCount: 2
Back
Fore
SplineSet
564 681 m 0
 578 681 592 669 592 653 c 0
 592 648 591 644 584 632 c 2
 217 14 l 2
 212 5 203 0 193 0 c 0
 177 0 165 14 165 28 c 0
 165 34 168 41 171 46 c 2
 271 214 l 1
 26 635 l 2
 22 642 20 648 20 653 c 0
 20 668 33 681 49 681 c 0
 58 681 67 676 72 667 c 2
 304 269 l 1
 540 667 l 2
 545 676 554 681 564 681 c 0
404 853 m 2
 266 759 l 2
 259 754 251 750 245 750 c 0
 231 750 219 762 219 777 c 0
 219 783 220 790 225 794 c 2
 351 897 l 2
 359 904 369 912 380 912 c 0
 399 912 414 896 414 876 c 0
 414 867 411 858 404 853 c 2
EndSplineSet
EndChar
StartChar: Thorn
Encoding: 222 222 117
Width: 547
Flags: MW
HStem: 0 198<83 117> 143 55<116 117> 519 53<147 192 118 239> 660 20G<85 99>
VStem: 66 51 423 51<305.5 420.5>
LayerCount: 2
Back
Fore
SplineSet
118 572 m 1xbc
 266 572 474 553 474 375 c 0
 474 198 258 146 116 143 c 1x7c
 116 25 l 2
 116 11 105 0 90 0 c 0
 76 0 65 11 65 26 c 2
 67 655 l 2
 67 669 78 680 92 680 c 0
 106 680 118 669 118 654 c 2
 118 572 l 1xbc
117 198 m 1
 219 199 423 236 423 375 c 0
 423 466 324 519 154 519 c 0
 140 519 128 519 118 518 c 1
 117 198 l 1
EndSplineSet
EndChar
StartChar: germandbls
Encoding: 223 223 126
Width: 525
Flags: MW
HStem: -25 52<266 317 266 331.5> -1 21G<84 98> 587 52<197.5 258.5>
VStem: 65 52<25 476> 338 52<454 506.5> 423 52<133 212.5>
LayerCount: 2
Back
Fore
SplineSet
278 -25 m 0xbc
 240 -25 171 -11 171 21 c 0
 171 36 184 47 197 47 c 0
 201 47 205 46 209 44 c 0
 230 33 254 27 278 27 c 0xbc
 356 27 423 93 423 173 c 0
 423 252 359 330 257 317 c 0
 248 316 238 314 228 314 c 0
 215 314 202 325 202 339 c 0
 202 353 212 365 226 366 c 2
 241 367 l 2
 296 371 338 421 338 476 c 0
 338 537 289 587 228 587 c 0
 167 587 117 537 117 476 c 2
 117 25 l 2
 117 11 105 -1 91 -1 c 0x7c
 77 -1 65 11 65 25 c 2
 65 476 l 2
 65 566 138 639 228 639 c 0
 317 639 390 566 390 476 c 0
 390 432 371 391 341 360 c 1
 421 334 475 261 475 172 c 0
 475 65 385 -25 278 -25 c 0xbc
EndSplineSet
EndChar
StartChar: agrave
Encoding: 224 224 135
Width: 505
Flags: MW
HStem: -10 21G<402.5 420> -2 55<188.5 265.5> 449 55<223.5 309> 727 20G<225 239.5>
VStem: 50 57<181 257.5 181 266> 384 56<22 45 45 45>
LayerCount: 2
Back
Fore
SplineSet
440 463 m 1x7c
 440 20 l 2
 440 4 428 -10 412 -10 c 0xbc
 393 -10 384 5 384 22 c 2
 384 45 l 1
 348 23 293 -2 238 -2 c 0
 130 -2 50 85 50 214 c 0
 50 318 115 504 289 504 c 0
 363 504 425 471 440 463 c 1x7c
382 111 m 1
 386 428 l 1
 367 436 326 449 292 449 c 0
 155 449 107 299 107 216 c 0
 107 146 141 53 236 53 c 0x7c
 297 53 359 95 382 111 c 1
328 567 m 2
 210 688 l 2
 203 695 199 703 199 713 c 0
 199 731 216 747 234 747 c 0
 245 747 256 740 263 732 c 2
 368 602 l 2
 373 595 375 590 375 584 c 0
 375 569 361 558 347 558 c 0
 339 558 333 562 328 567 c 2
EndSplineSet
EndChar
StartChar: aacute
Encoding: 225 225 134
Width: 505
Flags: MW
HStem: -10 21G<402.5 420> -2 55<188.5 265.5> 449 55<223.5 309> 705 20G<386.5 401.5>
VStem: 50 57<181 257.5 181 266> 384 56<22 45 45 45>
LayerCount: 2
Back
Fore
SplineSet
440 463 m 1x7c
 440 20 l 2
 440 4 428 -10 412 -10 c 0xbc
 393 -10 384 5 384 22 c 2
 384 45 l 1
 348 23 293 -2 238 -2 c 0
 130 -2 50 85 50 214 c 0
 50 318 115 504 289 504 c 0
 363 504 425 471 440 463 c 1x7c
382 111 m 1
 386 428 l 1
 367 436 326 449 292 449 c 0
 155 449 107 299 107 216 c 0
 107 146 141 53 236 53 c 0x7c
 297 53 359 95 382 111 c 1
416 666 m 2
 278 572 l 2
 271 567 263 563 257 563 c 0
 243 563 231 575 231 590 c 0
 231 596 232 603 237 607 c 2
 363 710 l 2
 371 717 381 725 392 725 c 0
 411 725 426 709 426 689 c 0
 426 680 423 671 416 666 c 2
EndSplineSet
EndChar
StartChar: acircumflex
Encoding: 226 226 131
Width: 505
Flags: MW
HStem: -10 21G<402.5 420> -2 55<188.5 265.5> 449 55<223.5 309> 504 70<166 326> 718 20G<304 310.5>
VStem: 50 57<181 257.5 181 266> 384 56<22 45 45 45>
LayerCount: 2
Back
Fore
SplineSet
440 463 m 1x6e
 440 20 l 2
 440 4 428 -10 412 -10 c 0xae
 393 -10 384 5 384 22 c 2
 384 45 l 1
 348 23 293 -2 238 -2 c 0
 130 -2 50 85 50 214 c 0
 50 318 115 504 289 504 c 0
 363 504 425 471 440 463 c 1x6e
382 111 m 1
 386 428 l 1
 367 436 326 449 292 449 c 0
 155 449 107 299 107 216 c 0
 107 146 141 53 236 53 c 0x6e
 297 53 359 95 382 111 c 1
327 730 m 2
 437 620 l 2
 443 615 446 608 446 600 c 0
 446 586 434 574 420 574 c 0
 413 574 406 576 401 581 c 2
 305 668 l 1
 190 579 l 2
 185 575 179 574 173 574 c 0x5e
 159 574 147 585 147 600 c 0
 147 608 150 616 157 621 c 2
 288 731 l 2
 294 736 301 738 307 738 c 0
 314 738 321 735 327 730 c 2
EndSplineSet
EndChar
StartChar: atilde
Encoding: 227 227 132
Width: 505
Flags: MW
HStem: -10 21G<402.5 420> -2 55<188.5 265.5> 449 55<223.5 309> 556 42<323.5 347 323.5 364.5> 579 127<109 218.5> 664 42<189.5 204.5>
VStem: 50 57<181 257.5 181 266> 384 56<22 45 45 45>
LayerCount: 2
Back
Fore
SplineSet
440 463 m 1x77
 440 20 l 2
 440 4 428 -10 412 -10 c 0xb7
 393 -10 384 5 384 22 c 2
 384 45 l 1
 348 23 293 -2 238 -2 c 0
 130 -2 50 85 50 214 c 0
 50 318 115 504 289 504 c 0
 363 504 425 471 440 463 c 1x77
382 111 m 1
 386 428 l 1
 367 436 326 449 292 449 c 0
 155 449 107 299 107 216 c 0
 107 146 141 53 236 53 c 0x77
 297 53 359 95 382 111 c 1
392 676 m 0
 396 686 406 693 416 693 c 0
 430 693 442 682 442 669 c 0
 442 664 441 661 439 655 c 0
 428 624 397 556 332 556 c 0
 287 556 263 588 243 616 c 0
 224 642 213 664 196 664 c 0
 183 664 157 647 141 598 c 0x77
 137 585 128 579 116 579 c 0
 102 579 90 590 90 604 c 0
 90 619 100 636 106 647 c 0
 128 685 159 706 196 706 c 0x6b
 241 706 265 673 285 646 c 0
 304 620 315 598 332 598 c 0
 362 598 381 647 392 676 c 0
EndSplineSet
EndChar
StartChar: adieresis
Encoding: 228 228 133
Width: 505
Flags: MW
HStem: -10 21G<402.5 420> -2 55<188.5 265.5> 449 55<223.5 309> 576 83<194 216.5 353 375.5>
VStem: 50 57<181 257.5 181 266> 157 96<608 626.5> 316 96<608 626.5> 384 56<22 45 45 45>
LayerCount: 2
Back
Fore
SplineSet
440 463 m 1x7d
 440 20 l 2x7d
 440 4 428 -10 412 -10 c 0xbe
 393 -10 384 5 384 22 c 2
 384 45 l 1
 348 23 293 -2 238 -2 c 0
 130 -2 50 85 50 214 c 0
 50 318 115 504 289 504 c 0
 363 504 425 471 440 463 c 1x7d
382 111 m 1
 386 428 l 1
 367 436 326 449 292 449 c 0
 155 449 107 299 107 216 c 0
 107 146 141 53 236 53 c 0
 297 53 359 95 382 111 c 1
253 620 m 0
 253 596 231 576 202 576 c 0
 177 576 157 592 157 615 c 0
 157 638 180 659 208 659 c 0
 231 659 253 642 253 620 c 0
412 620 m 0x7e
 412 596 390 576 361 576 c 0
 336 576 316 592 316 615 c 0
 316 638 339 659 367 659 c 0
 390 659 412 642 412 620 c 0x7e
EndSplineSet
EndChar
StartChar: aring
Encoding: 229 229 130
Width: 505
Flags: MW
HStem: -10 21G<402.5 420> -2 55<188.5 265.5> 449 55<223.5 309> 563 46<278 318.5 278 325.5> 735 47<283 331.5>
VStem: 50 57<181 257.5 181 266> 178 42<647.5 680 647.5 699> 384 43 384 56<22 45 45 45>
LayerCount: 2
Back
Fore
SplineSet
440 463 m 1x7e80
 440 20 l 2
 440 4 428 -10 412 -10 c 0xbe80
 393 -10 384 5 384 22 c 2
 384 45 l 1
 348 23 293 -2 238 -2 c 0
 130 -2 50 85 50 214 c 0
 50 318 115 504 289 504 c 0
 363 504 425 471 440 463 c 1x7e80
382 111 m 1
 386 428 l 1
 367 436 326 449 292 449 c 0
 155 449 107 299 107 216 c 0
 107 146 141 53 236 53 c 0x7f
 297 53 359 95 382 111 c 1
292 563 m 0
 230 563 178 608 178 665 c 0
 178 733 246 782 314 782 c 0
 374 782 427 737 427 679 c 0
 427 610 359 563 292 563 c 0
310 735 m 0
 256 735 220 695 220 665 c 0
 220 630 255 609 301 609 c 0
 336 609 385 635 385 677 c 0
 385 706 353 735 310 735 c 0
EndSplineSet
EndChar
StartChar: ae
Encoding: 230 230 121
Width: 832
Flags: MW
HStem: 0 21G<391.5 407 573.5 642.5> 8 44 430 53<565 627.5> 445 53<216.5 300>
VStem: 50 54<174 257.5 174 297> 372 55<27 53 53 53>
LayerCount: 2
Back
Fore
SplineSet
426 458 m 1x5c
 426 398 l 1
 470 455 535 483 595 483 c 0
 715 483 772 397 772 354 c 0
 772 343 766 334 750 325 c 2
 441 147 l 1
 478 78 538 52 619 52 c 0x6c
 662 52 710 77 737 108 c 0
 741 113 748 116 755 116 c 0
 770 116 781 105 781 90 c 0
 781 83 778 76 774 72 c 0
 739 32 673 0 612 0 c 0
 535 0 472 27 427 82 c 1
 427 27 l 2
 427 14 414 0 400 0 c 0xac
 383 0 372 14 372 27 c 2
 372 53 l 1
 338 32 285 8 233 8 c 0
 129 8 50 86 50 214 c 0
 50 380 156 498 275 498 c 0
 340 498 410 470 426 458 c 1x5c
370 117 m 1
 375 424 l 1
 358 432 317 445 283 445 c 0x5c
 150 445 104 298 104 217 c 0
 104 131 150 61 229 61 c 0
 280 61 343 95 370 117 c 1
595 430 m 0x6c
 498 430 422 345 422 229 c 0
 422 218 422 209 424 198 c 1
 718 361 l 1
 693 411 660 430 595 430 c 0x6c
EndSplineSet
EndChar
StartChar: ccedilla
Encoding: 231 231 179
Width: 509
Flags: MW
HStem: -201 42<267.5 292.5 267.5 304> -61 42<271.5 292.5> 0 52<269 277 269 269> 448 52<240.5 300>
VStem: 50 53<160.5 231.5 154 240.5> 200 170<-162.5 -86> 328 42<-123.5 -96.5>
LayerCount: 2
Back
Fore
SplineSet
221 -33 m 2xfa
 233 2 l 1
 133 18 50 105 50 216 c 0
 50 265 64 309 74 335 c 0
 100 401 175 500 272 500 c 0
 346 500 384 474 422 430 c 0
 426 426 429 418 429 411 c 0
 429 396 417 384 402 384 c 0
 394 384 387 388 382 393 c 0
 355 426 326 448 274 448 c 0
 207 448 146 373 123 316 c 0
 108 278 103 245 103 218 c 0
 103 90 218 52 262 52 c 0
 334 52 377 84 406 123 c 0
 410 129 419 139 432 139 c 0
 447 139 459 127 459 112 c 0
 459 105 455 99 451 93 c 0
 418 43 351 3 277 0 c 2
 269 0 l 1
 268 -19 l 1
 336 -19 370 -62 370 -110 c 0
 370 -160 329 -201 279 -201 c 0
 247 -201 200 -179 200 -146 c 0xfc
 200 -138 209 -128 221 -128 c 0
 229 -128 234 -133 239 -139 c 0
 247 -148 256 -159 279 -159 c 0
 306 -159 328 -137 328 -110 c 0
 328 -83 306 -61 279 -61 c 0
 264 -61 255 -67 248 -71 c 0
 244 -74 240 -76 236 -76 c 0
 225 -76 215 -68 215 -56 c 0
 215 -50 217 -43 221 -33 c 2xfa
EndSplineSet
EndChar
StartChar: egrave
Encoding: 232 232 180
Width: 521
Flags: MW
HStem: 0 52<258.5 320.5 258.5 330.5> 446 53<224 312.5> 727 20G<212 226.5>
VStem: 51 51<231.5 295 231.5 307>
LayerCount: 2
Back
Fore
SplineSet
471 90 m 0
 471 83 468 76 464 72 c 0
 429 32 361 0 300 0 c 0
 147 0 51 114 51 238 c 0
 51 376 139 499 275 499 c 0
 404 499 462 409 462 366 c 0
 462 355 456 346 440 337 c 2
 122 155 l 1
 159 86 218 52 299 52 c 0
 342 52 400 77 427 108 c 0
 431 113 438 116 445 116 c 0
 460 116 471 105 471 90 c 0
275 446 m 0
 173 446 102 353 102 237 c 0
 102 226 102 217 104 206 c 1
 408 373 l 1
 390 420 350 446 275 446 c 0
315 567 m 2
 197 688 l 2
 190 695 186 703 186 713 c 0
 186 731 203 747 221 747 c 0
 232 747 243 740 250 732 c 2
 355 602 l 2
 360 595 362 590 362 584 c 0
 362 569 348 558 334 558 c 0
 326 558 320 562 315 567 c 2
EndSplineSet
EndChar
StartChar: edieresis
Encoding: 235 235 183
Width: 521
Flags: MW
HStem: 0 52<258.5 320.5 258.5 330.5> 446 53<224 312.5> 576 83<200 222.5 359 381.5>
VStem: 51 51<231.5 295 231.5 307> 163 96<608 626.5> 322 96<608 626.5>
LayerCount: 2
Back
Fore
SplineSet
471 90 m 0
 471 83 468 76 464 72 c 0
 429 32 361 0 300 0 c 0
 147 0 51 114 51 238 c 0
 51 376 139 499 275 499 c 0
 404 499 462 409 462 366 c 0
 462 355 456 346 440 337 c 2
 122 155 l 1
 159 86 218 52 299 52 c 0
 342 52 400 77 427 108 c 0
 431 113 438 116 445 116 c 0
 460 116 471 105 471 90 c 0
275 446 m 0
 173 446 102 353 102 237 c 0
 102 226 102 217 104 206 c 1
 408 373 l 1
 390 420 350 446 275 446 c 0
259 620 m 0
 259 596 237 576 208 576 c 0
 183 576 163 592 163 615 c 0
 163 638 186 659 214 659 c 0
 237 659 259 642 259 620 c 0
418 620 m 0
 418 596 396 576 367 576 c 0
 342 576 322 592 322 615 c 0
 322 638 345 659 373 659 c 0
 396 659 418 642 418 620 c 0
EndSplineSet
EndChar
StartChar: igrave
Encoding: 236 236 184
Width: 194
Flags: MW
HStem: 0 21G<86 102> 727 20G<41 55.5>
LayerCount: 2
Back
Fore
SplineSet
129 467 m 2
 129 467 123 29 123 29 c 2
 123 13 110 0 94 0 c 0
 78 0 65 13 65 29 c 2
 65 29 71 467 71 467 c 2
 71 483 84 496 100 496 c 0
 116 496 129 483 129 467 c 2
144 567 m 2
 26 688 l 2
 19 695 15 703 15 713 c 0
 15 731 32 747 50 747 c 0
 61 747 72 740 79 732 c 2
 184 602 l 2
 189 595 191 590 191 584 c 0
 191 569 177 558 163 558 c 0
 155 558 149 562 144 567 c 2
EndSplineSet
EndChar
StartChar: iacute
Encoding: 237 237 185
Width: 194
Flags: MW
HStem: 0 21G<86 102> 705 20G<160.5 175.5>
LayerCount: 2
Back
Fore
SplineSet
129 467 m 2
 129 467 123 29 123 29 c 2
 123 13 110 0 94 0 c 0
 78 0 65 13 65 29 c 2
 65 29 71 467 71 467 c 2
 71 483 84 496 100 496 c 0
 116 496 129 483 129 467 c 2
190 666 m 2
 52 572 l 2
 45 567 37 563 31 563 c 0
 17 563 5 575 5 590 c 0
 5 596 6 603 11 607 c 2
 137 710 l 2
 145 717 155 725 166 725 c 0
 185 725 200 709 200 689 c 0
 200 680 197 671 190 666 c 2
EndSplineSet
EndChar
StartChar: icircumflex
Encoding: 238 238 186
Width: 234
Flags: MW
HStem: 0 21G<110 126> 718 20G<133 139.5>
LayerCount: 2
Back
Fore
SplineSet
153 467 m 2
 153 467 147 29 147 29 c 2
 147 13 134 0 118 0 c 0
 102 0 89 13 89 29 c 2
 89 29 95 467 95 467 c 2
 95 483 108 496 124 496 c 0
 140 496 153 483 153 467 c 2
156 730 m 2
 266 620 l 2
 272 615 275 608 275 600 c 0
 275 586 263 574 249 574 c 0
 242 574 235 576 230 581 c 2
 134 668 l 1
 19 579 l 2
 14 575 8 574 2 574 c 0
 -12 574 -24 585 -24 600 c 0
 -24 608 -21 616 -14 621 c 2
 117 731 l 2
 123 736 130 738 136 738 c 0
 143 738 150 735 156 730 c 2
EndSplineSet
EndChar
StartChar: idieresis
Encoding: 239 239 187
Width: 258
Flags: MW
HStem: 0 21G<115 131> 576 83<42 64.5 201 223.5>
VStem: 5 96<608 626.5> 164 96<608 626.5>
LayerCount: 2
Back
Fore
SplineSet
158 467 m 2
 158 467 152 29 152 29 c 2
 152 13 139 0 123 0 c 0
 107 0 94 13 94 29 c 2
 94 29 100 467 100 467 c 2
 100 483 113 496 129 496 c 0
 145 496 158 483 158 467 c 2
101 620 m 0
 101 596 79 576 50 576 c 0
 25 576 5 592 5 615 c 0
 5 638 28 659 56 659 c 0
 79 659 101 642 101 620 c 0
260 620 m 0
 260 596 238 576 209 576 c 0
 184 576 164 592 164 615 c 0
 164 638 187 659 215 659 c 0
 238 659 260 642 260 620 c 0
EndSplineSet
EndChar
StartChar: eth
Encoding: 240 240 116
Width: 482
Flags: MW
HStem: 1 51<182.5 267.5 182.5 282.5> 386 50 651 20G<360 371.5>
VStem: 50 51<138.5 253.5 138.5 256.5> 381 51<206 280.5>
LayerCount: 2
Back
Fore
SplineSet
275 584 m 1
 356 498 432 379 432 256 c 0
 432 129 350 1 215 1 c 0
 122 1 50 72 50 178 c 0
 50 335 161 430 323 436 c 1
 295 483 260 525 230 558 c 1
 144 510 121 488 111 488 c 0
 100 488 92 497 92 508 c 0
 92 516 97 522 106 529 c 0
 124 543 157 561 201 588 c 1
 176 614 154 624 154 641 c 0
 154 655 167 667 180 667 c 0
 186 667 191 665 196 661 c 0
 198 660 211 650 247 614 c 1
 279 632 353 671 367 671 c 0
 376 671 386 664 386 652 c 0
 386 646 384 640 376 636 c 0
 343 620 305 601 275 584 c 1
215 52 m 0
 320 52 381 153 381 259 c 0
 381 302 368 346 349 386 c 1
 221 386 101 330 101 177 c 0
 101 100 150 52 215 52 c 0
EndSplineSet
EndChar
StartChar: ntilde
Encoding: 241 241 188
Width: 535
Flags: MW
HStem: 0 21G<85.5 101.5 435.5 451> 445 54<303 377.5> 556 42<347.5 371 347.5 388.5> 579 127<133 242.5> 664 42<213.5 228.5>
VStem: 65 55<26 30 21.5 473> 416 53<21 28>
LayerCount: 2
Back
Fore
SplineSet
121 473 m 2xee
 121 292 l 1
 141 406 222 499 328 499 c 0
 472 499 473 351 469 29 c 0
 469 13 459 0 443 0 c 0
 428 0 416 13 416 28 c 0
 411 305 430 445 325 445 c 0
 281 445 228 424 175 326 c 0
 141 264 122 181 121 111 c 2
 120 30 l 2
 120 13 110 0 93 0 c 0
 78 0 65 12 65 26 c 2
 65 473 l 2
 65 488 78 500 93 500 c 0
 108 500 121 488 121 473 c 2xee
416 676 m 0
 420 686 430 693 440 693 c 0
 454 693 466 682 466 669 c 0
 466 664 465 661 463 655 c 0
 452 624 421 556 356 556 c 0
 311 556 287 588 267 616 c 0
 248 642 237 664 220 664 c 0
 207 664 181 647 165 598 c 0xee
 161 585 152 579 140 579 c 0
 126 579 114 590 114 604 c 0
 114 619 124 636 130 647 c 0
 152 685 183 706 220 706 c 0xd6
 265 706 289 673 309 646 c 0
 328 620 339 598 356 598 c 0
 386 598 405 647 416 676 c 0
EndSplineSet
EndChar
StartChar: ograve
Encoding: 242 242 189
Width: 535
Flags: MW
HStem: 0 48<208.5 297.5 208.5 315> 452 48<231.5 319.5> 727 20G<231 245.5>
VStem: 50 57<182.5 290.5 182.5 303> 427 58<207 315>
LayerCount: 2
Back
Fore
SplineSet
252 0 m 0
 137 0 50 104 50 230 c 0
 50 376 157 500 283 500 c 0
 397 500 485 394 485 270 c 0
 485 123 378 0 252 0 c 0
278 452 m 0
 185 452 107 349 107 232 c 0
 107 133 165 48 252 48 c 0
 343 48 427 149 427 265 c 0
 427 365 361 452 278 452 c 0
334 567 m 2
 216 688 l 2
 209 695 205 703 205 713 c 0
 205 731 222 747 240 747 c 0
 251 747 262 740 269 732 c 2
 374 602 l 2
 379 595 381 590 381 584 c 0
 381 569 367 558 353 558 c 0
 345 558 339 562 334 567 c 2
EndSplineSet
EndChar
StartChar: oacute
Encoding: 243 243 190
Width: 535
Flags: MW
HStem: 0 48<208.5 297.5 208.5 315> 452 48<231.5 319.5> 705 20G<357.5 372.5>
VStem: 50 57<182.5 290.5 182.5 303> 427 58<207 315>
LayerCount: 2
Back
Fore
SplineSet
252 0 m 0
 137 0 50 104 50 230 c 0
 50 376 157 500 283 500 c 0
 397 500 485 394 485 270 c 0
 485 123 378 0 252 0 c 0
278 452 m 0
 185 452 107 349 107 232 c 0
 107 133 165 48 252 48 c 0
 343 48 427 149 427 265 c 0
 427 365 361 452 278 452 c 0
387 666 m 2
 249 572 l 2
 242 567 234 563 228 563 c 0
 214 563 202 575 202 590 c 0
 202 596 203 603 208 607 c 2
 334 710 l 2
 342 717 352 725 363 725 c 0
 382 725 397 709 397 689 c 0
 397 680 394 671 387 666 c 2
EndSplineSet
EndChar
StartChar: ocircumflex
Encoding: 244 244 191
Width: 535
Flags: MW
HStem: 0 48<208.5 297.5 208.5 315> 452 48<231.5 319.5> 500 74<174 340> 718 20G<312 318.5>
VStem: 50 57<182.5 290.5 182.5 303> 427 58<207 315>
LayerCount: 2
Back
Fore
SplineSet
252 0 m 0xdc
 137 0 50 104 50 230 c 0
 50 376 157 500 283 500 c 0
 397 500 485 394 485 270 c 0
 485 123 378 0 252 0 c 0xdc
278 452 m 0
 185 452 107 349 107 232 c 0
 107 133 165 48 252 48 c 0
 343 48 427 149 427 265 c 0
 427 365 361 452 278 452 c 0
335 730 m 2
 445 620 l 2
 451 615 454 608 454 600 c 0
 454 586 442 574 428 574 c 0
 421 574 414 576 409 581 c 2
 313 668 l 1
 198 579 l 2
 193 575 187 574 181 574 c 0xbc
 167 574 155 585 155 600 c 0
 155 608 158 616 165 621 c 2
 296 731 l 2
 302 736 309 738 315 738 c 0
 322 738 329 735 335 730 c 2
EndSplineSet
EndChar
StartChar: otilde
Encoding: 245 245 192
Width: 535
Flags: MW
HStem: 0 48<208.5 297.5 208.5 315> 452 48<231.5 319.5> 556 42<363.5 387 363.5 404.5> 579 127<149 258.5> 664 42<229.5 244.5>
VStem: 50 57<182.5 290.5 182.5 303> 427 58<207 315>
LayerCount: 2
Back
Fore
SplineSet
252 0 m 0xee
 137 0 50 104 50 230 c 0
 50 376 157 500 283 500 c 0
 397 500 485 394 485 270 c 0
 485 123 378 0 252 0 c 0xee
278 452 m 0
 185 452 107 349 107 232 c 0
 107 133 165 48 252 48 c 0
 343 48 427 149 427 265 c 0
 427 365 361 452 278 452 c 0
432 676 m 0
 436 686 446 693 456 693 c 0
 470 693 482 682 482 669 c 0
 482 664 481 661 479 655 c 0
 468 624 437 556 372 556 c 0
 327 556 303 588 283 616 c 0
 264 642 253 664 236 664 c 0
 223 664 197 647 181 598 c 0xee
 177 585 168 579 156 579 c 0
 142 579 130 590 130 604 c 0
 130 619 140 636 146 647 c 0
 168 685 199 706 236 706 c 0xd6
 281 706 305 673 325 646 c 0
 344 620 355 598 372 598 c 0
 402 598 421 647 432 676 c 0
EndSplineSet
EndChar
StartChar: odieresis
Encoding: 246 246 193
Width: 535
Flags: MW
HStem: 0 48<208.5 297.5 208.5 315> 452 48<231.5 319.5> 576 83<209 231.5 368 390.5>
VStem: 50 57<182.5 290.5 182.5 303> 172 96<608 626.5> 331 96<608 626.5> 427 58<207 315>
LayerCount: 2
Back
Fore
SplineSet
252 0 m 0xfa
 137 0 50 104 50 230 c 0
 50 376 157 500 283 500 c 0
 397 500 485 394 485 270 c 0
 485 123 378 0 252 0 c 0xfa
278 452 m 0
 185 452 107 349 107 232 c 0
 107 133 165 48 252 48 c 0
 343 48 427 149 427 265 c 0
 427 365 361 452 278 452 c 0
268 620 m 0
 268 596 246 576 217 576 c 0
 192 576 172 592 172 615 c 0
 172 638 195 659 223 659 c 0
 246 659 268 642 268 620 c 0
427 620 m 0
 427 596 405 576 376 576 c 0
 351 576 331 592 331 615 c 0xfc
 331 638 354 659 382 659 c 0
 405 659 427 642 427 620 c 0
EndSplineSet
EndChar
StartChar: divide
Encoding: 247 247 194
Width: 433
Flags: MW
HStem: 116 70<202.5 214> 217 52<81 345 88 345> 300 70<218.5 230>
VStem: 178 60<145.5 157.5> 194 60<329.5 341.5>
CounterMasks: 1 e0
LayerCount: 2
Back
Fore
SplineSet
345 217 m 2xe8
 88 217 l 2
 74 217 61 229 61 243 c 0
 61 258 74 269 88 269 c 2
 345 269 l 2
 360 269 372 258 372 243 c 0
 372 229 360 217 345 217 c 2xe8
221 300 m 0
 205 300 194 314 194 332 c 0
 194 351 209 370 228 370 c 0
 242 370 254 357 254 341 c 0
 254 318 239 300 221 300 c 0
205 116 m 0
 189 116 178 130 178 148 c 0
 178 167 193 186 212 186 c 0
 226 186 238 173 238 157 c 0xf0
 238 134 223 116 205 116 c 0
EndSplineSet
EndChar
StartChar: oslash
Encoding: 248 248 195
Width: 535
Flags: MW
HStem: -35 21G<102 113.5> 0 48<239 297.5 239 315> 452 48<231.5 289> 524 20G<413.5 424.5>
VStem: 50 57<207.5 290.5 207.5 303> 427 58<207 291.5>
LayerCount: 2
Back
Fore
SplineSet
252 0 m 0
 218 0 186 9 158 25 c 1
 131 -22 l 2
 126 -30 118 -35 109 -35 c 0
 95 -35 83 -22 84 -7 c 0
 84 -3 85 0 87 4 c 2
 118 56 l 1
 76 99 50 161 50 230 c 0
 50 376 157 500 283 500 c 0
 312 500 340 493 365 480 c 1
 396 532 l 2
 401 540 409 544 418 544 c 0
 431 544 444 533 444 519 c 0
 444 515 443 511 440 506 c 2
 408 451 l 1
 455 408 485 342 485 270 c 0
 485 123 378 0 252 0 c 0
252 48 m 0
 343 48 427 149 427 265 c 0
 427 318 408 367 379 402 c 1
 183 68 l 1
 203 55 226 48 252 48 c 0
278 452 m 0
 185 452 107 349 107 232 c 0
 107 183 121 138 146 104 c 1
 339 435 l 1
 321 446 300 452 278 452 c 0
EndSplineSet
EndChar
StartChar: ugrave
Encoding: 249 249 196
Width: 512
Flags: MW
HStem: -3 49<167.5 251.5 167.5 255.5> 0 21G<407.5 425> 723 20G<205 219.5>
VStem: 66 54<291 291> 392 55
LayerCount: 2
Back
Fore
SplineSet
447 475 m 2xb8
 447 28 l 2
 447 13 433 0 417 0 c 0x78
 398 0 386 15 386 33 c 2
 386 76 l 1
 361 40 294 -3 217 -3 c 0
 65 -3 67 143 66 291 c 0
 65 368 73 428 78 466 c 0
 82 495 91 500 105 500 c 0
 120 500 134 489 133 474 c 0
 131 450 120 384 120 292 c 0
 120 170 118 46 217 46 c 0
 286 46 356 94 377 118 c 0
 390 133 390 161 390 161 c 1
 395 475 l 2
 395 490 407 500 421 500 c 0
 435 500 447 490 447 475 c 2xb8
308 563 m 2
 190 684 l 2
 183 691 179 699 179 709 c 0
 179 727 196 743 214 743 c 0
 225 743 236 736 243 728 c 2
 348 598 l 2
 353 591 355 586 355 580 c 0
 355 565 341 554 327 554 c 0
 319 554 313 558 308 563 c 2
EndSplineSet
EndChar
StartChar: uacute
Encoding: 250 250 197
Width: 512
Flags: MW
HStem: -3 49<167.5 251.5 167.5 255.5> 0 21G<407.5 425> 702 20G<356.5 371.5>
VStem: 66 54<291 291> 392 55
LayerCount: 2
Back
Fore
SplineSet
447 475 m 2xb8
 447 28 l 2
 447 13 433 0 417 0 c 0x78
 398 0 386 15 386 33 c 2
 386 76 l 1
 361 40 294 -3 217 -3 c 0
 65 -3 67 143 66 291 c 0
 65 368 73 428 78 466 c 0
 82 495 91 500 105 500 c 0
 120 500 134 489 133 474 c 0
 131 450 120 384 120 292 c 0
 120 170 118 46 217 46 c 0
 286 46 356 94 377 118 c 0
 390 133 390 161 390 161 c 1
 395 475 l 2
 395 490 407 500 421 500 c 0
 435 500 447 490 447 475 c 2xb8
386 663 m 2
 248 569 l 2
 241 564 233 560 227 560 c 0
 213 560 201 572 201 587 c 0
 201 593 202 600 207 604 c 2
 333 707 l 2
 341 714 351 722 362 722 c 0
 381 722 396 706 396 686 c 0
 396 677 393 668 386 663 c 2
EndSplineSet
EndChar
StartChar: ucircumflex
Encoding: 251 251 198
Width: 512
Flags: MW
HStem: -3 49<167.5 251.5 167.5 255.5> 0 21G<407.5 425> 500 70<98 164 414 415> 714 20G<292 298.5>
VStem: 66 54<291 291> 392 55
LayerCount: 2
Back
Fore
SplineSet
447 475 m 2xbc
 447 28 l 2
 447 13 433 0 417 0 c 0x7c
 398 0 386 15 386 33 c 2
 386 76 l 1
 361 40 294 -3 217 -3 c 0
 65 -3 67 143 66 291 c 0
 65 368 73 428 78 466 c 0
 82 495 91 500 105 500 c 0
 120 500 134 489 133 474 c 0
 131 450 120 384 120 292 c 0
 120 170 118 46 217 46 c 0
 286 46 356 94 377 118 c 0
 390 133 390 161 390 161 c 1
 395 475 l 2
 395 490 407 500 421 500 c 0
 435 500 447 490 447 475 c 2xbc
315 726 m 2
 425 616 l 2
 431 611 434 604 434 596 c 0
 434 582 422 570 408 570 c 0
 401 570 394 572 389 577 c 2
 293 664 l 1
 178 575 l 2
 173 571 167 570 161 570 c 0
 147 570 135 581 135 596 c 0
 135 604 138 612 145 617 c 2
 276 727 l 2
 282 732 289 734 295 734 c 0
 302 734 309 731 315 726 c 2
EndSplineSet
EndChar
StartChar: udieresis
Encoding: 252 252 199
Width: 512
Flags: MW
HStem: -3 49<167.5 251.5 167.5 255.5> 0 21G<407.5 425> 576 83<182 204.5 341 363.5>
VStem: 66 54<291 291> 145 96<608 626.5> 304 96<608 626.5> 392 55
LayerCount: 2
Back
Fore
SplineSet
447 475 m 2xba
 447 28 l 2
 447 13 433 0 417 0 c 0x7a
 398 0 386 15 386 33 c 2
 386 76 l 1
 361 40 294 -3 217 -3 c 0
 65 -3 67 143 66 291 c 0
 65 368 73 428 78 466 c 0
 82 495 91 500 105 500 c 0
 120 500 134 489 133 474 c 0
 131 450 120 384 120 292 c 0
 120 170 118 46 217 46 c 0
 286 46 356 94 377 118 c 0
 390 133 390 161 390 161 c 1
 395 475 l 2
 395 490 407 500 421 500 c 0
 435 500 447 490 447 475 c 2xba
241 620 m 0
 241 596 219 576 190 576 c 0
 165 576 145 592 145 615 c 0
 145 638 168 659 196 659 c 0
 219 659 241 642 241 620 c 0
400 620 m 0xbc
 400 596 378 576 349 576 c 0
 324 576 304 592 304 615 c 0
 304 638 327 659 355 659 c 0
 378 659 400 642 400 620 c 0xbc
EndSplineSet
EndChar
StartChar: yacute
Encoding: 253 253 200
Width: 489
Flags: MW
HStem: -197 21G<138.5 152.5> 481 20G 705 20G<323.5 338.5>
LayerCount: 2
Back
Fore
SplineSet
467 461 m 2
 173 -179 l 2
 169 -189 159 -197 146 -197 c 0
 131 -197 118 -184 118 -168 c 0
 118 -164 119 -160 121 -156 c 2
 220 61 l 1
 24 456 l 2
 22 460 20 466 20 471 c 0
 20 487 32 500 48 500 c 0
 60 500 70 491 75 481 c 2
 251 127 l 1
 414 483 l 2
 418 493 428 501 441 501 c 0
 456 501 469 489 469 473 c 0
 469 469 469 465 467 461 c 2
353 666 m 2
 215 572 l 2
 208 567 200 563 194 563 c 0
 180 563 168 575 168 590 c 0
 168 596 169 603 174 607 c 2
 300 710 l 2
 308 717 318 725 329 725 c 0
 348 725 363 709 363 689 c 0
 363 680 360 671 353 666 c 2
EndSplineSet
EndChar
StartChar: thorn
Encoding: 254 254 118
Width: 520
Flags: MW
HStem: -195 21G<85.5 100.5> 8 57<227.5 318 227.5 339> 441 49<264.5 309 264.5 348> 441 248<85 348>
VStem: 65 56<-167 36 99 353 421 660> 420 50<214 302>
LayerCount: 2
Back
Fore
SplineSet
309 490 m 1xec
 420 485 470 376 470 271 c 0
 470 157 427 8 251 8 c 0
 199 8 152 24 121 36 c 1
 121 -167 l 2
 121 -182 108 -195 93 -195 c 0
 78 -195 65 -182 65 -167 c 2
 65 660 l 2
 65 676 77 689 93 689 c 0xdc
 109 689 121 676 121 660 c 2
 121 421 l 1
 162 459 220 490 309 490 c 1xec
257 65 m 0
 379 65 420 151 420 271 c 0
 420 333 395 441 301 441 c 0
 196 441 138 378 121 353 c 1
 121 99 l 1
 140 90 198 65 257 65 c 0
EndSplineSet
EndChar
StartChar: ydieresis
Encoding: 255 255 201
Width: 489
Flags: MW
HStem: -197 21G<138.5 152.5> 481 20G 576 83<160 182.5 319 341.5>
VStem: 123 96<608 626.5> 282 96<608 626.5>
LayerCount: 2
Back
Fore
SplineSet
467 461 m 2
 173 -179 l 2
 169 -189 159 -197 146 -197 c 0
 131 -197 118 -184 118 -168 c 0
 118 -164 119 -160 121 -156 c 2
 220 61 l 1
 24 456 l 2
 22 460 20 466 20 471 c 0
 20 487 32 500 48 500 c 0
 60 500 70 491 75 481 c 2
 251 127 l 1
 414 483 l 2
 418 493 428 501 441 501 c 0
 456 501 469 489 469 473 c 0
 469 469 469 465 467 461 c 2
219 620 m 0
 219 596 197 576 168 576 c 0
 143 576 123 592 123 615 c 0
 123 638 146 659 174 659 c 0
 197 659 219 642 219 620 c 0
378 620 m 0
 378 596 356 576 327 576 c 0
 302 576 282 592 282 615 c 0
 282 638 305 659 333 659 c 0
 356 659 378 642 378 620 c 0
EndSplineSet
EndChar
StartChar: Abreve
Encoding: 258 258 227
Width: 624
Flags: MW
HStem: -1 21G<539 553.5> 0 21G<70.5 84.5> 669 20G<322 333.5> 740 46<304.5 348.5 304.5 368.5> 740 136<262 456.5>
LayerCount: 2
Back
Fore
SplineSet
163 852 m 0x68
 163 860 165 871 180 871 c 0
 191 871 199 860 203 853 c 0
 228 803 286 786 323 786 c 0x70
 374 786 409 806 429 855 c 0
 434 867 439 876 452 876 c 0
 461 876 469 868 469 859 c 0
 469 814 416 740 321 740 c 0
 203 740 163 831 163 852 c 0x68
354 670 m 2
 572 37 l 2
 573 34 573 31 573 28 c 0
 573 13 562 -1 545 -1 c 0xa8
 533 -1 522 6 518 18 c 2
 434 262 l 1
 179 206 l 1
 105 18 l 2
 101 7 90 0 79 0 c 0
 62 0 50 15 50 29 c 0
 50 32 51 36 52 39 c 2
 112 192 l 1
 96 188 94 188 92 188 c 0
 76 188 63 200 63 217 c 0
 63 230 72 241 85 244 c 2
 137 256 l 1
 300 671 l 2
 305 682 316 689 328 689 c 0
 339 689 350 681 354 670 c 2
204 270 m 1
 415 316 l 1
 325 578 l 1
 204 270 l 1
EndSplineSet
EndChar
StartChar: abreve
Encoding: 259 259 243
Width: 505
Flags: MW
HStem: -10 21G<402.5 420> -2 55<188.5 265.5> 449 55<223.5 309> 559 46<268.5 312.5 268.5 332.5> 559 136<226 420.5>
VStem: 50 57<181 257.5 181 266> 384 56<22 45 45 45>
LayerCount: 2
Back
Fore
SplineSet
440 463 m 1x76
 440 20 l 2
 440 4 428 -10 412 -10 c 0xb6
 393 -10 384 5 384 22 c 2
 384 45 l 1
 348 23 293 -2 238 -2 c 0
 130 -2 50 85 50 214 c 0
 50 318 115 504 289 504 c 0
 363 504 425 471 440 463 c 1x76
382 111 m 1
 386 428 l 1
 367 436 326 449 292 449 c 0
 155 449 107 299 107 216 c 0
 107 146 141 53 236 53 c 0x6e
 297 53 359 95 382 111 c 1
127 671 m 0
 127 679 129 690 144 690 c 0
 155 690 163 679 167 672 c 0
 192 622 250 605 287 605 c 0x76
 338 605 373 625 393 674 c 0
 398 686 403 695 416 695 c 0
 425 695 433 687 433 678 c 0
 433 633 380 559 285 559 c 0
 167 559 127 650 127 671 c 0
EndSplineSet
EndChar
StartChar: Aogonek
Encoding: 260 260 202
Width: 624
Flags: MW
HStem: -201 43<543 553 526 557> 0 21G 669 20G<322 333.5>
VStem: 440 42<-118 -79 -118 -74> 440 199<-166.5 -74>
LayerCount: 2
Back
Fore
SplineSet
543 -201 m 0xe8
 484 -200 440 -158 440 -100 c 0
 440 -48 477 -7 517 21 c 1
 434 262 l 1
 179 206 l 1
 105 18 l 2
 101 7 90 0 79 0 c 0
 62 0 50 15 50 29 c 0
 50 32 51 36 52 39 c 2
 112 192 l 1
 96 188 94 188 92 188 c 0
 76 188 63 200 63 217 c 0
 63 230 72 241 85 244 c 2
 137 256 l 1
 300 671 l 2
 305 682 316 689 328 689 c 0
 339 689 350 681 354 670 c 2
 570 42 l 2
 579 15 563 2 545 -11 c 0
 519 -30 482 -57 482 -101 c 0xf0
 482 -135 509 -158 543 -158 c 0
 563 -158 585 -151 605 -135 c 0
 609 -132 613 -131 618 -131 c 0
 628 -131 639 -141 639 -152 c 0
 639 -181 571 -201 543 -201 c 0xe8
204 270 m 1
 415 316 l 1
 325 578 l 1
 204 270 l 1
EndSplineSet
EndChar
StartChar: aogonek
Encoding: 261 261 213
Width: 505
Flags: MW
HStem: -201 43<408 418 391 422> 8 55<188.5 265.5> 459 55<223.5 309>
VStem: 50 57<191 267.5 191 276> 305 42<-118 -79 -118 -73.5> 305 199<-166.5 -73.5> 384 56<32 55 55 55>
LayerCount: 2
Back
Fore
SplineSet
408 -201 m 0xf4
 349 -200 305 -158 305 -100 c 0
 305 -47 344 -5 385 23 c 0
 384 26 384 29 384 32 c 2
 384 55 l 1
 348 33 293 8 238 8 c 0
 130 8 50 95 50 224 c 0
 50 328 115 514 289 514 c 0
 363 514 425 481 440 473 c 1
 440 30 l 2
 440 12 425 0 410 -11 c 0
 384 -30 347 -57 347 -101 c 0xfa
 347 -135 374 -158 408 -158 c 0
 428 -158 450 -151 470 -135 c 0
 474 -132 478 -131 483 -131 c 0
 493 -131 504 -141 504 -152 c 0
 504 -181 436 -201 408 -201 c 0xf4
382 121 m 1
 386 438 l 1
 367 446 326 459 292 459 c 0
 155 459 107 309 107 226 c 0
 107 156 141 63 236 63 c 0
 297 63 359 105 382 121 c 1
EndSplineSet
EndChar
StartChar: Cacute
Encoding: 262 262 229
Width: 632
Flags: MW
HStem: -2 57<293 374 293 386> 538 121<511.5 525 511.5 525> 627 32 627 57<290 380.5 277 388.5> 892 20G<405.5 420.5>
VStem: 50 57<211 378 210 398>
LayerCount: 2
Back
Fore
SplineSet
552 161 m 0xac
 567 161 581 151 581 133 c 0
 581 127 580 121 576 116 c 0
 519 40 434 -2 338 -2 c 0
 181 -2 50 126 50 296 c 0
 50 500 208 684 346 684 c 0x9c
 415 684 461 664 492 644 c 1
 496 653 506 659 517 659 c 0
 533 659 545 647 545 631 c 2
 545 567 l 2
 545 551 533 538 517 538 c 0xcc
 501 538 488 551 488 567 c 2
 488 572 l 1
 468 593 431 627 346 627 c 0
 234 627 107 460 107 296 c 0
 107 124 248 55 338 55 c 0
 410 55 477 81 530 150 c 0
 537 159 544 161 552 161 c 0xac
435 853 m 2
 297 759 l 2
 290 754 282 750 276 750 c 0
 262 750 250 762 250 777 c 0
 250 783 251 790 256 794 c 2
 382 897 l 2
 390 904 400 912 411 912 c 0
 430 912 445 896 445 876 c 0
 445 867 442 858 435 853 c 2
EndSplineSet
EndChar
StartChar: cacute
Encoding: 263 263 245
Width: 509
Flags: MW
HStem: 0 52 448 52<240.5 300> 705 20G<359.5 374.5>
VStem: 50 53<154 231.5 154 240.5>
LayerCount: 2
Back
Fore
SplineSet
459 112 m 0
 459 105 455 99 451 93 c 0
 418 43 351 3 277 0 c 0
 159 -6 50 89 50 216 c 0
 50 265 64 309 74 335 c 0
 100 401 175 500 272 500 c 0
 346 500 384 474 422 430 c 0
 426 426 429 418 429 411 c 0
 429 396 417 384 402 384 c 0
 394 384 387 388 382 393 c 0
 355 426 326 448 274 448 c 0
 207 448 146 373 123 316 c 0
 108 278 103 245 103 218 c 0
 103 90 218 52 262 52 c 0
 334 52 377 84 406 123 c 0
 410 129 419 139 432 139 c 0
 447 139 459 127 459 112 c 0
389 666 m 2
 251 572 l 2
 244 567 236 563 230 563 c 0
 216 563 204 575 204 590 c 0
 204 596 205 603 210 607 c 2
 336 710 l 2
 344 717 354 725 365 725 c 0
 384 725 399 709 399 689 c 0
 399 680 396 671 389 666 c 2
EndSplineSet
EndChar
StartChar: Ccaron
Encoding: 268 268 230
Width: 632
Flags: MW
HStem: -2 57<293 374 293 386> 538 121<511.5 525 511.5 525> 627 32 627 57<290 380.5 277 388.5> 866 20G<231 241.5 482 492>
VStem: 50 57<211 378 210 398>
LayerCount: 2
Back
Fore
SplineSet
552 161 m 0xac
 567 161 581 151 581 133 c 0
 581 127 580 121 576 116 c 0
 519 40 434 -2 338 -2 c 0
 181 -2 50 126 50 296 c 0
 50 500 208 684 346 684 c 0x9c
 415 684 461 664 492 644 c 1
 496 653 506 659 517 659 c 0
 533 659 545 647 545 631 c 2
 545 567 l 2
 545 551 533 538 517 538 c 0xcc
 501 538 488 551 488 567 c 2
 488 572 l 1
 468 593 431 627 346 627 c 0
 234 627 107 460 107 296 c 0
 107 124 248 55 338 55 c 0
 410 55 477 81 530 150 c 0
 537 159 544 161 552 161 c 0xac
331 730 m 2
 221 840 l 2
 215 845 212 852 212 860 c 0
 212 874 224 886 238 886 c 0
 245 886 252 884 257 879 c 2
 353 792 l 1
 468 881 l 2
 473 885 479 886 485 886 c 0
 499 886 511 875 511 860 c 0
 511 852 508 844 501 839 c 2
 370 729 l 2
 364 724 357 722 351 722 c 0
 344 722 337 725 331 730 c 2
EndSplineSet
EndChar
StartChar: ccaron
Encoding: 269 269 246
Width: 509
Flags: MW
HStem: 0 52 448 52<240.5 300> 709 20G<151 161.5 402 412>
VStem: 50 53<154 231.5 154 240.5>
LayerCount: 2
Back
Fore
SplineSet
459 112 m 0
 459 105 455 99 451 93 c 0
 418 43 351 3 277 0 c 0
 159 -6 50 89 50 216 c 0
 50 265 64 309 74 335 c 0
 100 401 175 500 272 500 c 0
 346 500 384 474 422 430 c 0
 426 426 429 418 429 411 c 0
 429 396 417 384 402 384 c 0
 394 384 387 388 382 393 c 0
 355 426 326 448 274 448 c 0
 207 448 146 373 123 316 c 0
 108 278 103 245 103 218 c 0
 103 90 218 52 262 52 c 0
 334 52 377 84 406 123 c 0
 410 129 419 139 432 139 c 0
 447 139 459 127 459 112 c 0
251 573 m 2
 141 683 l 2
 135 688 132 695 132 703 c 0
 132 717 144 729 158 729 c 0
 165 729 172 727 177 722 c 2
 273 635 l 1
 388 724 l 2
 393 728 399 729 405 729 c 0
 419 729 431 718 431 703 c 0
 431 695 428 687 421 682 c 2
 290 572 l 2
 284 567 277 565 271 565 c 0
 264 565 257 568 251 573 c 2
EndSplineSet
EndChar
StartChar: Dcaron
Encoding: 270 270 233
Width: 620
Flags: MW
HStem: -20 57<194 299 194 306.5> 624 57<122 122> 866 20G<145 155.5 396 406>
VStem: 65 57<48 624 48 653 48 661> 503 57<211.5 416>
LayerCount: 2
Back
Fore
SplineSet
210 -20 m 0
 151 -20 95 -5 87 -3 c 0
 74 0 65 12 65 25 c 2
 65 653 l 2
 65 669 78 681 94 681 c 0
 257 681 560 626 560 300 c 0
 560 77 403 -20 210 -20 c 0
122 624 m 1
 122 48 l 1
 144 43 178 37 210 37 c 0
 388 37 503 123 503 300 c 0
 503 532 325 615 122 624 c 1
245 730 m 2
 135 840 l 2
 129 845 126 852 126 860 c 0
 126 874 138 886 152 886 c 0
 159 886 166 884 171 879 c 2
 267 792 l 1
 382 881 l 2
 387 885 393 886 399 886 c 0
 413 886 425 875 425 860 c 0
 425 852 422 844 415 839 c 2
 284 729 l 2
 278 724 271 722 265 722 c 0
 258 722 251 725 245 730 c 2
EndSplineSet
EndChar
StartChar: dcaron
Encoding: 271 271 249
Width: 545
Flags: MW
HStem: 0 21G<411.5 429> 4 49<177 262.5> 444 54<199 293 187.5 296.5> 520 177<429 534.5>
VStem: 51 55<192.5 272.5 192.5 297> 405 52 516 72<648.5 657>
LayerCount: 2
Back
Fore
SplineSet
465 667 m 2x7e
 450 27 l 2
 450 11 437 0 421 0 c 0xbe
 402 0 392 17 393 34 c 2
 395 79 l 1
 359 46 302 4 223 4 c 0
 105 4 51 116 51 226 c 0
 51 368 110 498 265 498 c 0
 321 498 370 482 403 467 c 1
 408 668 l 2
 408 684 421 697 437 697 c 0
 452 697 465 683 465 667 c 2x7e
106 229 m 0
 106 156 131 53 223 53 c 0x7e
 327 53 396 130 397 161 c 2
 402 406 l 1
 383 416 326 444 267 444 c 0
 131 444 106 316 106 229 c 0
556 690 m 0
 574 690 588 673 588 658 c 0
 588 639 584 630 569 594 c 0
 545 536 544 520 525 520 c 0
 512 520 502 530 502 542 c 0
 502 545 503 548 504 551 c 2
 528 615 l 1
 521 622 516 633 516 645 c 0
 516 669 535 690 556 690 c 0
EndSplineSet
EndChar
StartChar: dcroat
Encoding: 273 273 250
Width: 557
Flags: MW
HStem: 0 21G<411.5 429> 4 49<177 262.5> 444 54<199 293 187.5 296.5> 552 51<326 406 333 405 463 529> 552 145<326 444.5 333 444.5 429 529 429 462>
VStem: 51 55<192.5 272.5 192.5 297> 307 149 394 62 399 155
LayerCount: 2
Back
Fore
SplineSet
465 667 m 2x6d
 463 603 l 1
 529 603 l 2
 543 603 554 592 554 578 c 0x7480
 554 564 543 552 529 552 c 2
 462 552 l 1
 450 27 l 2
 450 11 437 0 421 0 c 0xb5
 402 0 392 17 393 34 c 2
 395 79 l 1
 359 46 302 4 223 4 c 0
 105 4 51 116 51 226 c 0
 51 368 110 498 265 498 c 0
 321 498 370 482 403 467 c 1
 405 552 l 1
 333 552 l 2
 319 552 307 564 307 578 c 0x76
 307 592 319 603 333 603 c 2
 406 603 l 1x75
 408 668 l 2
 408 684 421 697 437 697 c 0
 452 697 465 683 465 667 c 2x6d
106 229 m 0
 106 156 131 53 223 53 c 0
 327 53 396 130 397 161 c 2
 402 406 l 1
 383 416 326 444 267 444 c 0
 131 444 106 316 106 229 c 0
EndSplineSet
EndChar
StartChar: Eogonek
Encoding: 280 280 231
Width: 610
Flags: MW
HStem: -201 43<464 474 447 478> 0 57<86 520 122 412 480 480 480 520> 324 57<122 473 122 473> 625 57<122 522 122 122>
VStem: 65 57<57 324 381 625> 361 42<-118 -80> 361 199<-166.5 -80>
LayerCount: 2
Back
Fore
SplineSet
464 -201 m 0xfa
 405 -200 361 -158 361 -100 c 0
 361 -60 383 -26 412 0 c 1
 94 0 l 2
 78 0 65 13 65 29 c 2
 65 654 l 2
 65 670 78 682 94 682 c 2
 522 682 l 2
 538 682 550 670 550 654 c 0
 550 638 538 625 522 625 c 2
 122 625 l 1
 122 381 l 1
 473 381 l 2
 489 381 501 369 501 353 c 0
 501 337 489 324 473 324 c 2
 122 324 l 1
 122 57 l 1
 520 57 l 2
 536 57 548 45 548 29 c 0
 548 13 536 0 520 0 c 2
 480 0 l 1
 466 -11 l 2
 440 -30 403 -57 403 -101 c 0xfc
 403 -135 430 -158 464 -158 c 0
 484 -158 506 -151 526 -135 c 0
 530 -132 534 -131 539 -131 c 0
 549 -131 560 -141 560 -152 c 0
 560 -181 492 -201 464 -201 c 0xfa
EndSplineSet
EndChar
StartChar: eogonek
Encoding: 281 281 247
Width: 521
Flags: MW
HStem: -201 43<322 332 305 336> 446 53<224 312.5>
VStem: 51 51<231.5 295 231.5 307> 219 42<-118 -79.5> 219 199<-166.5 -79.5>
LayerCount: 2
Back
Fore
SplineSet
322 -201 m 0xe8
 263 -200 219 -158 219 -100 c 0
 219 -59 242 -25 271 1 c 1
 135 14 51 122 51 238 c 0
 51 376 139 499 275 499 c 0
 404 499 462 409 462 366 c 0
 462 355 456 346 440 337 c 2
 122 155 l 1
 159 86 218 52 299 52 c 0
 342 52 400 77 427 108 c 0
 431 113 438 116 445 116 c 0
 460 116 471 105 471 90 c 0
 471 83 468 76 464 72 c 0
 442 46 406 29 370 12 c 0
 315 -15 261 -42 261 -101 c 0xf0
 261 -135 288 -158 322 -158 c 0
 342 -158 364 -151 384 -135 c 0
 388 -132 392 -131 397 -131 c 0
 407 -131 418 -141 418 -152 c 0
 418 -181 350 -201 322 -201 c 0xe8
275 446 m 0
 173 446 102 353 102 237 c 0
 102 226 102 217 104 206 c 1
 408 373 l 1
 390 420 350 446 275 446 c 0
EndSplineSet
EndChar
StartChar: Ecaron
Encoding: 282 282 232
Width: 610
Flags: MW
HStem: 0 57<86 520 122 520 122 520> 324 57<122 473 122 473> 625 57<122 522 122 122> 866 20G<181 191.5 432 442>
VStem: 65 57<57 57 57 324 381 625>
LayerCount: 2
Back
Fore
SplineSet
281 730 m 2
 171 840 l 2
 165 845 162 852 162 860 c 0
 162 874 174 886 188 886 c 0
 195 886 202 884 207 879 c 2
 303 792 l 1
 418 881 l 2
 423 885 429 886 435 886 c 0
 449 886 461 875 461 860 c 0
 461 852 458 844 451 839 c 2
 320 729 l 2
 314 724 307 722 301 722 c 0
 294 722 287 725 281 730 c 2
122 57 m 1
 520 57 l 2
 536 57 548 45 548 29 c 0
 548 13 536 0 520 0 c 2
 94 0 l 2
 78 0 65 13 65 29 c 2
 65 654 l 2
 65 670 78 682 94 682 c 2
 522 682 l 2
 538 682 550 670 550 654 c 0
 550 638 538 625 522 625 c 2
 122 625 l 1
 122 381 l 1
 473 381 l 2
 489 381 501 369 501 353 c 0
 501 337 489 324 473 324 c 2
 122 324 l 1
 122 57 l 1
EndSplineSet
EndChar
StartChar: ecaron
Encoding: 283 283 248
Width: 521
Flags: MW
HStem: 0 52<258.5 320.5 258.5 330.5> 446 53<224 312.5> 709 20G<152 162.5 403 413>
VStem: 51 51<231.5 295 231.5 307>
LayerCount: 2
Back
Fore
SplineSet
471 90 m 0
 471 83 468 76 464 72 c 0
 429 32 361 0 300 0 c 0
 147 0 51 114 51 238 c 0
 51 376 139 499 275 499 c 0
 404 499 462 409 462 366 c 0
 462 355 456 346 440 337 c 2
 122 155 l 1
 159 86 218 52 299 52 c 0
 342 52 400 77 427 108 c 0
 431 113 438 116 445 116 c 0
 460 116 471 105 471 90 c 0
275 446 m 0
 173 446 102 353 102 237 c 0
 102 226 102 217 104 206 c 1
 408 373 l 1
 390 420 350 446 275 446 c 0
252 573 m 2
 142 683 l 2
 136 688 133 695 133 703 c 0
 133 717 145 729 159 729 c 0
 166 729 173 727 178 722 c 2
 274 635 l 1
 389 724 l 2
 394 728 400 729 406 729 c 0
 420 729 432 718 432 703 c 0
 432 695 429 687 422 682 c 2
 291 572 l 2
 285 567 278 565 272 565 c 0
 265 565 258 568 252 573 c 2
EndSplineSet
EndChar
StartChar: Lacute
Encoding: 313 313 228
Width: 477
Flags: MW
HStem: 12 57 892 20G<303.5 318.5>
VStem: 65 56<58 653 58 653 58 660.5>
LayerCount: 2
Back
Fore
SplineSet
440 24 m 2
 94 0 l 2
 79 -1 65 13 65 28 c 2
 65 653 l 2
 65 668 77 681 93 681 c 0
 108 681 121 668 121 653 c 2
 121 58 l 1
 436 80 l 2
 453 81 466 70 466 52 c 0
 466 38 455 25 440 24 c 2
333 853 m 2
 195 759 l 2
 188 754 180 750 174 750 c 0
 160 750 148 762 148 777 c 0
 148 783 149 790 154 794 c 2
 280 897 l 2
 288 904 298 912 309 912 c 0
 328 912 343 896 343 876 c 0
 343 867 340 858 333 853 c 2
EndSplineSet
EndChar
StartChar: lacute
Encoding: 314 314 244
Width: 226
Flags: MW
HStem: 0 21G<106 120> 863 20G<180.5 195.5>
VStem: 85 56<25 663>
LayerCount: 2
Back
Fore
SplineSet
141 663 m 2
 141 25 l 2
 141 11 127 0 113 0 c 0
 99 0 85 11 85 25 c 2
 85 663 l 2
 85 678 97 690 113 690 c 0
 128 690 141 678 141 663 c 2
210 824 m 2
 72 730 l 2
 65 725 57 721 51 721 c 0
 37 721 25 733 25 748 c 0
 25 754 26 761 31 765 c 2
 157 868 l 2
 165 875 175 883 186 883 c 0
 205 883 220 867 220 847 c 0
 220 838 217 829 210 824 c 2
EndSplineSet
EndChar
StartChar: Lcaron
Encoding: 317 317 206
Width: 477
Flags: MW
HStem: 12 57 866 20G<29 39.5 280 290>
VStem: 65 56<58 653 58 653 58 660.5>
LayerCount: 2
Back
Fore
SplineSet
440 24 m 2
 94 0 l 2
 79 -1 65 13 65 28 c 2
 65 653 l 2
 65 668 77 681 93 681 c 0
 108 681 121 668 121 653 c 2
 121 58 l 1
 436 80 l 2
 453 81 466 70 466 52 c 0
 466 38 455 25 440 24 c 2
129 730 m 2
 19 840 l 2
 13 845 10 852 10 860 c 0
 10 874 22 886 36 886 c 0
 43 886 50 884 55 879 c 2
 151 792 l 1
 266 881 l 2
 271 885 277 886 283 886 c 0
 297 886 309 875 309 860 c 0
 309 852 306 844 299 839 c 2
 168 729 l 2
 162 724 155 722 149 722 c 0
 142 722 135 725 129 730 c 2
EndSplineSet
EndChar
StartChar: lcaron
Encoding: 318 318 217
Width: 257
Flags: MW
HStem: 0 21G<106 120> 520 170<105 215.5>
VStem: 85 56<25 663> 197 72<648.5 657>
LayerCount: 2
Back
Fore
SplineSet
237 690 m 0
 255 690 269 673 269 658 c 0
 269 639 265 630 250 594 c 0
 226 536 225 520 206 520 c 0
 193 520 183 530 183 542 c 0
 183 545 184 548 185 551 c 2
 209 615 l 1
 202 622 197 633 197 645 c 0
 197 669 216 690 237 690 c 0
141 663 m 2
 141 25 l 2
 141 11 127 0 113 0 c 0
 99 0 85 11 85 25 c 2
 85 663 l 2
 85 678 97 690 113 690 c 0
 128 690 141 678 141 663 c 2
EndSplineSet
EndChar
StartChar: Lslash
Encoding: 321 321 204
Width: 528
Flags: MW
HStem: 12 57 661 20G<136 151.5>
VStem: 17 155<273 287> 116 56<58 295 295 295 397 653> 116 156<28 416.5 295 416.5 403.5 416.5 403.5 653>
LayerCount: 2
Back
Fore
SplineSet
517 54 m 0xe0
 517 39 508 25 491 24 c 2
 144 0 l 2
 129 -1 116 13 116 28 c 2
 116 295 l 1xd0
 61 259 l 2
 56 256 51 255 45 255 c 0
 32 255 17 264 17 282 c 0xe0
 17 292 21 301 30 307 c 2
 116 362 l 1
 116 653 l 2xd0
 116 668 128 681 144 681 c 0
 159 681 172 668 172 653 c 2
 172 397 l 1xe0
 228 433 l 2
 232 436 238 437 243 437 c 0
 258 437 272 425 272 408 c 0xc8
 272 399 267 390 259 385 c 2
 172 330 l 1
 172 58 l 1
 487 80 l 2
 503 81 516 71 517 54 c 0xe0
EndSplineSet
EndChar
StartChar: lslash
Encoding: 322 322 215
Width: 284
Flags: MW
HStem: 0 21G<143 157> 670 20G<142 157.5>
VStem: 29 149<273 287> 122 56<25 291 291 291 394 663>
LayerCount: 2
Back
Fore
SplineSet
255 437 m 0xe0
 271 437 284 424 284 408 c 0
 284 399 279 390 271 385 c 2
 178 326 l 1
 178 25 l 2
 178 11 164 0 150 0 c 0
 136 0 122 11 122 25 c 2
 122 291 l 1xd0
 73 259 l 2
 68 256 63 255 57 255 c 0
 44 255 29 264 29 282 c 0xe0
 29 292 33 301 42 307 c 2
 122 358 l 1
 122 663 l 2xd0
 122 678 134 690 150 690 c 0
 165 690 178 678 178 663 c 2
 178 394 l 1
 240 433 l 2
 244 436 250 437 255 437 c 0xe0
EndSplineSet
EndChar
StartChar: Nacute
Encoding: 323 323 235
Width: 619
Flags: MW
HStem: 0 21G<85.5 101 521.5 534> 662 20G<518 533.5> 908 20G<388.5 403.5>
VStem: 65 56<20.5 28> 498 56<117 654>
LayerCount: 2
Back
Fore
SplineSet
526 0 m 0
 517 0 508 4 503 12 c 2
 122 563 l 1
 121 28 l 2
 121 12 109 0 93 0 c 0
 78 0 65 13 65 28 c 2
 66 653 l 2
 66 667 77 681 93 681 c 0
 102 681 111 677 117 669 c 2
 498 117 l 1
 498 654 l 2
 498 669 510 682 526 682 c 0
 541 682 554 669 554 654 c 2
 554 28 l 2
 554 13 542 0 526 0 c 0
418 869 m 2
 280 775 l 2
 273 770 265 766 259 766 c 0
 245 766 233 778 233 793 c 0
 233 799 234 806 239 810 c 2
 365 913 l 2
 373 920 383 928 394 928 c 0
 413 928 428 912 428 892 c 0
 428 883 425 874 418 869 c 2
EndSplineSet
EndChar
StartChar: nacute
Encoding: 324 324 251
Width: 535
Flags: MW
HStem: 0 21G<85.5 101.5 435.5 451> 445 54<303 377.5> 705 20G<376.5 391.5>
VStem: 65 55<26 30 21.5 473> 416 53<21 28>
LayerCount: 2
Back
Fore
SplineSet
121 473 m 2
 121 292 l 1
 141 406 222 499 328 499 c 0
 472 499 473 351 469 29 c 0
 469 13 459 0 443 0 c 0
 428 0 416 13 416 28 c 0
 411 305 430 445 325 445 c 0
 281 445 228 424 175 326 c 0
 141 264 122 181 121 111 c 2
 120 30 l 2
 120 13 110 0 93 0 c 0
 78 0 65 12 65 26 c 2
 65 473 l 2
 65 488 78 500 93 500 c 0
 108 500 121 488 121 473 c 2
406 666 m 2
 268 572 l 2
 261 567 253 563 247 563 c 0
 233 563 221 575 221 590 c 0
 221 596 222 603 227 607 c 2
 353 710 l 2
 361 717 371 725 382 725 c 0
 401 725 416 709 416 689 c 0
 416 680 413 671 406 666 c 2
EndSplineSet
EndChar
StartChar: Ncaron
Encoding: 327 327 236
Width: 619
Flags: MW
HStem: 0 21G<85.5 101 521.5 534> 662 20G<518 533.5> 866 20G<188 198.5 439 449>
VStem: 65 56<20.5 28> 498 56<117 654>
LayerCount: 2
Back
Fore
SplineSet
526 0 m 0
 517 0 508 4 503 12 c 2
 122 563 l 1
 121 28 l 2
 121 12 109 0 93 0 c 0
 78 0 65 13 65 28 c 2
 66 653 l 2
 66 667 77 681 93 681 c 0
 102 681 111 677 117 669 c 2
 498 117 l 1
 498 654 l 2
 498 669 510 682 526 682 c 0
 541 682 554 669 554 654 c 2
 554 28 l 2
 554 13 542 0 526 0 c 0
288 730 m 2
 178 840 l 2
 172 845 169 852 169 860 c 0
 169 874 181 886 195 886 c 0
 202 886 209 884 214 879 c 2
 310 792 l 1
 425 881 l 2
 430 885 436 886 442 886 c 0
 456 886 468 875 468 860 c 0
 468 852 465 844 458 839 c 2
 327 729 l 2
 321 724 314 722 308 722 c 0
 301 722 294 725 288 730 c 2
EndSplineSet
EndChar
StartChar: ncaron
Encoding: 328 328 252
Width: 535
Flags: MW
HStem: 0 21G<85.5 101.5 435.5 451> 445 54<303 377.5> 709 20G<166 176.5 417 427>
VStem: 65 55<26 30 21.5 473> 416 53<21 28>
LayerCount: 2
Back
Fore
SplineSet
121 473 m 2
 121 292 l 1
 141 406 222 499 328 499 c 0
 472 499 473 351 469 29 c 0
 469 13 459 0 443 0 c 0
 428 0 416 13 416 28 c 0
 411 305 430 445 325 445 c 0
 281 445 228 424 175 326 c 0
 141 264 122 181 121 111 c 2
 120 30 l 2
 120 13 110 0 93 0 c 0
 78 0 65 12 65 26 c 2
 65 473 l 2
 65 488 78 500 93 500 c 0
 108 500 121 488 121 473 c 2
266 573 m 2
 156 683 l 2
 150 688 147 695 147 703 c 0
 147 717 159 729 173 729 c 0
 180 729 187 727 192 722 c 2
 288 635 l 1
 403 724 l 2
 408 728 414 729 420 729 c 0
 434 729 446 718 446 703 c 0
 446 695 443 687 436 682 c 2
 305 572 l 2
 299 567 292 565 286 565 c 0
 279 565 272 568 266 573 c 2
EndSplineSet
EndChar
StartChar: Ohungarumlaut
Encoding: 336 336 237
Width: 660
Flags: MW
HStem: -2 52<252 370.5 252 387> 630 52<282.5 403.5> 721 162<267 418.5 403.5 437>
VStem: 60 53<241 401 241 413> 547 53<278 430.5>
LayerCount: 2
Back
Fore
SplineSet
433 824 m 2
 295 730 l 2
 288 725 280 721 274 721 c 0
 260 721 248 733 248 748 c 0
 248 754 249 761 254 765 c 2
 380 868 l 2
 388 875 398 883 409 883 c 0
 428 883 443 867 443 847 c 0
 443 838 440 829 433 824 c 2
593 824 m 2
 455 730 l 2
 448 725 440 721 434 721 c 0
 420 721 408 733 408 748 c 0
 408 754 409 761 414 765 c 2
 540 868 l 2
 548 875 558 883 569 883 c 0
 588 883 603 867 603 847 c 0
 603 838 600 829 593 824 c 2
309 -2 m 0
 164 -2 60 143 60 313 c 0
 60 513 195 682 351 682 c 0
 495 682 600 539 600 367 c 0
 600 167 465 -2 309 -2 c 0
344 630 m 0
 221 630 113 489 113 313 c 0
 113 169 195 50 309 50 c 0
 432 50 547 193 547 363 c 0
 547 498 463 630 344 630 c 0
EndSplineSet
EndChar
StartChar: ohungarumlaut
Encoding: 337 337 253
Width: 535
Flags: MW
HStem: 0 48<208.5 297.5 208.5 315> 452 48<231.5 319.5> 562 162<147 298.5 283.5 317>
VStem: 50 57<182.5 290.5 182.5 303> 427 58<207 315>
LayerCount: 2
Back
Fore
SplineSet
252 0 m 0
 137 0 50 104 50 230 c 0
 50 376 157 500 283 500 c 0
 397 500 485 394 485 270 c 0
 485 123 378 0 252 0 c 0
278 452 m 0
 185 452 107 349 107 232 c 0
 107 133 165 48 252 48 c 0
 343 48 427 149 427 265 c 0
 427 365 361 452 278 452 c 0
313 665 m 2
 175 571 l 2
 168 566 160 562 154 562 c 0
 140 562 128 574 128 589 c 0
 128 595 129 602 134 606 c 2
 260 709 l 2
 268 716 278 724 289 724 c 0
 308 724 323 708 323 688 c 0
 323 679 320 670 313 665 c 2
473 665 m 2
 335 571 l 2
 328 566 320 562 314 562 c 0
 300 562 288 574 288 589 c 0
 288 595 289 602 294 606 c 2
 420 709 l 2
 428 716 438 724 449 724 c 0
 468 724 483 708 483 688 c 0
 483 679 480 670 473 665 c 2
EndSplineSet
EndChar
StartChar: OE
Encoding: 338 338 122
Width: 1098
Flags: MW
HStem: 0 57<574 1008 610 1008 610 1008> 324 57<610 961 610 961> 625 57<610 1010 610 610> 664 20G<273 390.5>
VStem: 60 53<243 403 243 415> 547 63<298.5 324 381 432.5>
LayerCount: 2
Back
Fore
SplineSet
610 57 m 1xec
 1008 57 l 2
 1024 57 1036 45 1036 29 c 0
 1036 13 1024 0 1008 0 c 2
 582 0 l 2
 566 0 553 13 553 29 c 2
 553 172 l 1
 500 69 409 0 309 0 c 0
 164 0 60 145 60 315 c 0
 60 515 195 684 351 684 c 0xdc
 430 684 508 638 553 557 c 1
 553 654 l 2
 553 670 566 682 582 682 c 2
 1010 682 l 2
 1026 682 1038 670 1038 654 c 0
 1038 638 1026 625 1010 625 c 2
 610 625 l 1
 610 381 l 1
 961 381 l 2
 977 381 989 369 989 353 c 0
 989 337 977 324 961 324 c 2
 610 324 l 1
 610 57 l 1xec
309 52 m 0
 460 52 547 232 547 365 c 0
 547 500 463 632 344 632 c 0
 221 632 113 491 113 315 c 0
 113 171 195 52 309 52 c 0
EndSplineSet
EndChar
StartChar: oe
Encoding: 339 339 123
Width: 877
Flags: MW
HStem: 0 46<207 286.5> 437 46 464 20G<208.5 313>
VStem: 50 56<172 279.5 172 283.5> 415 55<223.5 287 223.5 302.5>
LayerCount: 2
Back
Fore
SplineSet
415 244 m 0xd8
 415 361 350 437 271 437 c 0
 181 437 106 335 106 224 c 0
 106 120 168 46 246 46 c 0
 343 46 415 161 415 244 c 0xd8
660 0 m 0
 562 0 487 44 442 134 c 1
 401 52 327 0 246 0 c 0
 134 0 50 101 50 220 c 0
 50 347 141 484 276 484 c 0xb8
 350 484 421 434 451 361 c 1
 492 444 572 483 643 483 c 0
 763 483 820 397 820 354 c 0
 820 343 814 334 798 325 c 2
 489 147 l 1
 526 78 586 52 667 52 c 0
 710 52 758 77 785 108 c 0
 789 113 796 116 803 116 c 0
 818 116 829 105 829 90 c 0
 829 83 826 76 822 72 c 0
 787 32 721 0 660 0 c 0
643 430 m 0
 546 430 470 345 470 229 c 0
 470 218 470 209 472 198 c 1
 766 361 l 1
 741 411 708 430 643 430 c 0
EndSplineSet
EndChar
StartChar: Racute
Encoding: 340 340 226
Width: 597
Flags: MW
HStem: 0 21G<85 100.5 513 526.5> 250 47 632 56<162 261> 892 20G<373.5 388.5>
VStem: 65 56<28 241 297 631> 465 56<422 529>
LayerCount: 2
Back
Fore
SplineSet
403 853 m 2
 265 759 l 2
 258 754 250 750 244 750 c 0
 230 750 218 762 218 777 c 0
 218 783 219 790 224 794 c 2
 350 897 l 2
 358 904 368 912 379 912 c 0
 398 912 413 896 413 876 c 0
 413 867 410 858 403 853 c 2
543 41 m 0
 545 37 546 32 546 28 c 0
 546 14 535 0 518 0 c 0
 508 0 499 6 493 16 c 0
 362 242 260 250 217 250 c 0
 198 250 155 246 121 241 c 1
 121 28 l 2
 121 12 108 0 93 0 c 0
 77 0 65 12 65 28 c 2
 65 648 l 2
 65 689 81 688 170 688 c 0
 395 688 521 611 521 478 c 0
 521 366 427 308 333 276 c 1
 377 250 476 173 543 41 c 0
121 631 m 1
 121 297 l 1
 265 300 465 349 465 478 c 0
 465 580 355 632 167 632 c 0
 157 632 136 632 121 631 c 1
EndSplineSet
EndChar
StartChar: Rcaron
Encoding: 344 344 238
Width: 597
Flags: MW
HStem: 0 21G<85 100.5 513 526.5> 250 47 632 56<162 261> 866 20G<166 176.5 417 427>
VStem: 65 56<28 241 297 631> 465 56<422 529>
LayerCount: 2
Back
Fore
SplineSet
266 730 m 2
 156 840 l 2
 150 845 147 852 147 860 c 0
 147 874 159 886 173 886 c 0
 180 886 187 884 192 879 c 2
 288 792 l 1
 403 881 l 2
 408 885 414 886 420 886 c 0
 434 886 446 875 446 860 c 0
 446 852 443 844 436 839 c 2
 305 729 l 2
 299 724 292 722 286 722 c 0
 279 722 272 725 266 730 c 2
543 41 m 0
 545 37 546 32 546 28 c 0
 546 14 535 0 518 0 c 0
 508 0 499 6 493 16 c 0
 362 242 260 250 217 250 c 0
 198 250 155 246 121 241 c 1
 121 28 l 2
 121 12 108 0 93 0 c 0
 77 0 65 12 65 28 c 2
 65 648 l 2
 65 689 81 688 170 688 c 0
 395 688 521 611 521 478 c 0
 521 366 427 308 333 276 c 1
 377 250 476 173 543 41 c 0
121 631 m 1
 121 297 l 1
 265 300 465 349 465 478 c 0
 465 580 355 632 167 632 c 0
 157 632 136 632 121 631 c 1
EndSplineSet
EndChar
StartChar: rcaron
Encoding: 345 345 254
Width: 416
Flags: MW
HStem: 0 21G<86 100.5> 362 140<251 356> 447 55<262 300.5> 709 20G<116 126.5 367 377>
VStem: 65 56<19 472> 322 54<390 415 415 422 381.5 423.5>
LayerCount: 2
Back
Fore
SplineSet
216 573 m 2xbc
 106 683 l 2
 100 688 97 695 97 703 c 0
 97 717 109 729 123 729 c 0
 130 729 137 727 142 722 c 2
 238 635 l 1
 353 724 l 2
 358 728 364 729 370 729 c 0
 384 729 396 718 396 703 c 0
 396 695 393 687 386 682 c 2
 255 572 l 2
 249 567 242 565 236 565 c 0
 229 565 222 568 216 573 c 2xbc
376 422 m 2
 376 389 l 2
 376 374 364 362 348 362 c 0xdc
 328 362 322 377 322 390 c 2
 322 415 l 2
 322 432 315 447 286 447 c 0
 238 447 193 407 156 357 c 0
 137 332 122 285 122 253 c 2
 121 26 l 2
 121 12 108 0 93 0 c 0
 79 0 65 12 65 26 c 2
 65 472 l 2
 65 487 78 499 93 499 c 0
 109 499 122 487 122 472 c 2
 122 376 l 1
 152 430 207 502 295 502 c 0
 358 502 376 458 376 422 c 2
EndSplineSet
EndChar
StartChar: Sacute
Encoding: 346 346 207
Width: 598
Flags: MW
HStem: 0 53<267.5 340.5 267.5 355.5> 0 186<81.5 355.5> 518 164<270 515> 632 50<280.5 360> 892 20G<396.5 411.5>
VStem: 95 64<481 554 481 574.5> 474 63<145.5 213>
LayerCount: 2
Back
Fore
SplineSet
318 388 m 0x9e
 465 347 537 283 537 191 c 0
 537 60 407 0 304 0 c 0
 191 0 97 57 64 140 c 0
 62 144 60 152 60 157 c 0
 60 173 73 186 90 186 c 0x6e
 105 186 115 177 120 163 c 0
 146 87 232 53 303 53 c 0
 378 53 474 93 474 198 c 0
 474 228 463 288 305 331 c 0
 208 357 95 409 95 509 c 0
 95 640 213 682 327 682 c 0
 401 682 526 662 534 548 c 0
 535 531 523 518 507 518 c 0xae
 493 518 481 529 480 542 c 0
 473 604 396 632 324 632 c 0
 237 632 159 602 159 506 c 0
 159 456 213 417 318 388 c 0x9e
426 853 m 2
 288 759 l 2
 281 754 273 750 267 750 c 0
 253 750 241 762 241 777 c 0
 241 783 242 790 247 794 c 2
 373 897 l 2
 381 904 391 912 402 912 c 0
 421 912 436 896 436 876 c 0
 436 867 433 858 426 853 c 2
EndSplineSet
EndChar
StartChar: sacute
Encoding: 347 347 218
Width: 458
Flags: MW
HStem: -2 53<201 277.5 201 285.5> 341 158<214.5 387> 449 50<217.5 287.5> 705 20G<321.5 336.5>
VStem: 80 52<350.5 401.5 350.5 427.5> 352 52
LayerCount: 2
Back
Fore
SplineSet
233 -2 m 0xbc
 110 -2 51 94 51 128 c 0
 51 143 63 155 78 155 c 0
 91 155 100 147 103 136 c 0
 121 83 169 51 233 51 c 0
 322 51 351 111 351 140 c 0
 351 185 331 210 233 239 c 0
 127 271 80 309 80 380 c 0
 80 475 179 499 250 499 c 0
 351 499 405 455 405 387 c 0
 405 357 397 341 377 341 c 0xdc
 359 341 350 354 350 368 c 0
 350 371 352 379 352 388 c 0
 352 425 322 449 253 449 c 0
 182 449 132 424 132 379 c 0
 132 322 199 303 239 291 c 0
 332 261 404 239 404 139 c 0
 404 72 338 -2 233 -2 c 0xbc
351 666 m 2
 213 572 l 2
 206 567 198 563 192 563 c 0
 178 563 166 575 166 590 c 0
 166 596 167 603 172 607 c 2
 298 710 l 2
 306 717 316 725 327 725 c 0
 346 725 361 709 361 689 c 0
 361 680 358 671 351 666 c 2
EndSplineSet
EndChar
StartChar: Scedilla
Encoding: 350 350 209
Width: 598
Flags: MW
HStem: -201 42<293.5 318.5 293.5 330> -61 42<297.5 318.5> 0 53<295 304 295 295> 518 164<270 515> 632 50<280.5 360>
VStem: 95 64<481 554 481 574.5> 226 170<-162.5 -86> 354 42<-123.5 -96.5> 474 63<145.5 213>
LayerCount: 2
Back
Fore
SplineSet
247 -33 m 2xf580
 259 3 l 1
 167 16 92 68 64 140 c 0
 62 144 60 152 60 157 c 0
 60 173 73 186 90 186 c 0
 105 186 115 177 120 163 c 0
 146 87 232 53 303 53 c 0
 378 53 474 93 474 198 c 0
 474 228 463 288 305 331 c 0
 208 357 95 409 95 509 c 0
 95 640 213 682 327 682 c 0
 401 682 526 662 534 548 c 0
 535 531 523 518 507 518 c 0xf680
 493 518 481 529 480 542 c 0
 473 604 396 632 324 632 c 0
 237 632 159 602 159 506 c 0
 159 456 213 417 318 388 c 0
 465 347 537 283 537 191 c 0
 537 60 407 0 304 0 c 2
 295 0 l 1
 294 -19 l 1
 362 -19 396 -62 396 -110 c 0
 396 -160 355 -201 305 -201 c 0
 273 -201 226 -179 226 -146 c 0xee80
 226 -138 235 -128 247 -128 c 0
 255 -128 260 -133 265 -139 c 0
 273 -148 282 -159 305 -159 c 0
 332 -159 354 -137 354 -110 c 0
 354 -83 332 -61 305 -61 c 0
 290 -61 281 -67 274 -71 c 0
 270 -74 266 -76 262 -76 c 0
 251 -76 241 -68 241 -56 c 0
 241 -50 243 -43 247 -33 c 2xf580
EndSplineSet
EndChar
StartChar: scedilla
Encoding: 351 351 221
Width: 458
Flags: MW
HStem: -201 42<229.5 254.5 229.5 266> -61 42<233.5 254.5> -2 53<231 233 231 231> 341 158<214.5 387> 449 50<217.5 287.5>
VStem: 80 52<350.5 401.5 350.5 427.5> 162 170<-162.5 -86> 290 42<-123.5 -96.5> 352 52
LayerCount: 2
Back
Fore
SplineSet
183 -33 m 2xf580
 195 1 l 1
 98 18 51 97 51 128 c 0
 51 143 63 155 78 155 c 0
 91 155 100 147 103 136 c 0
 121 83 169 51 233 51 c 0
 322 51 351 111 351 140 c 0
 351 185 331 210 233 239 c 0
 127 271 80 309 80 380 c 0
 80 475 179 499 250 499 c 0
 351 499 405 455 405 387 c 0
 405 357 397 341 377 341 c 0xf680
 359 341 350 354 350 368 c 0
 350 371 352 379 352 388 c 0
 352 425 322 449 253 449 c 0
 182 449 132 424 132 379 c 0
 132 322 199 303 239 291 c 0
 332 261 404 239 404 139 c 0
 404 72 338 -2 233 -2 c 2
 231 -2 l 1
 230 -19 l 1
 298 -19 332 -62 332 -110 c 0
 332 -160 291 -201 241 -201 c 0
 209 -201 162 -179 162 -146 c 0xee80
 162 -138 171 -128 183 -128 c 0
 191 -128 196 -133 201 -139 c 0
 209 -148 218 -159 241 -159 c 0
 268 -159 290 -137 290 -110 c 0
 290 -83 268 -61 241 -61 c 0
 226 -61 217 -67 210 -71 c 0
 206 -74 202 -76 198 -76 c 0
 187 -76 177 -68 177 -56 c 0
 177 -50 179 -43 183 -33 c 2xf580
EndSplineSet
EndChar
StartChar: Scaron
Encoding: 352 352 136
Width: 598
Flags: MW
HStem: 0 53<267.5 340.5 267.5 355.5> 0 186<81.5 355.5> 518 164<270 515> 632 50<280.5 360> 873 20G<204 214.5 455 465>
VStem: 95 64<481 554 481 574.5> 474 63<145.5 213>
LayerCount: 2
Back
Fore
SplineSet
304 737 m 2x9e
 194 847 l 2
 188 852 185 859 185 867 c 0
 185 881 197 893 211 893 c 0
 218 893 225 891 230 886 c 2
 326 799 l 1
 441 888 l 2
 446 892 452 893 458 893 c 0
 472 893 484 882 484 867 c 0
 484 859 481 851 474 846 c 2
 343 736 l 2
 337 731 330 729 324 729 c 0
 317 729 310 732 304 737 c 2x9e
318 388 m 0
 465 347 537 283 537 191 c 0
 537 60 407 0 304 0 c 0
 191 0 97 57 64 140 c 0
 62 144 60 152 60 157 c 0
 60 173 73 186 90 186 c 0x6e
 105 186 115 177 120 163 c 0
 146 87 232 53 303 53 c 0
 378 53 474 93 474 198 c 0
 474 228 463 288 305 331 c 0
 208 357 95 409 95 509 c 0
 95 640 213 682 327 682 c 0
 401 682 526 662 534 548 c 0
 535 531 523 518 507 518 c 0xae
 493 518 481 529 480 542 c 0
 473 604 396 632 324 632 c 0
 237 632 159 602 159 506 c 0
 159 456 213 417 318 388 c 0
EndSplineSet
EndChar
StartChar: scaron
Encoding: 353 353 137
Width: 458
Flags: MW
HStem: -2 53<201 277.5 201 285.5> 341 158<214.5 387> 449 50<217.5 287.5> 709 20G<142 152.5 393 403>
VStem: 80 52<350.5 401.5 350.5 427.5> 352 52
LayerCount: 2
Back
Fore
SplineSet
242 573 m 2xbc
 132 683 l 2
 126 688 123 695 123 703 c 0
 123 717 135 729 149 729 c 0
 156 729 163 727 168 722 c 2
 264 635 l 1
 379 724 l 2
 384 728 390 729 396 729 c 0
 410 729 422 718 422 703 c 0
 422 695 419 687 412 682 c 2
 281 572 l 2
 275 567 268 565 262 565 c 0
 255 565 248 568 242 573 c 2xbc
233 -2 m 0
 110 -2 51 94 51 128 c 0
 51 143 63 155 78 155 c 0
 91 155 100 147 103 136 c 0
 121 83 169 51 233 51 c 0
 322 51 351 111 351 140 c 0
 351 185 331 210 233 239 c 0
 127 271 80 309 80 380 c 0
 80 475 179 499 250 499 c 0
 351 499 405 455 405 387 c 0
 405 357 397 341 377 341 c 0xdc
 359 341 350 354 350 368 c 0
 350 371 352 379 352 388 c 0
 352 425 322 449 253 449 c 0
 182 449 132 424 132 379 c 0
 132 322 199 303 239 291 c 0
 332 261 404 239 404 139 c 0
 404 72 338 -2 233 -2 c 0
EndSplineSet
EndChar
StartChar: uni0162
Encoding: 354 354 241
Width: 522
Flags: MW
HStem: -198 170<226.5 273> 0 21G<246.5 262> 625 56<30.5 484 38 226 282 484 282 282>
VStem: 226 56<28 625> 226 70
LayerCount: 2
Back
Fore
SplineSet
484 681 m 2xf0
 500 681 512 669 512 653 c 0
 512 638 500 625 484 625 c 2
 282 625 l 1
 282 28 l 2
 282 13 270 0 254 0 c 0
 239 0 226 13 226 28 c 2
 226 625 l 1
 38 625 l 2
 23 625 10 638 10 653 c 0
 10 669 23 681 38 681 c 2
 484 681 l 2xf0
264 -28 m 0
 282 -28 296 -45 296 -60 c 0xe8
 296 -79 292 -88 277 -124 c 0
 253 -182 252 -198 233 -198 c 0
 220 -198 210 -188 210 -176 c 0
 210 -173 211 -170 212 -167 c 2
 236 -103 l 1
 229 -96 224 -85 224 -73 c 0
 224 -49 243 -28 264 -28 c 0
EndSplineSet
EndChar
StartChar: uni0163
Encoding: 355 355 257
Width: 387
Flags: MW
HStem: -198 170<166.5 213> -1 21G<185.5 200.5> 444 56<40 165 50 165 50 165 221 339> 444 228<40 201.5 48 201.5 185 339 185 221>
VStem: 20 201 165 56<26 444 500 643> 165 71 165 202<26 480 444 480 464.5 643 464.5 650.5>
LayerCount: 2
Back
Fore
SplineSet
204 -28 m 0xe2
 222 -28 236 -45 236 -60 c 0
 236 -79 232 -88 217 -124 c 0
 193 -182 192 -198 173 -198 c 0
 160 -198 150 -188 150 -176 c 0
 150 -173 151 -170 152 -167 c 2
 176 -103 l 1
 169 -96 164 -85 164 -73 c 0
 164 -49 183 -28 204 -28 c 0xe2
221 500 m 1xe8
 339 500 l 2
 355 500 367 488 367 472 c 0xe1
 367 457 355 444 339 444 c 2
 221 444 l 1
 221 26 l 2
 221 11 208 -1 193 -1 c 0
 178 -1 165 11 165 26 c 2
 165 444 l 1xe4
 48 444 l 2
 32 444 20 457 20 472 c 0xe8
 20 489 34 500 50 500 c 2
 165 500 l 1xe4
 165 643 l 2
 165 658 177 672 193 672 c 0xd4
 210 672 221 658 221 643 c 2
 221 500 l 1xe8
EndSplineSet
EndChar
StartChar: tcaron
Encoding: 357 357 222
Width: 410
Flags: MW
HStem: -1 21G<185.5 200.5> 444 56<40 165 50 165 50 165 221 339> 444 228<40 201.5 48 201.5 185 339 185 221> 520 170<320.5 367>
VStem: 20 201 165 56<26 444 500 643> 165 202<26 480 444 480 464.5 643 464.5 650.5> 318 72<648.5 657>
LayerCount: 2
Back
Fore
SplineSet
358 690 m 0xd9
 376 690 390 673 390 658 c 0
 390 639 386 630 371 594 c 0
 347 536 346 520 327 520 c 0
 314 520 304 530 304 542 c 0
 304 545 305 548 306 551 c 2
 330 615 l 1
 323 622 318 633 318 645 c 0
 318 669 337 690 358 690 c 0xd9
221 500 m 1
 339 500 l 2
 355 500 367 488 367 472 c 0xd2
 367 457 355 444 339 444 c 2
 221 444 l 1
 221 26 l 2
 221 11 208 -1 193 -1 c 0
 178 -1 165 11 165 26 c 2
 165 444 l 1xd5
 48 444 l 2
 32 444 20 457 20 472 c 0xd9
 20 489 34 500 50 500 c 2
 165 500 l 1xd5
 165 643 l 2
 165 658 177 672 193 672 c 0xa5
 210 672 221 658 221 643 c 2
 221 500 l 1
EndSplineSet
EndChar
StartChar: Uring
Encoding: 366 366 239
Width: 683
Flags: MW
HStem: 0 49<249 402.5 247 421.5> 721 46<326 366.5 326 373.5> 893 47<331 379.5>
VStem: 67 56<381 653 381 654 381 662> 226 42<805.5 838 805.5 857> 433 42<814 849.5> 560 56<653 659>
LayerCount: 2
Back
Fore
SplineSet
616 653 m 0
 620 527 625 400 608 270 c 0
 587 110 510 0 333 0 c 0
 165 0 76 125 67 367 c 0
 63 474 66 569 67 654 c 0
 67 670 81 681 95 681 c 0
 110 681 123 669 123 653 c 0
 121 564 120 474 123 381 c 0
 128 236 159 49 335 49 c 0
 470 49 536 139 552 277 c 0
 565 397 560 518 560 651 c 0
 560 667 570 681 588 681 c 0
 603 681 616 668 616 653 c 0
340 721 m 0
 278 721 226 766 226 823 c 0
 226 891 294 940 362 940 c 0
 422 940 475 895 475 837 c 0
 475 768 407 721 340 721 c 0
358 893 m 0
 304 893 268 853 268 823 c 0
 268 788 303 767 349 767 c 0
 384 767 433 793 433 835 c 0
 433 864 401 893 358 893 c 0
EndSplineSet
EndChar
StartChar: uring
Encoding: 367 367 255
Width: 512
Flags: MW
HStem: -3 49<167.5 251.5 167.5 255.5> 0 21G<407.5 425> 563 46<251 291.5 251 298.5> 735 47<256 304.5>
VStem: 66 54<291 291> 151 42<647.5 680 647.5 699> 358 42<656 691.5> 392 55
LayerCount: 2
Back
Fore
SplineSet
447 475 m 2xbd
 447 28 l 2
 447 13 433 0 417 0 c 0x7d
 398 0 386 15 386 33 c 2
 386 76 l 1
 361 40 294 -3 217 -3 c 0
 65 -3 67 143 66 291 c 0
 65 368 73 428 78 466 c 0
 82 495 91 500 105 500 c 0
 120 500 134 489 133 474 c 0
 131 450 120 384 120 292 c 0
 120 170 118 46 217 46 c 0
 286 46 356 94 377 118 c 0
 390 133 390 161 390 161 c 1
 395 475 l 2
 395 490 407 500 421 500 c 0
 435 500 447 490 447 475 c 2xbd
265 563 m 0
 203 563 151 608 151 665 c 0
 151 733 219 782 287 782 c 0
 347 782 400 737 400 679 c 0xbe
 400 610 332 563 265 563 c 0
283 735 m 0
 229 735 193 695 193 665 c 0
 193 630 228 609 274 609 c 0
 309 609 358 635 358 677 c 0
 358 706 326 735 283 735 c 0
EndSplineSet
EndChar
